<svg xmlns="http://www.w3.org/2000/svg" width="28" height="21" viewBox="0 0 28 21">
  <defs>
    <style>
      .cls-1 {
        fill: #0d73ff;
        fill-rule: evenodd;
      }
    </style>
  </defs>
  <path class="cls-1" d="M24.349,19.019h-5.2l0.509,0.243a0.918,0.918,0,0,1,.43,1.213,0.9,0.9,0,0,1-.812.524,0.875,0.875,0,0,1-.381-0.087l-4.146-1.979a0.327,0.327,0,0,1-.029-0.018,0.413,0.413,0,0,1-.05-0.029l-0.059-.037c-0.023-.018-0.044-0.036-0.065-0.055l-0.01-.009c-0.011-.009-0.022-0.017-0.033-0.027l-0.022-.024a0.8,0.8,0,0,1-.056-0.069,0.7,0.7,0,0,1-.051-0.07,0.847,0.847,0,0,1-.04-0.076,0.877,0.877,0,0,1-.038-0.081c0-.009-0.008-0.016-0.01-0.025s-0.011-.042-0.016-0.064a0.694,0.694,0,0,1-.02-0.08c0-.01,0-0.018-0.006-0.028a0.7,0.7,0,0,1,0-.078c0-.018-0.006-0.037-0.006-0.056s0-.011,0-0.017,0-.018,0-0.026c0-.027.007-0.053,0.011-0.079s0.005-.051.011-0.076c0-.007,0-0.013,0-0.02,0.005-.024.015-0.046,0.023-0.069s0.018-.057.03-0.084,0.026-.05.04-0.075a0.852,0.852,0,0,1,.044-0.075l0.012-.019c0.015-.02.033-0.037,0.049-0.056s0.034-.041.053-0.059l0.016-.018c0.019-.017.039-0.03,0.059-0.045s0.041-.033.064-0.047l0.025-.018,3.867-2.349a0.89,0.89,0,0,1,1.23.315,0.919,0.919,0,0,1-.309,1.25l-1.082.657h5.965A1.879,1.879,0,0,0,26.211,15.3V5.886a1.88,1.88,0,0,0-1.862-1.893H15.724a0.911,0.911,0,0,1,0-1.823h8.625a3.691,3.691,0,0,1,3.657,3.715V15.3A3.69,3.69,0,0,1,24.349,19.019Zm-10.8-15.85c0,0.018-.006.036-0.009,0.053s-0.009.053-.015,0.079,0,0.027-.009.042-0.012.031-.018,0.046a0.868,0.868,0,0,1-.034.084s0,0.01-.006.014a0.215,0.215,0,0,1-.008.021v0c-0.007.014-.017,0.026-0.025,0.038s-0.031.05-.048,0.075a0.751,0.751,0,0,1-.054.067l0,0C13.313,3.7,13.307,3.712,13.3,3.72s-0.025.022-.038,0.034S13.22,3.79,13.2,3.807a0.672,0.672,0,0,1-.065.046l-0.033.02-0.018.013L9.089,6.056a0.884,0.884,0,0,1-.422.108,0.9,0.9,0,0,1-.791-0.482,0.918,0.918,0,0,1,.368-1.234l0.836-.454H3.651A1.88,1.88,0,0,0,1.789,5.886V15.3A1.879,1.879,0,0,0,3.651,17.2H12.1a0.912,0.912,0,0,1,0,1.823H3.651A3.69,3.69,0,0,1-.006,15.3V5.886A3.691,3.691,0,0,1,3.651,2.171H9.041L8.2,1.719A0.919,0.919,0,0,1,7.826.487,0.891,0.891,0,0,1,9.039.107l4.039,2.169h0l0.008,0.006C13.1,2.288,13.107,2.3,13.118,2.3a0.787,0.787,0,0,1,.072.047c0.012,0.009.024,0.015,0.036,0.025s0.023,0.024.036,0.035S13.3,2.45,13.32,2.47s0.021,0.02.03,0.032,0.018,0.027.027,0.04a0.689,0.689,0,0,1,.047.071c0.015,0.025.029,0.05,0.041,0.076s0.023,0.054.034,0.083,0.013,0.03.018,0.045,0.006,0.029.009,0.043,0.012,0.053.016,0.081,0.007,0.033.009,0.05,0,0.035,0,.053,0,0.025,0,.038,0,0.025,0,.037S13.553,3.152,13.551,3.169Z"/>
</svg>
