<svg xmlns="http://www.w3.org/2000/svg" width="24" height="24" viewBox="0 0 24 24">
  <defs>
    <style>
      .cls-1 {
        fill: #0d73ff;
        fill-rule: evenodd;
      }
    </style>
  </defs>
  <path class="cls-1" d="M23.733,0H0.267A0.269,0.269,0,0,0,0,.267V23.733A0.269,0.269,0,0,0,.267,24H23.733A0.269,0.269,0,0,0,24,23.733V0.267A0.269,0.269,0,0,0,23.733,0ZM7.57,19.959a0.507,0.507,0,0,1-.055,0,0.539,0.539,0,0,1-.535-0.484L6.787,17.564,3.853,20.5a0.538,0.538,0,1,1-.762-0.762L6.026,16.8l-1.914-.194a0.539,0.539,0,0,1,.108-1.072l3.043,0.308a0.507,0.507,0,0,1,.092.026,0.465,0.465,0,0,1,.07.019,0.536,0.536,0,0,1,.275.275,0.546,0.546,0,0,1,.019.07,0.49,0.49,0,0,1,.026.092l0.308,3.042A0.539,0.539,0,0,1,7.57,19.959ZM7.745,7.476a0.5,0.5,0,0,1-.026.092,0.557,0.557,0,0,1-.019.07,0.537,0.537,0,0,1-.275.275,0.475,0.475,0,0,1-.07.019,0.507,0.507,0,0,1-.092.026L4.22,8.266l-0.055,0a0.539,0.539,0,0,1-.054-1.074L6.026,7,3.091,4.066A0.538,0.538,0,0,1,3.853,3.3L6.787,6.239,6.98,4.326a0.539,0.539,0,1,1,1.072.108ZM21.044,20.5a0.538,0.538,0,0,1-.762,0l-2.935-2.934-0.193,1.913a0.539,0.539,0,0,1-.535.484,0.509,0.509,0,0,1-.055,0,0.539,0.539,0,0,1-.482-0.59l0.308-3.042a0.487,0.487,0,0,1,.026-0.092,0.514,0.514,0,0,1,.02-0.07,0.536,0.536,0,0,1,.275-0.275,0.469,0.469,0,0,1,.07-0.019,0.507,0.507,0,0,1,.091-0.026l3.043-.308a0.539,0.539,0,0,1,.108,1.072l-1.914.194,2.935,2.935A0.538,0.538,0,0,1,21.044,20.5Zm0-16.432L18.109,7l1.914,0.194a0.539,0.539,0,0,1-.053,1.074l-0.055,0-3.043-.308a0.507,0.507,0,0,1-.091-0.026,0.479,0.479,0,0,1-.07-0.019,0.537,0.537,0,0,1-.275-0.275,0.523,0.523,0,0,1-.02-0.07,0.494,0.494,0,0,1-.026-0.092L16.082,4.434a0.539,0.539,0,1,1,1.072-.108l0.193,1.913L20.282,3.3A0.538,0.538,0,0,1,21.044,4.066Z"/>
</svg>
