<svg xmlns="http://www.w3.org/2000/svg" width="21" height="22" viewBox="0 0 21 22">
  <defs>
    <style>
      .cls-1 {
        fill: #0d73ff;
        fill-rule: evenodd;
      }
    </style>
  </defs>
  <path class="cls-1" d="M20.4,8.508H17.374V6.844a6.874,6.874,0,0,0-13.748,0V8.508H0.6a0.6,0.6,0,0,0-.6.6V21.4a0.6,0.6,0,0,0,.6.6H20.4a0.6,0.6,0,0,0,.6-0.6V9.108A0.6,0.6,0,0,0,20.4,8.508ZM5.435,6.844a5.065,5.065,0,0,1,10.13,0V8.508H5.435V6.844ZM11.1,15.072v4.31H9.9V15.074A1.454,1.454,0,1,1,11.1,15.072Z"/>
</svg>
