<svg xmlns="http://www.w3.org/2000/svg" width="92" height="81" viewBox="0 0 92 81">
  <defs>
    <style>
      .cls-1 {
        fill: #ccc;
        fill-rule: evenodd;
      }
    </style>
  </defs>
  <path id="Ellipse_3_copy_15" data-name="Ellipse 3 copy 15" class="cls-1" d="M2,0A2,2,0,1,1,0,2,2,2,0,0,1,2,0ZM13,0a2,2,0,1,1-2,2A2,2,0,0,1,13,0ZM24,0a2,2,0,1,1-2,2A2,2,0,0,1,24,0ZM35,0a2,2,0,1,1-2,2A2,2,0,0,1,35,0ZM46,0a2,2,0,1,1-2,2A2,2,0,0,1,46,0ZM57,0a2,2,0,1,1-2,2A2,2,0,0,1,57,0ZM68,0a2,2,0,1,1-2,2A2,2,0,0,1,68,0ZM79,0a2,2,0,1,1-2,2A2,2,0,0,1,79,0ZM90,0a2,2,0,1,1-2,2A2,2,0,0,1,90,0ZM2,11a2,2,0,1,1-2,2A2,2,0,0,1,2,11Zm11,0a2,2,0,1,1-2,2A2,2,0,0,1,13,11Zm11,0a2,2,0,1,1-2,2A2,2,0,0,1,24,11Zm11,0a2,2,0,1,1-2,2A2,2,0,0,1,35,11Zm11,0a2,2,0,1,1-2,2A2,2,0,0,1,46,11Zm11,0a2,2,0,1,1-2,2A2,2,0,0,1,57,11Zm11,0a2,2,0,1,1-2,2A2,2,0,0,1,68,11Zm11,0a2,2,0,1,1-2,2A2,2,0,0,1,79,11Zm11,0a2,2,0,1,1-2,2A2,2,0,0,1,90,11ZM2,22a2,2,0,1,1-2,2A2,2,0,0,1,2,22Zm11,0a2,2,0,1,1-2,2A2,2,0,0,1,13,22Zm11,0a2,2,0,1,1-2,2A2,2,0,0,1,24,22Zm11,0a2,2,0,1,1-2,2A2,2,0,0,1,35,22Zm11,0a2,2,0,1,1-2,2A2,2,0,0,1,46,22Zm11,0a2,2,0,1,1-2,2A2,2,0,0,1,57,22Zm11,0a2,2,0,1,1-2,2A2,2,0,0,1,68,22Zm11,0a2,2,0,1,1-2,2A2,2,0,0,1,79,22Zm11,0a2,2,0,1,1-2,2A2,2,0,0,1,90,22ZM2,33a2,2,0,1,1-2,2A2,2,0,0,1,2,33Zm11,0a2,2,0,1,1-2,2A2,2,0,0,1,13,33Zm11,0a2,2,0,1,1-2,2A2,2,0,0,1,24,33Zm11,0a2,2,0,1,1-2,2A2,2,0,0,1,35,33Zm11,0a2,2,0,1,1-2,2A2,2,0,0,1,46,33Zm11,0a2,2,0,1,1-2,2A2,2,0,0,1,57,33Zm11,0a2,2,0,1,1-2,2A2,2,0,0,1,68,33Zm11,0a2,2,0,1,1-2,2A2,2,0,0,1,79,33Zm11,0a2,2,0,1,1-2,2A2,2,0,0,1,90,33ZM2,44a2,2,0,1,1-2,2A2,2,0,0,1,2,44Zm11,0a2,2,0,1,1-2,2A2,2,0,0,1,13,44Zm11,0a2,2,0,1,1-2,2A2,2,0,0,1,24,44Zm11,0a2,2,0,1,1-2,2A2,2,0,0,1,35,44Zm11,0a2,2,0,1,1-2,2A2,2,0,0,1,46,44Zm11,0a2,2,0,1,1-2,2A2,2,0,0,1,57,44Zm11,0a2,2,0,1,1-2,2A2,2,0,0,1,68,44Zm11,0a2,2,0,1,1-2,2A2,2,0,0,1,79,44Zm11,0a2,2,0,1,1-2,2A2,2,0,0,1,90,44ZM2,55a2,2,0,1,1-2,2A2,2,0,0,1,2,55Zm11,0a2,2,0,1,1-2,2A2,2,0,0,1,13,55Zm11,0a2,2,0,1,1-2,2A2,2,0,0,1,24,55Zm11,0a2,2,0,1,1-2,2A2,2,0,0,1,35,55Zm11,0a2,2,0,1,1-2,2A2,2,0,0,1,46,55Zm11,0a2,2,0,1,1-2,2A2,2,0,0,1,57,55Zm11,0a2,2,0,1,1-2,2A2,2,0,0,1,68,55Zm11,0a2,2,0,1,1-2,2A2,2,0,0,1,79,55Zm11,0a2,2,0,1,1-2,2A2,2,0,0,1,90,55ZM2,66a2,2,0,1,1-2,2A2,2,0,0,1,2,66Zm11,0a2,2,0,1,1-2,2A2,2,0,0,1,13,66Zm11,0a2,2,0,1,1-2,2A2,2,0,0,1,24,66Zm11,0a2,2,0,1,1-2,2A2,2,0,0,1,35,66Zm11,0a2,2,0,1,1-2,2A2,2,0,0,1,46,66Zm11,0a2,2,0,1,1-2,2A2,2,0,0,1,57,66Zm11,0a2,2,0,1,1-2,2A2,2,0,0,1,68,66Zm11,0a2,2,0,1,1-2,2A2,2,0,0,1,79,66Zm11,0a2,2,0,1,1-2,2A2,2,0,0,1,90,66ZM2,77a2,2,0,1,1-2,2A2,2,0,0,1,2,77Zm11,0a2,2,0,1,1-2,2A2,2,0,0,1,13,77Zm11,0a2,2,0,1,1-2,2A2,2,0,0,1,24,77Zm11,0a2,2,0,1,1-2,2A2,2,0,0,1,35,77Zm11,0a2,2,0,1,1-2,2A2,2,0,0,1,46,77Zm11,0a2,2,0,1,1-2,2A2,2,0,0,1,57,77Zm11,0a2,2,0,1,1-2,2A2,2,0,0,1,68,77Zm11,0a2,2,0,1,1-2,2A2,2,0,0,1,79,77Zm11,0a2,2,0,1,1-2,2A2,2,0,0,1,90,77Z"/>
</svg>
