<svg id="bg" xmlns="http://www.w3.org/2000/svg" width="669" height="529" viewBox="0 0 669 529">
  <defs>
    <style>
      .cls-1 {
        fill: #03ccff;
      }

      .cls-2, .cls-4 {
        fill: #fff;
      }

      .cls-2, .cls-3, .cls-4, .cls-5 {
        fill-rule: evenodd;
      }

      .cls-2, .cls-3 {
        opacity: 0.5;
      }

      .cls-3, .cls-5 {
        fill: #0ecbfc;
      }

      .cls-4 {
        opacity: 0.44;
      }

      .cls-5 {
        opacity: 0.33;
      }
    </style>
  </defs>
  <rect id="Rounded_Rectangle_11" data-name="Rounded Rectangle 11" class="cls-1" width="669" height="529" rx="30" ry="30"/>
  <path id="Rounded_Rectangle_1_copy_4" data-name="Rounded Rectangle 1 copy 4" class="cls-2" d="M-309.036-151.391L348.317,322.815c113.452,81.842,126.856,257.156,29.939,391.573L203.942,956.15c-96.917,134.42-267.455,177.04-380.907,95.2L-834.317,577.139C-947.769,495.3-961.173,319.983-864.256,185.566L-689.942-56.2C-593.025-190.614-422.488-233.234-309.036-151.391Z"/>
  <path id="Rounded_Rectangle_1_copy_4-2" data-name="Rounded Rectangle 1 copy 4" class="cls-3" d="M-351.036-51.365L306.317,422.841C419.769,504.683,433.173,680,336.256,814.414L161.942,1056.18c-96.917,134.41-267.455,177.03-380.907,95.19l-657.352-474.2c-113.452-81.843-126.853-257.156-29.939-391.574L-731.942,43.83C-635.025-90.588-464.488-133.208-351.036-51.365Z"/>
  <path id="Rounded_Rectangle_1_copy_4-3" data-name="Rounded Rectangle 1 copy 4" class="cls-3" d="M-419.036,18.653L238.317,492.858C351.769,574.7,365.173,750.015,268.256,884.432L93.942,1126.19c-96.917,134.42-267.455,177.04-380.907,95.2L-944.317,747.183c-113.453-81.842-126.853-257.156-29.939-391.574l174.314-241.761C-703.025-20.57-532.488-63.19-419.036,18.653Z"/>
  <path id="Rounded_Rectangle_1_copy_5" data-name="Rounded Rectangle 1 copy 5" class="cls-4" d="M597.036-1.391L-60.317,472.815c-113.452,81.843-126.856,257.156-29.939,391.573L84.058,1106.15c96.917,134.42,267.455,177.04,380.906,95.2L1122.32,727.139c113.45-81.842,126.85-257.156,29.94-391.574L977.942,93.8C881.025-40.614,710.487-83.234,597.036-1.391Z"/>
  <path id="Rounded_Rectangle_1_copy_5-2" data-name="Rounded Rectangle 1 copy 5" class="cls-5" d="M639.036,98.635L-18.317,572.84C-131.769,654.683-145.173,830-48.256,964.414L126.058,1206.18c96.917,134.41,267.455,177.03,380.906,95.19l657.356-474.2c113.45-81.843,126.85-257.156,29.94-391.574L1019.94,193.83C923.025,59.412,752.487,16.792,639.036,98.635Z"/>
  <path id="Rounded_Rectangle_1_copy_5-3" data-name="Rounded Rectangle 1 copy 5" class="cls-3" d="M707.035,168.652L49.683,642.858C-63.769,724.7-77.173,900.015,19.744,1034.43l174.314,241.76c96.917,134.42,267.454,177.04,380.906,95.2L1232.32,897.183c113.45-81.842,126.85-257.156,29.94-391.573L1087.94,263.848C991.025,129.43,820.487,86.81,707.035,168.652Z"/>
</svg>
