<svg xmlns="http://www.w3.org/2000/svg" width="75" height="77" viewBox="0 0 75 77">
  <defs>
    <style>
      .cls-1 {
        fill: #323232;
        fill-rule: evenodd;
        opacity: 0.06;
      }
    </style>
  </defs>
  <path id="Shape_2_copy" data-name="Shape 2 copy" class="cls-1" d="M0,4L4,0A11.812,11.812,0,0,1,9,8c0.852,5.186-1.606,13.476,2,16,3.366,2.356,8.54-1.886,13-3a20.561,20.561,0,0,1,10,0s5.907,1.979,7,8c0.955,5.26-1.095,16.827,2,19,3.312,2.326,11.828-2.764,18-4a8.506,8.506,0,0,1,6,1l3.518,3.518A31.367,31.367,0,0,1,74,53s-0.284,9.613,0,15c0.2,3.85,1,4,1,4l-4,5c0.089-.133-3.034-0.468-4-7-0.771-5.216,1.185-16.626-2.659-18.608C60.461,49.392,53.8,54.631,49,56c-4.963,1.416-8-1-8-1a14.546,14.546,0,0,1-6-9c-1.206-5.279,1.149-15.037-3-18-3.3-2.359-12.455,3.545-17,4-6.946.7-9-2-9-2a18.429,18.429,0,0,1-4-9c-0.67-3.765.687-10.022,0-13C1.23,4.665,0,4,0,4Z"/>
</svg>
