<svg xmlns="http://www.w3.org/2000/svg" width="24" height="24" viewBox="0 0 24 24">
  <metadata><?xpacket begin="﻿" id="W5M0MpCehiHzreSzNTczkc9d"?>
<x:xmpmeta xmlns:x="adobe:ns:meta/" x:xmptk="Adobe XMP Core 5.6-c138 79.159824, 2016/09/14-01:09:01        ">
   <rdf:RDF xmlns:rdf="http://www.w3.org/1999/02/22-rdf-syntax-ns#">
      <rdf:Description rdf:about=""/>
   </rdf:RDF>
</x:xmpmeta>
                                                                                                    
                                                                                                    
                                                                                                    
                                                                                                    
                                                                                                    
                                                                                                    
                                                                                                    
                                                                                                    
                                                                                                    
                                                                                                    
                                                                                                    
                                                                                                    
                                                                                                    
                                                                                                    
                                                                                                    
                                                                                                    
                                                                                                    
                                                                                                    
                                                                                                    
                                                                                                    
                           
<?xpacket end="w"?></metadata>
<defs>
    <style>
      .cls-1 {
        fill-rule: evenodd;
      }
    </style>
  </defs>
  <path id="case" class="cls-1" d="M22,24H2a2,2,0,0,1-2-2V6A2,2,0,0,1,2,4H7V2A2,2,0,0,1,9,0h6a2,2,0,0,1,2,2V4h5a2,2,0,0,1,2,2V22A2,2,0,0,1,22,24ZM15,2H9V4h6V2Zm7,13H17a2,2,0,0,1-2,2H9a2,2,0,0,1-2-2H2V13H7a2,2,0,0,1,2-2h6a2,2,0,0,1,2,2h5V6H2V22H22V15Zm-7-1a1,1,0,0,0-1-1H10a1,1,0,1,0,0,2h4A1,1,0,0,0,15,14Z"/>
</svg>
