<svg xmlns="http://www.w3.org/2000/svg" width="54" height="55" viewBox="0 0 54 55">
  <defs>
    <style>
      .cls-1 {
        fill: #003a5f;
        fill-rule: evenodd;
      }
    </style>
  </defs>
  <path class="cls-1" d="M53.937,54.039L49.424,42.59a18.564,18.564,0,0,0,3.393-10.305c0-7.166-4.619-13.63-11.792-16.58C39.678,6.848,31.32,0,21.214,0,10.171,0,1.185,8.167,1.185,18.2A18.546,18.546,0,0,0,4.578,28.51L0.064,39.959a0.7,0.7,0,0,0,.175.771,0.714,0.714,0,0,0,.485.19,0.7,0.7,0,0,0,.3-0.067l11.424-5.358c0.212,0.068.442,0.128,0.681,0.186,1.787,8.606,9.963,14.809,19.659,14.809,0.243,0,5.923-.01,8.764-0.915l11.423,5.358a0.705,0.705,0,0,0,.3.067,0.714,0.714,0,0,0,.484-0.19A0.7,0.7,0,0,0,53.937,54.039Zm-42-19.861-9.9,4.646,3.916-9.932A1.145,1.145,0,0,0,5.808,27.8,17.1,17.1,0,0,1,2.6,18.2c0-9.261,8.349-16.8,18.612-16.8S39.821,8.944,39.821,18.2,31.473,35,21.214,35c-2,0-6.338-.183-8.418-0.876A1.2,1.2,0,0,0,11.936,34.178ZM42.07,48.261a1.175,1.175,0,0,0-.87-0.051c-2.073.69-6.409,0.873-8.411,0.873-8.8,0-16.25-5.458-18.142-13.113a51.949,51.949,0,0,0,6.568.441c11.04,0,20.023-8.167,20.023-18.2,0-.3-0.033-0.6-0.05-0.9C47.426,20.16,51.4,25.928,51.4,32.285a17.107,17.107,0,0,1-3.2,9.589,1.151,1.151,0,0,0-.144,1.1L51.967,52.9Z"/>
</svg>
