<svg xmlns="http://www.w3.org/2000/svg" width="24" height="24" viewBox="0 0 24 24">
  <metadata><?xpacket begin="﻿" id="W5M0MpCehiHzreSzNTczkc9d"?>
<x:xmpmeta xmlns:x="adobe:ns:meta/" x:xmptk="Adobe XMP Core 5.6-c138 79.159824, 2016/09/14-01:09:01        ">
   <rdf:RDF xmlns:rdf="http://www.w3.org/1999/02/22-rdf-syntax-ns#">
      <rdf:Description rdf:about=""/>
   </rdf:RDF>
</x:xmpmeta>
                                                                                                    
                                                                                                    
                                                                                                    
                                                                                                    
                                                                                                    
                                                                                                    
                                                                                                    
                                                                                                    
                                                                                                    
                                                                                                    
                                                                                                    
                                                                                                    
                                                                                                    
                                                                                                    
                                                                                                    
                                                                                                    
                                                                                                    
                                                                                                    
                                                                                                    
                                                                                                    
                           
<?xpacket end="w"?></metadata>
<defs>
    <style>
      .cls-1 {
        fill: #101010;
        fill-rule: evenodd;
      }
    </style>
  </defs>
  <path id="grid" class="cls-1" d="M22,24H16a2,2,0,0,1-2-2V16a2,2,0,0,1,2-2h6a2,2,0,0,1,2,2v6A2,2,0,0,1,22,24Zm0-8H16v6h6V16Zm0-6H16a2,2,0,0,1-2-2V2a2,2,0,0,1,2-2h6a2,2,0,0,1,2,2V8A2,2,0,0,1,22,10Zm0-8H16V8h6V2ZM8,24H2a2,2,0,0,1-2-2V16a2,2,0,0,1,2-2H8a2,2,0,0,1,2,2v6A2,2,0,0,1,8,24Zm0-8H2v6H8V16Zm0-6H2A2,2,0,0,1,0,8V2A2,2,0,0,1,2,0H8a2,2,0,0,1,2,2V8A2,2,0,0,1,8,10ZM8,2H2V8H8V2Z"/>
</svg>
