<svg xmlns="http://www.w3.org/2000/svg" width="23" height="21" viewBox="0 0 23 21">
  <defs>
    <style>
      .cls-1 {
        fill-rule: evenodd;
      }
    </style>
  </defs>
  <path id="User" class="cls-1" d="M11.5,13.263c3.093,0,5.329-2.975,5.329-6.632S14.593,0,11.5,0s-5.33,2.975-5.33,6.631S8.407,13.263,11.5,13.263Zm0-11.605c2.169,0,3.646,2.227,3.646,4.974s-1.477,4.974-3.646,4.974S7.854,9.378,7.854,6.632,9.331,1.658,11.5,1.658Zm5.133,11.057a0.829,0.829,0,1,0-.168,1.65,5.432,5.432,0,0,1,4.811,4.978H1.724a5.478,5.478,0,0,1,4.813-4.978,0.829,0.829,0,1,0-.17-1.649A7.227,7.227,0,0,0,0,20.171,0.835,0.835,0,0,0,.842,21H22.159A0.835,0.835,0,0,0,23,20.171,7.227,7.227,0,0,0,16.633,12.715Z"/>
</svg>
