<svg xmlns="http://www.w3.org/2000/svg" width="30" height="24" viewBox="0 0 30 24">
  <metadata><?xpacket begin="﻿" id="W5M0MpCehiHzreSzNTczkc9d"?>
<x:xmpmeta xmlns:x="adobe:ns:meta/" x:xmptk="Adobe XMP Core 5.6-c138 79.159824, 2016/09/14-01:09:01        ">
   <rdf:RDF xmlns:rdf="http://www.w3.org/1999/02/22-rdf-syntax-ns#">
      <rdf:Description rdf:about=""/>
   </rdf:RDF>
</x:xmpmeta>
                                                                                                    
                                                                                                    
                                                                                                    
                                                                                                    
                                                                                                    
                                                                                                    
                                                                                                    
                                                                                                    
                                                                                                    
                                                                                                    
                                                                                                    
                                                                                                    
                                                                                                    
                                                                                                    
                                                                                                    
                                                                                                    
                                                                                                    
                                                                                                    
                                                                                                    
                                                                                                    
                           
<?xpacket end="w"?></metadata>
<defs>
    <style>
      .cls-1 {
        fill-rule: evenodd;
      }
    </style>
  </defs>
  <path id="users" class="cls-1" d="M23,14a5,5,0,1,1,5-5A5,5,0,0,1,23,14Zm0-8a3,3,0,1,0,3,3A3,3,0,0,0,23,6ZM14.491,19.32A5.847,5.847,0,0,0,9,16c-4.51,0-6.321,3.653-6.834,8H0.181C0.833,18.575,3.387,14,9,14a7.612,7.612,0,0,1,6.753,3.65A7.086,7.086,0,0,0,14.491,19.32ZM9,12a6,6,0,1,1,6-6A6,6,0,0,1,9,12ZM9,2a4,4,0,1,0,4,4A4,4,0,0,0,9,2ZM23,16c4.4,0,6.382,3.668,6.874,8h-1.98C27.527,20.739,26.23,18,23,18s-4.527,2.741-4.893,6H16.126C16.618,19.669,18.6,16,23,16Z"/>
</svg>
