<?xml version="1.0" encoding="UTF-8"?>
<svg width="96px" height="40px" viewBox="0 0 96 40" version="1.1" xmlns="http://www.w3.org/2000/svg" xmlns:xlink="http://www.w3.org/1999/xlink">
    <!-- Generator: Sketch 55 (78076) - https://sketchapp.com -->
    <title>Logo</title>
    <desc>Created with Sketch.</desc>
    <g id="Final-Phase-1" stroke="none" stroke-width="1" fill="none" fill-rule="evenodd">
        <g id="Phase-1---Final----English" transform="translate(-20.000000, -16.000000)" fill="#EB3929">
            <g id="Logo" transform="translate(20.000000, 16.000000)">
                <path d="M61.288506,5.70532423 C61.288506,5.36047782 61.4106256,5.06573379 61.6556855,4.82109215 C61.9004718,4.57686007 62.1957197,4.45453925 62.5414291,4.45453925 C62.8870017,4.45453925 63.1821128,4.57686007 63.4270359,4.82109215 C63.6718222,5.06573379 63.7942154,5.36047782 63.7942154,5.70532423 C63.7942154,6.05030717 63.6718222,6.34491468 63.4270359,6.58969283 C63.1821128,6.8337884 62.8870017,6.95610922 62.5414291,6.95610922 C62.1957197,6.95610922 61.9004718,6.8337884 61.6556855,6.58969283 C61.4106256,6.34491468 61.288506,6.05030717 61.288506,5.70532423 M57.5512068,5.70532423 C57.5512068,5.36047782 57.6737368,5.06573379 57.9183863,4.82109215 C58.1635829,4.57686007 58.4584205,4.45453925 58.8041299,4.45453925 C59.1497026,4.45453925 59.4452239,4.57686007 59.6900103,4.82109215 C59.9349333,5.06573379 60.0571897,5.36047782 60.0571897,5.70532423 C60.0571897,6.05030717 59.9349333,6.34491468 59.6900103,6.58969283 C59.4452239,6.8337884 59.1497026,6.95610922 58.8041299,6.95610922 C58.4584205,6.95610922 58.1635829,6.8337884 57.9183863,6.58969283 C57.6737368,6.34491468 57.5512068,6.05030717 57.5512068,5.70532423" id="Fill-1"></path>
                <path d="M71.4964376,7.6461843 L71.4964376,13.6198362 C71.4964376,13.8931468 71.2083009,14.0586075 70.6324376,14.1158089 L49.8489846,14.1158089 L51.1452581,11.9593584 L69.3363009,11.9593584 L69.3363009,8.12058703 L71.4964376,7.6461843 Z" id="Fill-3"></path>
                <path d="M76.5790359,15.3641638 C76.5790359,16.3131058 76.3305573,17.0463481 75.8336,17.5638908 C75.3369162,18.08157 74.7354803,18.4012969 74.0298393,18.5236177 C73.3240615,18.6456655 72.6366085,18.5989761 71.9667966,18.383413 C71.2971214,18.1678498 70.7823863,17.8082594 70.4223179,17.3051877 C71.5315145,17.5925597 72.3699419,17.6681911 72.9389675,17.5316724 C73.5077197,17.3948805 73.896506,17.136041 74.1056,16.7552901 C74.314147,16.3741297 74.4187624,15.9823208 74.4187624,15.5798635 L74.4187624,8.07501706 L76.5790359,7.60075085 L76.5790359,15.3641638 Z" id="Fill-5"></path>
                <path d="M91.8229607,11.6010922 C91.6141402,11.8095563 91.3585504,11.9138567 91.0560547,11.9138567 C90.7538325,11.9138567 90.4978325,11.8095563 90.2891487,11.6010922 C90.0803282,11.3927645 89.9761231,11.1374744 89.9761231,10.8356314 C89.9761231,10.5336519 90.0803282,10.2784983 90.2891487,10.0698976 C90.4978325,9.861843 90.7538325,9.75713311 91.0560547,9.75713311 C91.3585504,9.75713311 91.6141402,9.861843 91.8229607,10.0698976 C92.0316444,10.2784983 92.1362598,10.5336519 92.1362598,10.8356314 C92.1362598,11.1374744 92.0316444,11.3927645 91.8229607,11.6010922 M93.313559,8.54948805 C92.6869607,7.91713311 91.9344137,7.60068259 91.0560547,7.60068259 C90.177559,7.60068259 89.4214564,7.91713311 88.7878838,8.54948805 C88.1540376,9.18238908 87.8373197,9.94416382 87.8373197,10.8356314 C87.8373197,11.2195222 87.8998154,11.577884 88.0172855,11.9138567 L86.195747,11.9138567 L84.8595419,11.9138567 L80.564294,11.9138567 L80.564294,0.136382253 L78.4040205,0.610921502 L78.4040205,13.5743345 C78.4040205,13.8476451 78.6918838,14.0131058 79.2680205,14.0703072 L84.8595419,14.0703072 L86.195747,14.0703072 L91.0560547,14.0703072 C91.9344137,14.0703072 92.6869607,13.7542662 93.313559,13.1215017 C93.9400205,12.4890102 94.2533197,11.727099 94.2533197,10.8356314 C94.2533197,9.94416382 93.9400205,9.18238908 93.313559,8.54948805" id="Fill-7"></path>
                <path d="M61.8546735,27.152901 C61.5763829,27.7613652 61.2978188,28.3696928 61.0199385,28.97843 C59.947665,31.3261433 58.8729299,33.672901 57.8083145,36.0240273 C57.7261265,36.2058703 57.6360068,36.2705802 57.4364855,36.2647099 C56.907665,36.2492833 56.3777504,36.2490102 55.8489299,36.2648464 C55.6509128,36.2708532 55.5571009,36.2080546 55.4757333,36.0285324 C54.1696137,33.1515358 52.8559726,30.2783618 51.5436991,27.4043686 C51.5065026,27.3225939 51.4657504,27.2424573 51.3854769,27.167372 L51.3854769,36.2412287 L48.2281436,36.2412287 L48.2281436,19.6552901 C48.3052718,19.6509215 48.3855453,19.6423208 48.4659556,19.6421843 C49.2220581,19.6413652 49.9782974,19.6488737 50.7342632,19.636587 C50.9250325,19.6335836 51.0107761,19.7003413 51.0879043,19.8679863 C52.892759,23.7883959 54.7036308,27.7064846 56.5135453,31.6247099 C56.5481436,31.6995222 56.5854769,31.7729693 56.6385368,31.8821843 C56.6939214,31.7759727 56.7367248,31.7014334 56.7725538,31.6238908 C58.5752205,27.7205461 60.3787077,23.8177474 62.1746735,19.9115358 C62.267665,19.7096246 62.3689983,19.6290785 62.6009299,19.6349488 C63.3228444,19.6532423 64.0457162,19.6416382 64.7683145,19.6416382 L65.0561778,19.6416382 L65.0561778,36.2457338 L61.9244171,36.2457338 L61.9244171,27.1616382 C61.9011692,27.1587713 61.8779214,27.1557679 61.8546735,27.152901" id="Fill-10"></path>
                <path d="M74.9139009,30.9394403 C74.1007726,31.010157 73.305559,31.0497474 72.520465,31.1599181 C72.121559,31.2157543 71.7274393,31.3689283 71.3554735,31.5332969 C70.9993709,31.69043 70.797388,32.0036041 70.7424137,32.3981433 C70.6410803,33.1256519 71.0282256,33.7380751 71.7675077,33.93357 C72.5199179,34.1324778 73.2408752,33.9936382 73.8832,33.5614198 C74.7882256,32.9524096 74.9982769,32.0434676 74.9139009,30.9394403 L74.9139009,30.9394403 Z M77.9596444,36.2594403 C77.2377299,36.2594403 76.5576615,36.2650375 75.8780034,36.2517952 C75.7990974,36.2502935 75.688465,36.1619659 75.6503111,36.0851058 C75.4911316,35.7653788 75.354106,35.4345939 75.2075077,35.104628 C74.9132171,35.3040819 74.649012,35.511727 74.3595077,35.6743208 C72.7640205,36.5702935 71.1089094,36.661215 69.4589949,35.8845597 C68.1977299,35.2908396 67.6633026,34.2000546 67.6910632,32.8311809 C67.7212855,31.3397133 68.4805333,30.3292014 69.8094906,29.7124096 C70.8701402,29.2199863 72.0040889,29.0375973 73.1560889,28.9466758 C73.7329094,28.9010785 74.3120547,28.8868805 74.8894222,28.8584846 C75.0449094,28.254116 74.6075761,27.3625119 73.9854906,27.0124778 C72.9257983,26.4161638 71.6496274,26.8340478 71.1504821,27.9353447 C71.1228581,27.9962321 71.0391658,28.0726826 70.9810462,28.0730922 C70.040465,28.0792355 69.0998838,28.0741843 68.1594393,28.0706348 C68.1446701,28.0706348 68.1299009,28.0573925 68.0946188,28.0404642 C68.1964991,27.1668805 68.5273026,26.3855836 69.1020718,25.7141843 C70.1009094,24.5474949 71.4204308,24.0696792 72.9139009,23.9986894 C74.2692513,23.9343891 75.4935932,24.2840137 76.508841,25.2197133 C77.3054222,25.9539113 77.7457641,26.8792355 77.8976957,27.9416246 C77.9437812,28.2636724 77.9563624,28.5928191 77.9570462,28.9185529 C77.9618325,31.2582116 77.9596444,33.5977338 77.9596444,35.9371195 L77.9596444,36.2594403 Z" id="Fill-12"></path>
                <path d="M95.7449709,33.5306212 C95.7449709,34.3601092 95.7483897,35.1808601 95.7378598,36.0014744 C95.7370393,36.0619522 95.6462359,36.1549215 95.5790906,36.1763549 C93.4966291,36.8427031 90.9524923,35.9315768 90.3585778,33.2695973 C90.2609368,32.8317816 90.2188171,32.3738976 90.213894,31.9247509 C90.1968,30.3571058 90.2071932,28.7890512 90.2071932,27.2211331 L90.2071932,26.8992218 L88.3829197,26.8992218 L88.3829197,24.3855017 C88.6184068,24.3855017 88.8497915,24.3867304 89.0811761,24.3853652 C90.1010735,24.3793584 90.5999453,23.8846143 90.6052786,22.8709625 C90.6080137,22.3283003 90.6056889,21.7857747 90.6056889,21.2300068 L93.2221675,21.2300068 L93.2221675,24.1141024 L95.8367316,24.1141024 C95.8523214,24.1833174 95.8684581,24.2220887 95.8685949,24.2611331 C95.8703726,25.0743754 95.8658598,25.8877543 95.874065,26.7009966 C95.8759795,26.8903481 95.7756034,26.8951263 95.6359795,26.8944437 C94.9389538,26.8911672 94.2417915,26.8930785 93.5447658,26.8930785 L93.2495179,26.8930785 C93.2439111,26.9969693 93.235706,27.0776519 93.235706,27.1583345 C93.2350222,28.7179249 93.2309197,30.2775154 93.2398085,31.8369693 C93.2410393,32.0766962 93.2723556,32.3252969 93.3420991,32.5541024 C93.5548855,33.252942 94.2140308,33.6667304 95.0102017,33.6192218 C95.2433641,33.6052969 95.4748855,33.5640683 95.7449709,33.5306212" id="Fill-14"></path>
                <path d="M80.7398291,24.1241638 C81.4486154,24.1241638 82.1364786,24.1192491 82.8240684,24.1320819 C82.8929915,24.1333106 82.9899487,24.2299659 83.0226325,24.3046416 C83.1794872,24.6630034 83.3188376,25.0291468 83.4687179,25.4029352 C83.7069402,25.1876451 83.9180855,24.972628 84.1532991,24.7883276 C84.9887179,24.1338567 85.9310769,23.8713311 86.9885812,24.041843 C87.2105299,24.0776109 87.3143248,24.1499659 87.3081709,24.4088055 C87.2879316,25.263959 87.3006496,26.1197952 87.3006496,26.9753584 L87.3006496,27.2493515 C86.9698462,27.2180887 86.6717265,27.1756314 86.3723761,27.1643003 C84.8914872,27.1086007 83.7744957,28.1391809 83.7586325,29.6219113 C83.7360684,31.7270307 83.7505641,33.8325597 83.7490598,35.9379522 C83.7490598,36.0363823 83.7490598,36.1348123 83.7490598,36.2460751 L80.7398291,36.2460751 L80.7398291,24.1241638 Z" id="Fill-17"></path>
                <path d="M33.097135,29.4554539 C31.2706735,30.8693788 29.2422291,31.9698567 27.0680068,32.7260341 C24.8191179,33.5082867 22.4608274,33.9050102 20.0586393,33.9050102 C17.5845197,33.9050102 15.1597675,33.484942 12.851665,32.6561365 C10.6212376,31.8554539 8.55094701,30.6931331 6.69822906,29.2013925 L6.00475897,28.6430307 C5.97617778,28.6200956 5.97180171,28.5783208 5.99463932,28.5499249 L7.8718359,26.227058 C7.89481026,26.1985256 7.93651966,26.1940205 7.96510085,26.2169556 L8.65843419,26.7753174 C10.2396991,28.048628 12.0059897,29.0404369 13.908212,29.7233038 C15.8766222,30.4299249 17.9459556,30.7881502 20.0586393,30.7881502 C22.1100581,30.7881502 24.1227761,30.4498567 26.0408615,29.7826894 C27.8948103,29.1377747 29.625135,28.1989352 31.1839726,26.9923823 L31.8879726,26.4475358 C31.9169641,26.4251468 31.9585368,26.4303345 31.9809641,26.4592765 L33.8128957,28.8176382 C33.8353231,28.8465802 33.8301265,28.8882184 33.801135,28.9106075 L33.097135,29.4554539 Z M11.3421949,7.7272628 C11.3421949,7.69081229 11.3720068,7.66146075 11.4083829,7.66118771 C11.7412376,7.65941297 12.0601436,7.64453242 12.3753573,7.67238225 C12.4820239,7.68180205 12.5985368,7.80357679 12.6751179,7.90159727 C15.0046906,10.8800273 17.3297504,13.8618703 19.6557675,16.8431672 C19.7170325,16.921529 19.7793915,16.9990717 19.8529641,17.0910853 C19.8796308,17.1242594 19.9305026,17.1242594 19.9570325,17.0910853 C20.0295111,17.0001638 20.0911863,16.9234403 20.151494,16.8460341 C22.452212,13.8975017 24.7552547,10.9510171 27.0481778,7.99647782 C27.2359385,7.75443003 27.4224684,7.61722867 27.7395966,7.65504437 C27.9516991,7.68030034 28.1687248,7.66405461 28.3969641,7.66091468 C28.4338872,7.66050512 28.4643829,7.69053925 28.4643829,7.72753584 L28.4643829,25.4583208 C28.4643829,25.4947713 28.4347077,25.5245324 28.3980581,25.5245324 L24.9654427,25.5245324 C24.9287932,25.5245324 24.8991179,25.4947713 24.8991179,25.4583208 L24.8991179,16.4805734 C24.8066735,16.4473993 24.8059897,16.4471263 24.7135453,16.4140887 C24.6851009,16.4475358 24.6570667,16.4813925 24.6297162,16.5156587 C23.3255111,18.1523823 22.0177504,19.7865119 20.7228444,21.4306075 C20.5930667,21.5953857 20.4578188,21.6656928 20.280041,21.7025529 C19.7350838,21.8153174 19.1783658,21.5805051 18.8419556,21.1380478 C17.653853,19.5753174 16.4088615,18.055727 15.1849299,16.5201638 C15.1415795,16.4656928 15.096588,16.4124505 15.0392889,16.3448737 C14.9993573,16.2976382 14.9218188,16.325215 14.9218188,16.3869215 L14.9218188,25.4584573 C14.9218188,25.4949078 14.8921436,25.5245324 14.855494,25.5245324 L11.4086564,25.5245324 C11.3720068,25.5245324 11.3421949,25.4949078 11.3421949,25.4584573 L11.3421949,7.7272628 Z M-2.73504273e-05,0.291221843 L-2.73504273e-05,39.8973652 C-2.73504273e-05,39.9340887 0.0296478632,39.9637133 0.0662974359,39.9637133 L39.7402803,39.9637133 C39.7769299,39.9637133 39.8066051,39.9340887 39.8066051,39.8973652 L39.8066051,0.291221843 C39.8066051,0.254634812 39.7769299,0.225010239 39.7402803,0.225010239 L0.0662974359,0.225010239 C0.0296478632,0.225010239 -2.73504273e-05,0.254634812 -2.73504273e-05,0.291221843 L-2.73504273e-05,0.291221843 Z" id="Fill-19"></path>
            </g>
        </g>
    </g>
</svg>