<?xml version="1.0" encoding="UTF-8"?>
<svg width="375px" height="789px" viewBox="0 0 375 789" version="1.1" xmlns="http://www.w3.org/2000/svg" xmlns:xlink="http://www.w3.org/1999/xlink">
    <!-- Generator: Sketch 55 (78076) - https://sketchapp.com -->
    <title>Red background</title>
    <desc>Created with Sketch.</desc>
    <g id="Final-Phase-1" stroke="none" stroke-width="1" fill="none" fill-rule="evenodd">
        <g id="Phase-1---Final----English" transform="translate(0.000000, -72.000000)" fill="#EB3929">
            <g id="Red-background" transform="translate(-39.000000, 72.000000)">
                <path d="M414,317.358488 L414,483.949225 C405.545012,484.673742 397.031857,485.037484 388.476933,485.037484 C354.789027,485.037484 321.798864,479.418483 290.400427,468.309161 C260.07041,457.585876 231.920839,441.996366 206.693068,422.006019 L195.638202,413.236517 C195.180308,412.871925 194.526174,412.93412 194.155498,413.386643 L164.239765,449.886558 C163.869089,450.317634 163.934503,450.980333 164.392396,451.344925 L175.447263,460.116571 C204.992319,483.559815 238.004286,501.808701 273.567377,514.378534 C310.373322,527.394457 349.032647,534 388.476933,534 C397.022333,534 405.534064,533.690307 414.000006,533.07252 L414,789 L0,789 L148.077496,0 L414,0 L414,232.585853 C406.27351,242.475398 398.547118,252.363924 390.822664,262.252451 C389.864862,263.489923 388.885291,264.705685 387.709805,266.162428 C387.296209,266.681298 386.490783,266.681298 386.055419,266.162428 C384.901701,264.705685 383.900362,263.470384 382.920791,262.211202 C345.893004,214.816019 308.886986,167.381759 271.815663,120.029996 C270.596641,118.466874 268.724572,116.53468 267.026649,116.384881 C262.019952,115.926799 256.947951,116.16561 251.636499,116.211201 C251.070524,116.211201 250.591623,116.664941 250.591623,117.251112 L250.591623,399.221076 C250.591623,399.807247 251.070524,400.263158 251.636499,400.263158 L306.514247,400.263158 C307.10199,400.263158 307.559123,399.807247 307.559123,399.221076 L307.559123,254.960049 C307.559123,253.980927 308.799913,253.546726 309.431192,254.284867 C310.345459,255.370369 311.063811,256.219231 311.760395,257.085462 C331.242975,281.509254 351.052079,305.672525 369.968685,330.508808 C375.323673,337.56457 384.183349,341.276987 392.86888,339.496763 C395.698752,338.912763 397.853808,337.781671 399.921791,335.176466 C404.60343,329.229014 409.297446,323.290538 414,317.358488 Z" id="Combined-Shape"></path>
            </g>
        </g>
    </g>
</svg>