<svg xmlns="http://www.w3.org/2000/svg" width="17" height="16" viewBox="0 0 17 16">
  <defs>
    <style>
      .cls-1 {
        fill: #282828;
        fill-rule: evenodd;
      }
    </style>
  </defs>
  <path id="favorite_ads" data-name="favorite ads" class="cls-1" d="M16.47,5.02l-0.038-.241c-0.031-.2-0.063-0.406-0.112-0.608a4.691,4.691,0,0,0-1.632-2.61A3.72,3.72,0,0,0,12.953.771,5.9,5.9,0,0,0,11.368.736a3.892,3.892,0,0,0-1.541.5,5.189,5.189,0,0,0-1.2,1.008l-0.03-.033a4.837,4.837,0,0,0-1.28-1.034A3.966,3.966,0,0,0,5.713.72,5.787,5.787,0,0,0,4.337.763a3.826,3.826,0,0,0-2,.991A4.891,4.891,0,0,0,.829,4.644C0.81,4.751.8,4.859,0.78,4.966l-0.017.118a0.521,0.521,0,0,0-.005.074v1a0.567,0.567,0,0,0,.022.143,6.818,6.818,0,0,0,.446,1.765h0l0,0.01,0,0.009h0A5.985,5.985,0,0,0,1.8,9.247L1.928,9.452c0.1,0.158.193,0.315,0.3,0.47a17.259,17.259,0,0,0,2.8,3.125,34.485,34.485,0,0,0,3.224,2.545,0.612,0.612,0,0,0,.735,0c0.786-.556,1.484-1.083,2.134-1.612a23.352,23.352,0,0,0,2.823-2.674,12.967,12.967,0,0,0,1.51-2.076,9.337,9.337,0,0,0,.551-1.117l0,0s0-.007,0-0.009a0.017,0.017,0,0,1,0,0h0a7.076,7.076,0,0,0,.411-1.463l0.062-.4a0.54,0.54,0,0,0,.006-0.08v-1A0.387,0.387,0,0,0,16.47,5.02Zm-3.3,5.611a22.385,22.385,0,0,1-2.7,2.555c-0.569.462-1.176,0.925-1.849,1.407a32.783,32.783,0,0,1-2.905-2.31A16.257,16.257,0,0,1,3.078,9.346C2.983,9.2,2.894,9.059,2.8,8.914L2.666,8.69A4.915,4.915,0,0,1,2.2,7.735s0-.005-0.005-0.009,0-.007,0-0.01A5.788,5.788,0,0,1,1.8,6.151a0.459,0.459,0,0,0-.011-0.057v-0.9L1.8,5.109c0.013-.1.027-0.192,0.043-0.289A3.9,3.9,0,0,1,3.03,2.512,2.775,2.775,0,0,1,4.5,1.779a4.818,4.818,0,0,1,1.134-.034,2.961,2.961,0,0,1,1.2.335A3.856,3.856,0,0,1,7.837,2.9c0.1,0.107.195,0.217,0.293,0.329L8.24,3.359a0.514,0.514,0,0,0,.385.174h0a0.514,0.514,0,0,0,.385-0.174L9.28,3.051a4.5,4.5,0,0,1,1.064-.928,2.831,2.831,0,0,1,1.136-.364,4.86,4.86,0,0,1,1.308.027,2.673,2.673,0,0,1,1.259.58,3.636,3.636,0,0,1,1.274,2.052c0.042,0.17.068,0.343,0.094,0.517l0.047,0.29,0,0.006V6.123l-0.055.353a6.088,6.088,0,0,1-.358,1.262,0.034,0.034,0,0,0,0,.007,0.04,0.04,0,0,0,0,0,8.2,8.2,0,0,1-.482.97A11.985,11.985,0,0,1,13.174,10.631Z"/>
</svg>
