<svg xmlns="http://www.w3.org/2000/svg" width="18" height="18" viewBox="0 0 18 18">
  <defs>
    <style>
      .cls-1 {
        fill: #282828;
        fill-rule: evenodd;
      }
    </style>
  </defs>
  <path id="messages" class="cls-1" d="M17.566,16.994l-1.292-3.322a6.078,6.078,0,0,0,.98-3.19,5.881,5.881,0,0,0-3.591-5.309A6.271,6.271,0,0,0,7.376.273,6.171,6.171,0,0,0,.987,6.184a6.067,6.067,0,0,0,.98,3.189L0.673,12.695a0.572,0.572,0,0,0,.14.623,0.561,0.561,0,0,0,.627.1l3.222-1.53a6.281,6.281,0,0,0,6.2,4.506,12.893,12.893,0,0,0,2.612-.256L16.8,17.715a0.562,0.562,0,0,0,.627-0.1A0.57,0.57,0,0,0,17.566,16.994ZM2.245,11.777L3.1,9.571a0.706,0.706,0,0,0-.086-0.664,4.894,4.894,0,0,1-.9-2.723A5.039,5.039,0,0,1,7.376,1.411a5.039,5.039,0,0,1,5.257,4.773,5.038,5.038,0,0,1-5.257,4.773,12.428,12.428,0,0,1-2.13-.174H5.24a2.547,2.547,0,0,1-.29-0.074,0.858,0.858,0,0,0-.222-0.036,0.69,0.69,0,0,0-.3.068Zm12.895,2.1L16,16.075l-2.18-1.035a0.707,0.707,0,0,0-.527-0.033,10.125,10.125,0,0,1-2.424.249,5.3,5.3,0,0,1-4.974-3.234c0.74,0.071,1.438.073,1.485,0.073a6.2,6.2,0,0,0,6.37-5.6,4.675,4.675,0,0,1,2.378,3.982,4.9,4.9,0,0,1-.9,2.717A0.709,0.709,0,0,0,15.14,13.874Z"/>
</svg>
