<svg xmlns="http://www.w3.org/2000/svg" width="16" height="18" viewBox="0 0 16 18">
  <defs>
    <style>
      .cls-1 {
        fill: #282828;
        fill-rule: evenodd;
      }
    </style>
  </defs>
  <path id="my_ads" data-name="my ads" class="cls-1" d="M10.859,12.688h-7.4a0.514,0.514,0,0,0,0,1.029h7.4A0.514,0.514,0,0,0,10.859,12.688Zm0-3.059h-7.4a0.514,0.514,0,0,0,0,1.029h7.4A0.514,0.514,0,0,0,10.859,9.628Zm0-2.938h-7.4a0.515,0.515,0,0,0,0,1.029h7.4A0.515,0.515,0,0,0,10.859,6.69Zm4.23-2.311a0.508,0.508,0,0,0-.044-0.2c0-.011-0.014-0.019-0.02-0.029a0.5,0.5,0,0,0-.1-0.138S14.923,4,14.92,4L11.714,0.793c0-.006-0.013-0.008-0.018-0.014a0.519,0.519,0,0,0-.12-0.093A0.47,0.47,0,0,0,11.527.652,0.509,0.509,0,0,0,11.316.6H1.455A1.283,1.283,0,0,0,.163,1.946l0,14.136A1.436,1.436,0,0,0,.5,17.118a1.3,1.3,0,0,0,1.007.4H13.616a1.468,1.468,0,0,0,1.473-1.473V4.38h0ZM11.831,2.37l1.495,1.5H11.831V2.37Zm1.755,14.123H1.5a0.364,0.364,0,0,1-.245-0.066,0.453,0.453,0,0,1-.068-0.3V1.953c0.009-.319.193-0.319,0.263-0.319H10.8V4.38a0.514,0.514,0,0,0,.514.514h2.745V16.049A0.442,0.442,0,0,1,13.585,16.493Z"/>
</svg>
