<svg xmlns="http://www.w3.org/2000/svg" width="17" height="17" viewBox="0 0 17 17">
  <defs>
    <style>
      .cls-1 {
        fill: #282828;
        fill-rule: evenodd;
      }
    </style>
  </defs>
  <path id="notifications" class="cls-1" d="M10.814,16.164H6.1a0.514,0.514,0,0,1,0-1.029h4.719A0.514,0.514,0,0,1,10.814,16.164Zm4.4-1.473q-6.973,0-13.945,0H1.237A1.134,1.134,0,0,1,.4,14.356a1.049,1.049,0,0,1-.276-0.8,1.242,1.242,0,0,1,.847-1.034,4.354,4.354,0,0,0,1-.748A3.429,3.429,0,0,0,2.9,10.26,2.745,2.745,0,0,0,3.013,9.57l0.01-.494c0.008-.449.016-0.9,0.041-1.346A8.857,8.857,0,0,1,3.676,4.8,4.758,4.758,0,0,1,4.83,3.091a4.5,4.5,0,0,1,1.691-.953A1.843,1.843,0,0,1,6.941.893,1.672,1.672,0,0,1,8.24.366,1.657,1.657,0,0,1,9.5.9a1.866,1.866,0,0,1,.436,1.228c0.053,0.015.106,0.032,0.158,0.049a4.3,4.3,0,0,1,2.512,2.195,7.181,7.181,0,0,1,.64,1.949,15.532,15.532,0,0,1,.216,2.866,3.664,3.664,0,0,0,.137,1.16,3.572,3.572,0,0,0,1,1.506,4.23,4.23,0,0,0,.939.681,1.158,1.158,0,0,1,.614,1.123A0.95,0.95,0,0,1,15.213,14.69ZM1.159,13.655c0.012,0,.047.006,0.093,0.007H1.267q6.929,0,13.856,0c0-.017,0-0.037,0-0.061a0.179,0.179,0,0,0-.039-0.144A5.214,5.214,0,0,1,13.9,12.6a4.563,4.563,0,0,1-1.275-1.936,4.659,4.659,0,0,1-.189-1.48,14.559,14.559,0,0,0-.2-2.674,6.093,6.093,0,0,0-.544-1.671A3.258,3.258,0,0,0,9.771,3.152c-0.109-.036-0.219-0.066-0.331-0.1L9.265,3.008A0.515,0.515,0,0,1,8.9,2.453a1.121,1.121,0,0,0-.161-0.87A0.651,0.651,0,0,0,8.24,1.395a0.71,0.71,0,0,0-.529.181,1.165,1.165,0,0,0-.143.887,0.515,0.515,0,0,1-.4.563,3.618,3.618,0,0,0-1.642.819,3.751,3.751,0,0,0-.9,1.348,7.865,7.865,0,0,0-.535,2.6c-0.024.434-.032,0.87-0.04,1.305l-0.01.5a3.769,3.769,0,0,1-.148.951A4.431,4.431,0,0,1,2.687,12.5a5.348,5.348,0,0,1-1.271.942,0.483,0.483,0,0,1-.078.033,0.416,0.416,0,0,0-.188.131,0.166,0.166,0,0,0,0,.049S1.156,13.655,1.159,13.655Z"/>
</svg>
