<svg xmlns="http://www.w3.org/2000/svg" width="15" height="19" viewBox="0 0 15 19">
  <defs>
    <style>
      .cls-1 {
        fill: #282828;
        fill-rule: evenodd;
      }
    </style>
  </defs>
  <path id="recently_viewed" data-name="recently viewed" class="cls-1" d="M4.4,3.319h6.318a0.456,0.456,0,0,0,.455-0.457c0-1.508-1.622-2.734-3.615-2.734S3.943,1.355,3.943,2.862A0.456,0.456,0,0,0,4.4,3.319ZM7.557,1.041a2.782,2.782,0,0,1,2.614,1.364H4.943A2.781,2.781,0,0,1,7.557,1.041Zm0.524,9.442V7.1a0.455,0.455,0,1,0-.91,0v3.6c0,0.009,0,.017.005,0.026a0.388,0.388,0,0,0,.091.242,0.458,0.458,0,0,0,.06.071c0.007,0.006.01,0.015,0.018,0.02l2.017,1.593a0.456,0.456,0,0,0,.563-0.718Zm3.874,5.65a6.939,6.939,0,1,0-8.659,0L2.5,17.451a0.455,0.455,0,1,0,.778.475l0.771-1.271a6.856,6.856,0,0,0,7.16,0l0.772,1.271a0.456,0.456,0,1,0,.778-0.475ZM1.6,10.7A6.028,6.028,0,1,1,7.626,16.75,6.044,6.044,0,0,1,1.6,10.7Z"/>
</svg>
