<svg width="12" height="14" viewBox="0 0 12 14" fill="none" xmlns="http://www.w3.org/2000/svg">
<path fill-rule="evenodd" clip-rule="evenodd" d="M4.11931 5.22593H4.54289C4.5839 5.22593 4.6249 5.22593 4.6659 5.22543C5.05392 5.22025 5.31029 4.97924 5.31153 4.61882C5.31276 4.29442 5.02082 4.00703 4.67059 4.00111C4.29269 3.99469 3.91455 3.99543 3.53666 4.00111C3.1884 4.00604 2.92067 4.28159 2.92289 4.6203C2.92511 4.96739 3.18519 5.22099 3.54555 5.22543C3.73672 5.22741 3.92814 5.22568 4.11931 5.22593ZM7.85178 5.22568C8.05209 5.22568 8.2524 5.22987 8.45246 5.22445C8.73057 5.21705 8.95064 5.0488 9.02301 4.79792C9.13934 4.3931 8.84468 4.00801 8.40504 4.00086C8.02739 3.99469 7.6495 3.99617 7.2721 4.00061C6.92508 4.00481 6.65709 4.27987 6.65956 4.61931C6.66203 4.96419 6.91322 5.21754 7.26469 5.22494C7.4603 5.22913 7.65617 5.22568 7.85178 5.22568ZM9.96926 1.48535C10.0122 1.15035 9.78871 0.842476 9.42095 0.780557C9.02206 0.71321 8.61749 0.666092 8.21366 0.643643C6.66009 0.556561 5.10579 0.559768 3.55321 0.670039C3.18692 0.695942 2.8194 0.750707 2.46003 0.827428C2.15426 0.892801 1.96457 1.19672 2.00606 1.48535H9.96926ZM2.33419 4.34549C2.34185 4.32254 2.34852 4.30182 2.35568 4.2811C2.54092 3.73739 2.97809 3.42237 3.55259 3.4204C3.92629 3.41916 4.29998 3.41744 4.67368 3.42114C5.20891 3.42656 5.64237 3.73887 5.80761 4.24434C5.83651 4.33217 5.8738 4.35585 5.95976 4.35387C6.04768 4.35215 6.10252 4.34697 6.13784 4.2404C6.3011 3.74553 6.75605 3.42385 7.27843 3.42089C7.67016 3.41842 8.06238 3.41448 8.45411 3.42212C8.94043 3.4315 9.29165 3.66561 9.51394 4.09411C9.55494 4.17354 9.58063 4.26087 9.61372 4.34475H9.97458V2.08728H1.96988V4.34549H2.33419ZM0.597701 12.1838H11.3726V10.3635H0.597701V12.1838ZM0.679691 9.73001H11.2909C11.284 9.70139 11.2805 9.68363 11.2758 9.66661C10.8925 8.19781 10.5091 6.72877 10.1258 5.25997C10.0396 4.92891 10.0399 4.93335 9.69754 4.92866C9.60146 4.92743 9.56737 4.96295 9.53428 5.04609C9.34286 5.52615 8.92619 5.80491 8.40998 5.8059C8.03604 5.80664 7.66234 5.80836 7.28865 5.80516C6.77268 5.80096 6.36416 5.52788 6.17818 5.04905C6.13397 4.93508 6.0658 4.93409 5.9717 4.92891C5.87315 4.92324 5.83264 4.96073 5.79436 5.05053C5.59158 5.52541 5.23394 5.79233 4.70958 5.80392C4.31316 5.81256 3.91625 5.81108 3.51983 5.80417C3.05425 5.79628 2.6971 5.5782 2.50198 5.16425C2.4059 4.96049 2.29649 4.9146 2.09544 4.92521C1.96799 4.93212 1.91686 4.96443 1.88525 5.08852C1.65431 5.99585 1.41523 6.9012 1.1791 7.8073C1.01313 8.4445 0.847891 9.0822 0.679691 9.73001ZM10.9157 12.7848C10.9157 13.0929 10.9179 13.3968 10.9149 13.7008C10.913 13.8996 10.7803 14.0165 10.5896 13.9965C10.4311 13.9795 10.3372 13.8722 10.336 13.6963C10.3338 13.3961 10.3352 13.0956 10.3352 12.7836H1.66639C1.66639 13.0835 1.6654 13.3823 1.66689 13.681C1.66763 13.8221 1.62119 13.9307 1.47942 13.9803C1.27886 14.0506 1.0914 13.927 1.08745 13.7153C1.08275 13.456 1.08621 13.1965 1.08597 12.937V12.7722C0.837988 12.7722 0.602607 12.773 0.367225 12.772C0.0878796 12.7707 0.00217415 12.6841 0.00192716 12.4017C0.00143318 11.6276 -0.00449457 10.8535 0.00661997 10.0798C0.00908987 9.91085 0.0661445 9.74112 0.109615 9.57485C0.529004 7.96964 0.951603 6.36516 1.37099 4.75994C1.39248 4.67755 1.40409 4.58997 1.40434 4.50486C1.40656 3.51218 1.40606 2.51974 1.40557 1.52706C1.40508 0.854577 1.76716 0.37427 2.42687 0.257832C2.97272 0.161869 3.52771 0.104637 4.08121 0.0686199C5.29171 -0.0105678 6.50492 -0.0229024 7.71641 0.0407439C8.34302 0.0738004 8.97211 0.125359 9.59057 0.226009C10.2204 0.328632 10.5953 0.827194 10.5975 1.4681C10.6008 2.44697 10.6035 3.42584 10.5951 4.40471C10.5921 4.75427 10.707 5.07595 10.7909 5.4043C11.1829 6.94143 11.5835 8.47634 11.9799 10.0122C11.9933 10.0643 11.999 10.1198 11.999 10.1738C12.0002 10.9156 12 11.6579 11.9997 12.4C11.9995 12.6874 11.9138 12.7712 11.6223 12.7717C11.4035 12.7722 11.1846 12.7725 10.9658 12.7732C10.9569 12.7734 10.948 12.7769 10.9157 12.7848Z" fill="#707070"/>
</svg>
