<svg width="18" height="17" viewBox="0 0 18 17" fill="none" xmlns="http://www.w3.org/2000/svg">
<g clip-path="url(#clip0)">
<path d="M17.2089 7.86119C15.8793 6.93411 8.46108 1.7402 7.43964 1.02575C7.14006 0.815956 6.78056 0.733738 6.42962 0.79611C6.07582 0.858482 5.76483 1.05977 5.55369 1.36313C5.06865 2.0549 2.36669 5.86244 1.9216 6.489C1.85312 6.58539 1.79606 6.69879 1.7504 6.82637C1.65054 7.10421 1.65625 7.39623 1.76752 7.70242C1.17977 7.91222 0.845947 8.38284 0.845947 8.99523V15.2325C0.845947 15.9979 1.428 16.5763 2.19835 16.5791C3.05145 16.582 13.6539 16.5791 14.1731 16.5791C14.5526 16.5791 14.9007 16.443 15.1489 16.1936C15.3972 15.9441 15.5341 15.601 15.5341 15.2211C15.5341 14.9064 15.5313 13.228 15.5313 12.7035C15.5313 12.644 15.5398 12.6242 15.5427 12.6185C15.7338 12.3406 17.5684 9.76354 17.5684 9.76354C17.7139 9.55941 17.7938 9.36095 17.8138 9.15399C17.8709 8.61532 17.6654 8.18155 17.2089 7.86119ZM2.70907 7.03617C2.99724 6.63075 4.32112 4.75958 4.69774 4.23225L9.55956 7.63438H3.02578C2.88312 7.63438 2.78611 7.56633 2.68625 7.4019C2.61206 7.28566 2.62062 7.16375 2.70907 7.03617ZM1.80747 9.01224C1.80747 8.73723 1.95583 8.59264 2.23545 8.59264H14.1446C14.3729 8.59264 14.5212 8.69471 14.5669 8.87615C14.5726 8.89883 14.5754 9.69833 14.5754 10.0754H1.80747V9.01224ZM14.5783 15.2154C14.5783 15.4734 14.4299 15.6209 14.1731 15.6209C13.6367 15.6209 2.22118 15.6237 2.15841 15.618C1.96439 15.6067 1.81032 15.4508 1.81032 15.2636C1.80747 14.3195 1.80747 11.8303 1.80747 11.8303H14.5783V15.2154ZM16.7752 9.22203C16.6212 9.44317 16.1504 10.1066 16.1504 10.1066C16.1219 10.0867 15.7139 9.80323 15.5455 9.68132C15.5427 9.67282 15.537 9.02925 15.537 8.94986C15.5341 8.23825 14.9549 7.65139 14.2416 7.63721C13.9477 7.63154 12.9177 7.63438 12.6952 7.63154C12.6495 7.63154 12.5953 7.61453 12.5611 7.59185C10.7664 6.33874 5.71062 2.80053 5.71062 2.80053C5.76768 2.72114 6.20707 2.09459 6.37826 1.86494C6.49239 1.70901 6.70352 1.6835 6.88042 1.80257C7.16003 1.99536 15.7966 8.0398 16.6754 8.65785C16.8894 8.81094 16.9236 9.01224 16.7752 9.22203Z" fill="#333333"/>
<path d="M10.4583 13.8151H13.5968V15.122H10.4583V13.8151Z" fill="#333333"/>
</g>
<defs>
<clipPath id="clip0">
<rect x="0.845947" y="0.776367" width="16.9764" height="15.8057" fill="white"/>
</clipPath>
</defs>
</svg>
