<svg width="14" height="14" viewBox="0 0 14 14" fill="none" xmlns="http://www.w3.org/2000/svg">
<path fill-rule="evenodd" clip-rule="evenodd" d="M9.53104 12.72C8.05418 13.2658 6.43007 13.2611 4.95642 12.7068C1.90298 11.5596 0.206379 8.13878 1.05468 5.01119C1.48254 3.4329 2.50293 2.10649 3.86259 1.24702C3.22927 3.70343 3.94255 6.37622 5.74772 8.20668C5.74855 8.20745 5.74916 8.20828 5.74994 8.209C5.75021 8.20933 5.75049 8.20955 5.75082 8.20988C5.75104 8.21016 5.75132 8.21044 5.7516 8.21071C5.7522 8.21132 5.75281 8.21177 5.75342 8.21237C7.5841 10.0187 10.2572 10.7317 12.7144 10.0978C11.9669 11.2837 10.8608 12.2281 9.53104 12.72ZM13.4532 8.97601C11.0273 9.98827 8.23966 9.48399 6.3579 7.6418C6.35143 7.63444 6.34529 7.62697 6.33815 7.61972C4.47941 5.7383 3.96811 2.93608 4.98408 0.503515C5.14234 0.125017 4.65815 -0.0880269 4.37538 0.0348189C0.807929 1.57969 -0.908814 5.6611 0.481945 9.29142C1.14155 10.9886 2.42756 12.4223 4.07214 13.2203C7.67274 14.9818 12.0196 13.4909 13.7811 9.89027C13.8304 9.78956 13.8773 9.68763 13.9219 9.5847C14.0437 9.30304 13.8306 8.81775 13.4532 8.97601Z" fill="#707070"/>
</svg>
