<svg width="15" height="15" viewBox="0 0 15 15" fill="none" xmlns="http://www.w3.org/2000/svg">
<g clip-path="url(#clip0)">
<path d="M12.1229 2.97533L13.7705 1.94254C14.2623 1.64746 14.4098 1.0573 14.1393 0.540905C13.918 0.172053 13.5246 -0.0246687 13.1557 -7.85382e-05C12.9836 -7.85382e-05 12.8606 0.0982821 12.7377 0.172053L10.0819 1.81959V4.47533H7.20488V6.5655H7.94258V6.63927L8.6557 14.0163H13.5246L14.2377 6.5409H14.9754V4.45074H12.1229V2.97533ZM14.4098 5.09009V5.97533H13.7213L13.0082 13.4507H9.22127V13.377L8.50816 5.99992H7.81963V5.11468H10.6967V2.16386L13.2295 0.614676C13.377 0.590085 13.5246 0.688446 13.6229 0.835987C13.7213 1.03271 13.7459 1.27861 13.4754 1.42615L11.5327 2.63107V5.09009H14.4098Z" fill="#707070"/>
<path d="M5.33607 0C5.06557 0 4.79508 0.122951 4.62295 0.319672C4.47541 0.467213 4.40164 0.639344 4.35246 0.836066L4.27869 1.22951L4.18033 0.836066C4.13115 0.639344 4.05738 0.467213 3.90984 0.319672C3.71311 0.122951 3.44262 0 3.17213 0C2.90164 0 2.63115 0.122951 2.45902 0.319672C2.31148 0.467213 2.21311 0.639344 2.18852 0.836066L2.09016 1.20492L2.01639 0.836066C1.96721 0.639344 1.86885 0.467213 1.7459 0.319672C1.54918 0.122951 1.27869 0 1.0082 0C0.737705 0 0.491803 0.122951 0.295082 0.319672C0.0983607 0.516394 0 0.786885 0 1.05738V5.16394C0 6.41803 0.663934 7.54918 1.7459 8.11476L1.79508 8.13935V12.6393C1.79508 13.0082 1.94262 13.3771 2.18852 13.6475C2.43443 13.918 2.80328 14.0656 3.17213 14.0656C3.54098 14.0656 3.88525 13.918 4.15574 13.6475C4.42623 13.3771 4.54918 13.0328 4.54918 12.6393V8.13935L4.59836 8.11476C5.68033 7.54918 6.34426 6.41803 6.34426 5.16394V1.05738C6.34426 0.786885 6.2459 0.516394 6.04918 0.319672C5.87705 0.122951 5.60656 0 5.33607 0ZM5.7541 5.16394C5.7541 6.27049 5.11475 7.2541 4.13115 7.67213L3.93443 7.7459V12.6393C3.93443 12.8607 3.86066 13.0574 3.71311 13.2295C3.56557 13.3771 3.36885 13.4508 3.17213 13.4508C2.95082 13.4508 2.7541 13.3771 2.63115 13.2295C2.48361 13.082 2.40984 12.8607 2.40984 12.6393V7.7459L2.21311 7.64754C1.22951 7.2541 0.590164 6.27049 0.590164 5.16394V1.05738C0.590164 0.934427 0.639344 0.811476 0.737705 0.737705C0.909836 0.565574 1.18033 0.565574 1.32787 0.737705C1.40164 0.811476 1.45082 0.934427 1.45082 1.05738V4.03279C1.45082 4.20492 1.52459 4.37705 1.64754 4.52459C1.7459 4.62295 1.91803 4.7459 2.09016 4.72131C2.28689 4.72131 2.43443 4.64754 2.55738 4.52459C2.68033 4.40164 2.7541 4.22951 2.7541 4.05738V1.05738C2.7541 0.934427 2.80328 0.836066 2.87705 0.737705C2.95082 0.663935 3.04918 0.614754 3.17213 0.614754C3.29508 0.614754 3.39344 0.663935 3.46721 0.737705C3.54098 0.811476 3.59016 0.934427 3.59016 1.05738V4.03279C3.59016 4.20492 3.66393 4.37705 3.78689 4.52459C3.93443 4.67213 4.10656 4.72131 4.22951 4.72131C4.42623 4.72131 4.57377 4.64754 4.69672 4.52459C4.81967 4.40164 4.89344 4.22951 4.89344 4.05738V1.05738C4.89344 0.934427 4.94262 0.836066 5.01639 0.737705C5.09016 0.663935 5.18852 0.614754 5.31148 0.614754C5.43443 0.614754 5.53279 0.663935 5.60656 0.737705C5.68033 0.811476 5.72951 0.934427 5.72951 1.05738V5.16394H5.7541Z" fill="#707070"/>
</g>
<defs>
<clipPath id="clip0">
<rect width="15" height="14.041" fill="white"/>
</clipPath>
</defs>
</svg>
