<svg width="18" height="17" viewBox="0 0 18 17" fill="none" xmlns="http://www.w3.org/2000/svg">
<g clip-path="url(#clip0)">
<path d="M16.9455 2.76868C16.021 1.49218 14.5323 0.76446 12.8635 0.77639C12.6594 0.77639 12.4433 0.788319 12.2032 0.824109C10.8705 0.979198 9.97005 1.51604 9.36975 2.07675C8.76945 1.51604 7.857 0.991127 6.51233 0.836039C6.29622 0.812179 6.08012 0.800249 5.852 0.800249C4.19518 0.812179 2.71845 1.56376 1.806 2.84026C0.761479 4.31957 0.617408 6.27607 1.4098 8.3638C2.33426 10.7856 8.10912 15.9631 8.75744 16.5358C8.94954 16.7028 9.18966 16.7982 9.42978 16.7863H9.44178C9.69391 16.7863 9.93403 16.6909 10.1261 16.5238C11.6149 15.1519 16.5613 10.5112 17.3897 8.26836C18.1701 6.18063 18.014 4.22413 16.9455 2.76868ZM16.0451 7.77923C15.4568 9.35398 11.7469 13.0761 9.44178 15.2116C7.55685 13.5056 3.40279 9.53293 2.76647 7.85081C2.14216 6.22835 2.22621 4.73711 2.98258 3.66342C3.6309 2.75675 4.67542 2.24377 5.87602 2.23184C6.0441 2.23184 6.20018 2.24377 6.36826 2.2557C7.4488 2.37499 8.27721 2.8164 8.79346 3.56798L9.39376 4.415L9.98205 3.55605C10.4863 2.8164 11.3027 2.36306 12.3832 2.23184C12.5513 2.20798 12.7194 2.19605 12.8755 2.19605C14.0761 2.18412 15.1326 2.6971 15.7809 3.59184C16.5493 4.66553 16.6454 6.15677 16.0451 7.77923Z" fill="#333333"/>
</g>
<defs>
<clipPath id="clip0">
<rect x="0.90564" y="0.776367" width="16.9764" height="16.0099" fill="white"/>
</clipPath>
</defs>
</svg>
