<svg width="226" height="28" viewBox="0 0 226 28" fill="none" xmlns="http://www.w3.org/2000/svg">
<path d="M106.213 0.834732L99.3127 20.0337L93.0124 1.59358C90.8373 2.35244 87.8372 2.35244 85.8871 1.82124L95.6376 27.2428H102.613L113.338 1.06239C111.313 0.607076 108.538 0.37942 106.213 0.834732Z" fill="#2BACE2"/>
<path d="M179.492 21.8551V18.8955H189.167L191.267 13.0524H172.742V27.2429H193.443V21.8551H179.492Z" fill="#2BACE2"/>
<path d="M8.40813 2.27659C5.18297 3.56664 2.18282 3.33898 0.157715 2.95956V8.9545C3.7579 9.63747 7.35808 8.72684 10.5082 7.66445C16.9586 5.38789 21.0088 7.28502 22.3588 7.66445V1.51773C19.5087 0.60711 14.8585 -0.303514 8.40813 2.27659Z" fill="#2BACE2"/>
<path d="M0.157715 27.2429H6.75805V20.1856H19.8087V14.3424H0.157715V27.2429Z" fill="#2BACE2"/>
<path d="M127.064 1.06239C124.214 2.12479 121.664 2.5801 119.189 2.0489V7.81619C122.864 9.25801 126.914 6.2226 129.239 6.75379C129.989 8.8027 132.164 14.3423 132.164 14.3423H114.614V20.1096H118.514L115.514 27.2428H122.414L125.189 20.1096H134.415L137.115 27.2428H144.315L132.914 0C131.789 0.0758853 129.839 0.0758853 127.064 1.06239Z" fill="#2BACE2"/>
<path d="M156.091 1.89727C152.265 3.2632 148.665 3.71851 143.565 1.44195V7.66455C146.415 8.80283 150.39 9.10637 152.265 8.80283V27.3189H159.016V7.28512C161.566 6.3745 164.116 6.07096 166.966 6.98158V0.834871C165.916 0.607215 164.566 0.455444 163.066 0.455444C161.566 0.455444 158.866 0.910756 156.091 1.89727Z" fill="#2BACE2"/>
<path d="M181.517 2.12483C177.167 3.64254 174.767 2.88369 172.742 2.2766V8.19566C176.492 8.87863 178.367 8.87863 183.542 7.36092C188.117 5.99499 190.367 6.14676 193.443 6.90561V0.986553C190.817 0.758897 188.117 -0.151727 181.517 2.12483Z" fill="#2BACE2"/>
<path d="M83.1869 10.6999C83.1869 7.13327 80.9368 3.339 76.6616 1.51775C72.1614 -0.379379 68.0362 0.758901 64.061 1.97307C60.2358 3.18723 57.3856 2.73192 55.8106 2.42838V8.04389C60.8358 8.95452 65.036 7.58858 68.4862 6.52619C73.6615 5.00848 76.7366 7.89212 76.7366 10.624C76.7366 13.5835 73.8115 14.4183 72.4614 14.4183H56.4856L58.4357 20.1855H60.8358V27.3188H67.5862V20.1855H72.6114L76.2866 27.3188H83.937L78.7617 18.6678C80.7868 17.5296 83.1869 15.1771 83.1869 10.6999Z" fill="#2BACE2"/>
<path d="M220.369 17.5296C224.044 15.7842 225.019 12.1417 225.019 9.56164C225.019 6.37445 222.919 0.151855 214.594 0.151855C208.593 0.151855 206.118 3.33904 198.768 2.27664V8.1957C203.343 9.03044 206.418 8.27159 209.568 7.20919C211.593 6.52622 218.794 5.23617 218.794 10.0928C218.794 12.5212 216.319 13.2041 214.369 13.2041H199.143V19.1232H202.068V27.4706H208.818V19.1232H214.144L218.344 27.4706H225.994L220.369 17.5296Z" fill="#2BACE2"/>
<path d="M35.8595 1.51779C32.2593 3.03549 28.5842 3.18726 28.5842 3.18726V9.10632C34.2094 9.10632 39.8347 5.61559 40.5098 7.05741L43.2099 14.3424H26.334V20.1097H29.5592L26.559 27.2429H33.4594L36.2345 20.1097H45.46L48.1601 27.2429H55.3605L44.1849 0.15185C41.2598 -0.227577 39.4597 7.8816e-05 35.8595 1.51779Z" fill="#2BACE2"/>
</svg>
