<svg width="17" height="18" viewBox="0 0 17 18" fill="none" xmlns="http://www.w3.org/2000/svg">
<g clip-path="url(#clip0)">
<path d="M13.4398 10.4219C13.0716 10.0365 12.627 9.83387 12.1526 9.83387C11.6815 9.83387 11.2336 10.0365 10.8521 10.4153L9.80369 11.4618C9.77052 11.4452 9.73734 11.4286 9.70748 11.4119C9.67762 11.3953 9.64776 11.382 9.61459 11.3654C9.49183 11.3023 9.3724 11.2458 9.27619 11.186C8.24108 10.5282 7.30219 9.67108 6.39979 8.56145C5.99172 8.04318 5.71303 7.61128 5.5007 7.1661C5.73957 6.94351 5.96186 6.71759 6.1775 6.49833L6.25381 6.42191L6.4031 6.27241L6.5524 6.12291C6.94056 5.73421 7.14626 5.27906 7.14626 4.8073C7.14626 4.33553 6.94056 3.88038 6.5524 3.49168L5.58696 2.5249C5.47748 2.41527 5.36468 2.30231 5.25851 2.18936C5.0495 1.97341 4.8239 1.74417 4.59167 1.52823C4.22341 1.16278 3.78216 0.973408 3.31769 0.973408C2.8499 0.973408 2.40534 1.1661 2.02381 1.53155L0.816183 2.75082C0.34176 3.2259 0.0697123 3.8073 0.0133123 4.47839C-0.0729466 5.53487 0.235595 6.51494 0.474465 7.15945C1.05505 8.72424 1.92096 10.1727 3.19826 11.7109C4.75755 13.5781 6.63534 15.0498 8.77854 16.0864C9.60464 16.4784 10.7127 16.9402 11.9369 17.0199C12.0166 17.0232 12.0929 17.0266 12.1659 17.0266C13.0218 17.0266 13.7384 16.7176 14.2991 16.1063L14.3124 16.093V16.0897C14.3157 16.0864 14.319 16.083 14.3223 16.0764C14.4882 15.8771 14.6773 15.6943 14.8764 15.5016L14.9261 15.4551C15.1119 15.2791 15.2579 15.1329 15.3906 14.9933C15.7622 14.6046 15.9613 14.1495 15.9613 13.6777C15.9613 13.2026 15.7589 12.7508 15.3807 12.3721L13.4398 10.4219ZM14.5512 14.1063L14.4882 14.1727C14.3854 14.2824 14.2792 14.3854 14.1697 14.495L14.0901 14.5747C13.8645 14.7907 13.6256 15.0266 13.4 15.289C13.0683 15.6445 12.6768 15.8073 12.1692 15.8073C12.1161 15.8073 12.063 15.8073 12.0166 15.804C10.9881 15.7375 10.0293 15.3322 9.30936 14.99C7.32541 14.0266 5.58364 12.6644 4.14047 10.9335C2.94943 9.495 2.14656 8.15946 1.61905 6.73088C1.30056 5.87374 1.17781 5.20597 1.23089 4.57474C1.26407 4.19268 1.41004 3.87706 1.68209 3.60464L2.8864 2.39866C3.03569 2.25912 3.19162 2.18271 3.33096 2.18271C3.5068 2.18271 3.65941 2.29567 3.75562 2.39201L3.76889 2.4053C3.97127 2.59467 4.17033 2.79401 4.39924 3.03321C4.45564 3.08969 4.51204 3.14949 4.56844 3.20597C4.62484 3.26244 4.67793 3.31892 4.73764 3.37872L5.70308 4.3455C6.02489 4.66776 6.02489 4.93354 5.70308 5.2558L5.60023 5.35879L5.40117 5.55813L5.39786 5.56145C5.08268 5.88371 4.81395 6.15281 4.51868 6.41859L4.51536 6.42191C4.50873 6.42524 4.49877 6.4352 4.48882 6.44849C4.15042 6.79401 4.20682 7.14284 4.28313 7.3754L4.29308 7.40862L4.2964 7.41859C4.54854 8.02989 4.90684 8.6146 5.45426 9.31228L5.46421 9.32225C6.44955 10.5349 7.48466 11.4784 8.62925 12.2026C8.77854 12.299 8.93115 12.3721 9.07713 12.4452C9.19988 12.5083 9.31932 12.5648 9.41553 12.6279L9.42548 12.6345C9.4288 12.6379 9.43212 12.6379 9.43544 12.6412C9.44539 12.6478 9.45534 12.6545 9.46861 12.6611C9.60464 12.7309 9.74066 12.7641 9.87668 12.7641C10.225 12.7641 10.4374 12.5515 10.507 12.4817L11.7147 11.2724C11.8175 11.1694 11.9801 11.0465 12.1559 11.0465C12.345 11.0465 12.4943 11.1827 12.5673 11.2624L14.5247 13.2226C14.8133 13.5183 14.8233 13.8007 14.5512 14.1063ZM9.14016 4.24583C10.0359 4.39534 10.8521 4.82058 11.5056 5.47507C12.1559 6.12623 12.5806 6.94351 12.7332 7.84384C12.7829 8.1362 13.0351 8.34882 13.3304 8.34882C13.3635 8.34882 13.3934 8.3455 13.4199 8.34218L13.4332 8.33886C13.7616 8.2857 13.9872 7.97009 13.9342 7.63454C13.7384 6.48504 13.1976 5.44185 12.3682 4.61128C11.5388 3.78072 10.4938 3.23919 9.34586 3.04318C9.01078 2.99002 8.70555 3.20597 8.64583 3.53819C8.61598 3.70098 8.65247 3.86377 8.74868 3.99666C8.84489 4.13288 8.98423 4.21926 9.14016 4.24583ZM16.9632 7.50165C16.6447 5.62789 15.7622 3.92025 14.4086 2.56809C13.055 1.21261 11.353 0.32889 9.48188 0.00995326C9.15675 -0.0498474 8.84158 0.172744 8.78186 0.508292C8.72878 0.84384 8.94774 1.14949 9.27951 1.20929C10.8952 1.48504 12.3716 2.24916 13.5493 3.42524C14.7238 4.60132 15.4868 6.07972 15.7622 7.70098C15.812 7.99334 16.0641 8.20597 16.3594 8.20597C16.3925 8.20597 16.4224 8.20264 16.4489 8.19932H16.4622C16.6215 8.17607 16.7608 8.08969 16.857 7.9568C16.9565 7.82391 16.993 7.66112 16.9632 7.50165Z" fill="#333333"/>
</g>
<defs>
<clipPath id="clip0">
<rect width="16.9764" height="17.0266" fill="white"/>
</clipPath>
</defs>
</svg>
