<svg width="14" height="14" viewBox="0 0 14 14" fill="none" xmlns="http://www.w3.org/2000/svg">
<path fill-rule="evenodd" clip-rule="evenodd" d="M10.3234 4.70232L10.8614 7.00094C10.398 7.00707 9.97245 7.09626 9.5652 7.28558C9.5367 7.29882 9.47984 7.2884 9.45892 7.2649C9.18844 6.95891 8.92043 6.65011 8.65015 6.33869C8.59226 6.272 8.53428 6.20519 8.47614 6.13826L10.3234 4.70232ZM10.8131 13.376C9.30511 13.3787 8.16768 12.1426 8.1692 10.5028C8.16662 8.83703 9.33665 7.6288 10.7993 7.63294C12.3294 7.63741 13.4288 8.87757 13.4342 10.5189C13.4396 12.1274 12.292 13.3734 10.8131 13.376ZM11.7958 9.61325L10.2098 11.3451C10.1463 11.2742 10.0838 11.2043 10.0219 11.135C9.87223 10.9675 9.7262 10.804 9.57873 10.6421C9.43151 10.4804 9.25609 10.4693 9.13404 10.6078C9.01744 10.7402 9.03154 10.9279 9.17255 11.0824C9.4359 11.3717 9.70017 11.66 9.9649 11.9478C10.143 12.1414 10.2904 12.1411 10.4687 11.9468C10.811 11.5738 11.153 11.2004 11.4951 10.827C11.6234 10.6869 11.7517 10.5468 11.88 10.4068C11.9351 10.3465 11.9904 10.2865 12.0457 10.2264C12.1777 10.0829 12.3097 9.93952 12.44 9.79429C12.5742 9.64485 12.5809 9.46083 12.4628 9.32993C12.3462 9.20068 12.1727 9.2078 12.0378 9.34979C11.9809 9.40974 11.9252 9.47104 11.8695 9.53232C11.845 9.55934 11.8205 9.58635 11.7958 9.61325ZM1.8664 3.19225C1.94433 3.22336 1.99876 3.24686 2.0544 3.26721C3.08525 3.64618 4.11594 4.02531 5.14739 4.40196C5.26338 4.44433 5.35526 4.51003 5.38331 4.6449C5.41378 4.79169 5.35359 4.89859 5.25276 4.99656C4.65297 5.57841 4.05044 6.15729 3.46292 6.75387C3.28159 6.93806 3.12512 6.96553 2.90058 6.85945C2.3076 6.57912 1.70568 6.32129 1.10543 6.05932C1.0604 6.03963 0.98323 6.03516 0.952149 6.06379C0.852385 6.15629 0.767176 6.2675 0.671658 6.37706C0.703649 6.42521 0.728817 6.46543 0.756411 6.50365C1.09467 6.97298 1.43353 7.4418 1.77194 7.91096C1.92477 8.12295 1.92113 8.25286 1.74147 8.44201C1.64246 8.54593 1.63154 8.65929 1.69249 8.77745C1.77088 8.9292 1.86655 8.95916 2.01483 8.89942C2.10019 8.86516 2.18495 8.82859 2.26985 8.79268C4.27908 7.94257 6.2037 6.90529 8.03933 5.67357C8.92811 5.07732 9.76382 4.39716 10.5603 3.66389C11.1382 3.13152 11.6892 2.56389 12.2464 2.00504C12.4973 1.75367 12.6835 1.4452 12.8345 1.11306C12.9761 0.801948 12.9578 0.755943 12.6492 0.69223C12.0193 0.562488 11.3973 0.624215 10.7818 0.801617C9.79566 1.08609 8.95889 1.6696 8.17927 2.36266C8.04342 2.48347 7.90712 2.53742 7.73231 2.53692C6.02222 2.53229 4.31198 2.53411 2.60174 2.53593C2.54458 2.53593 2.46786 2.53195 2.43329 2.5677C2.24256 2.76496 2.06214 2.97414 1.8664 3.19225ZM8.98787 7.63691C8.64386 7.24173 8.3056 6.853 7.96461 6.46129C7.6638 6.64862 7.37285 6.83248 7.07947 7.01187C5.52692 7.96127 3.91689 8.77613 2.25563 9.47151C1.93208 9.60688 1.52665 9.52645 1.31848 9.2663C1.07908 8.96727 1.011 8.62653 1.17293 8.25683C1.2125 8.16664 1.19037 8.11286 1.14079 8.04484C0.800106 7.5775 0.462152 7.10768 0.123439 6.63869C-0.0475845 6.40188 -0.0424295 6.29067 0.148911 6.07024C0.327667 5.86421 0.505514 5.65719 0.685483 5.45248C0.809961 5.31082 0.925796 5.29378 1.09364 5.36924C1.73331 5.65735 2.37389 5.94315 3.01584 6.22514C3.05207 6.24103 3.11818 6.23375 3.14562 6.2071C3.59501 5.76972 4.04031 5.32754 4.48606 4.88585C4.49531 4.87691 4.49971 4.86185 4.51563 4.83273C4.27926 4.74568 4.0488 4.66079 3.81834 4.57589C2.98597 4.26941 2.15329 3.96326 1.32106 3.65628C1.02177 3.54573 0.967642 3.30495 1.18627 3.0592C1.4563 2.75536 1.73376 2.45931 1.99394 2.14587C2.14358 1.96566 2.30354 1.8945 2.53081 1.89847C3.42459 1.9137 4.31883 1.90492 5.21276 1.90492C6.01103 1.90509 6.80929 1.9031 7.60755 1.90674C7.72278 1.90724 7.81451 1.87696 7.90685 1.7967C8.74786 1.06375 9.65514 0.465018 10.7125 0.17889C11.4344 -0.016385 12.1594 -0.0802632 12.8887 0.132885C12.9501 0.150757 13.0109 0.173098 13.07 0.198583C13.3849 0.333786 13.4903 0.536343 13.4228 0.901574C13.3124 1.49865 13.0574 2.02126 12.6562 2.43796C12.0884 3.02776 11.4977 3.59174 10.9119 4.16085C10.8352 4.23532 10.8173 4.29738 10.8425 4.4023C11.0438 5.24876 11.2418 6.09623 11.4369 6.94435C11.4607 7.04761 11.5037 7.09709 11.6016 7.12639C12.8571 7.50138 13.8422 8.72152 13.9793 10.0626C14.1338 11.5739 13.4174 12.9875 12.1568 13.6592C10.5864 14.4962 8.67297 13.7376 7.90533 11.9737C7.26126 10.4937 7.64879 8.77977 8.86127 7.7458C8.90009 7.71271 8.9389 7.67911 8.98787 7.63691Z" fill="#707070"/>
</svg>
