<svg width="14" height="14" viewBox="0 0 14 14" fill="none" xmlns="http://www.w3.org/2000/svg">
<path d="M12.227 0.575658C12.5954 0.575658 12.9638 0.598684 13.3322 0.667763C13.4474 1.40461 13.4474 2.14145 13.3322 2.87829L10.4079 5.06579L11.8816 12.3651L10.4079 13.102L8.2204 7.99013L5.29605 10.1546V12.3421L4.58224 13.0789L3.10855 10.8914L0.898026 9.44079L1.63487 8.70395H3.82237L6.00987 5.77961L0.898026 3.59211L1.63487 2.11842L8.93421 3.59211L11.1217 0.667763C11.4901 0.598684 11.8586 0.575658 12.227 0.575658ZM12.227 0C11.8355 0 11.4441 0.0230263 11.0526 0.0921053L10.8224 0.138158L10.6842 0.322368L8.70395 2.94737L1.75 1.56579L1.3125 1.47368L1.12829 1.86513L0.391447 3.33882L0.115132 3.89145L0.667763 4.12171L5.11184 6.00987L3.54605 8.12829H1.63487H1.40461L1.24342 8.28947L0.506579 9.02632L0 9.5329L0.575658 9.92434L2.67105 11.3289L4.07566 13.4243L4.46711 14L4.95066 13.4934L5.66447 12.7566L5.82566 12.5954V12.3651V10.477L7.94408 8.91118L9.85526 13.3322L10.0855 13.8849L10.6382 13.6086L12.1118 12.8717L12.5033 12.6645L12.4342 12.227L11.0526 5.29605L13.6776 3.31579L13.8618 3.17763L13.9079 2.94737C14.023 2.16447 14.023 1.35855 13.9079 0.575658L13.8388 0.161184L13.4243 0.0921053C13.0329 0.0230263 12.6184 0 12.227 0Z" fill="#707070"/>
</svg>
