<svg width="15" height="15" viewBox="0 0 15 15" fill="none" xmlns="http://www.w3.org/2000/svg">
<path d="M1 14H0.625V14.375H1V14ZM14.125 14V14.375H14.5V14H14.125ZM8 8.375C6.64242 8.375 4.84343 8.67591 3.3723 9.28032C2.63665 9.58256 1.96079 9.96966 1.46328 10.452C0.9621 10.9378 0.625 11.5389 0.625 12.25H1.375C1.375 11.7973 1.5845 11.379 1.98532 10.9905C2.38982 10.5983 2.97136 10.2559 3.65731 9.97405C5.02939 9.41034 6.7304 9.125 8 9.125V8.375ZM0.625 12.25V14H1.375V12.25H0.625ZM1 14.375H14.125V13.625H1V14.375ZM14.5 14V12.25H13.75V14H14.5ZM14.5 12.25C14.5 11.54 14.164 10.9403 13.6797 10.456C13.1983 9.97463 12.5521 9.58714 11.8725 9.2846C10.5171 8.68127 8.93412 8.375 8 8.375V9.125C8.81917 9.125 10.2987 9.40498 11.5675 9.96978C12.1999 10.2513 12.7563 10.5933 13.1494 10.9864C13.5395 11.3765 13.75 11.7962 13.75 12.25H14.5ZM8 8.25C10.1402 8.25 11.875 6.51652 11.875 4.375H11.125C11.125 6.10215 9.72614 7.5 8 7.5V8.25ZM11.875 4.375C11.875 2.23348 10.1402 0.5 8 0.5V1.25C9.72614 1.25 11.125 2.64785 11.125 4.375H11.875ZM8 0.5C5.85856 0.5 4.125 2.23356 4.125 4.375H4.875C4.875 2.64777 6.27277 1.25 8 1.25V0.5ZM4.125 4.375C4.125 6.51644 5.85856 8.25 8 8.25V7.5C6.27277 7.5 4.875 6.10223 4.875 4.375H4.125Z" fill="#707070"/>
</svg>
