<svg width="18" height="18" viewBox="0 0 18 18" fill="none" xmlns="http://www.w3.org/2000/svg">
<g clip-path="url(#clip0)">
<path d="M15.4349 3.24683C13.8326 1.65468 11.7006 0.776367 9.43292 0.776367C7.16521 0.776367 5.03323 1.65468 3.43093 3.24683C1.82863 4.83897 0.941406 6.95745 0.941406 9.2108C0.941406 11.4641 1.82532 13.5826 3.42762 15.1748C5.02991 16.7669 7.1619 17.6452 9.42961 17.6452C11.6973 17.6452 13.8293 16.7669 15.4316 15.1748C17.0339 13.5826 17.9178 11.4641 17.9178 9.2108C17.9178 6.95745 17.0372 4.83897 15.4349 3.24683ZM13.5082 4.55607L13.8061 3.32906C15.0675 4.25672 16.001 5.55939 16.4645 7.03969C16.1136 7.11535 15.8322 7.3818 15.7461 7.73049L15.7395 7.7601L15.5177 7.59562C15.2297 7.3818 14.8357 7.34891 14.5146 7.51667L13.9617 7.80287C13.6274 7.97721 13.4354 8.31604 13.4585 8.69105C13.4784 8.98711 13.6274 9.24698 13.8657 9.40488L13.7797 9.50028L12.9851 8.9904C12.717 8.81934 12.3826 8.79302 12.0913 8.92132C11.8 9.04961 11.5947 9.31277 11.545 9.62528L11.4722 10.0595C11.4226 10.3687 11.5285 10.6812 11.7569 10.8951L12.1277 11.2405L11.4259 12.2997C11.3299 12.4411 11.2769 12.6089 11.2703 12.7767L11.2041 14.405L10.3069 15.28L9.81695 14.9938C9.49914 13.5695 9.4892 13.5399 9.48258 13.5234L9.18132 12.724C9.05552 12.3885 8.74102 12.1484 8.38017 12.1188L7.10231 12.0069L6.40048 10.8062L6.57593 9.64502L7.63199 8.85223L8.69799 9.29303C8.78075 9.32593 8.87013 9.34896 8.95952 9.35883L10.5684 9.53317C10.8002 9.55949 11.0319 9.49699 11.2206 9.36212L12.2866 8.60223C12.6475 8.34564 12.7799 7.86208 12.5978 7.46075L12.4985 7.24035C12.3528 6.91797 12.0449 6.70744 11.6907 6.6877L9.79046 6.58573C9.87985 6.54296 9.96261 6.48704 10.0354 6.42125L11.0915 5.43109L12.6839 5.26661C13.0844 5.22714 13.4155 4.94095 13.5082 4.55607ZM8.49935 2.83892C8.61191 2.62839 8.64833 2.38496 8.59867 2.1514L8.55563 1.94745C8.98931 1.89482 9.4263 1.88166 9.86329 1.90798L9.49251 2.05601C9.33692 2.11851 9.20119 2.21719 9.09194 2.3422L8.23451 3.33564L8.49935 2.83892ZM4.29498 3.97382V4.63173C4.29498 4.87187 4.17249 5.09556 3.97054 5.22714L3.17602 5.74031C3.02373 5.839 2.88469 5.95742 2.76882 6.09558C3.14291 5.30938 3.65604 4.59226 4.29498 3.97382ZM4.71541 14.8228C3.74874 14.0201 3.01049 12.9971 2.56026 11.8359H2.73572L3.67591 13.2931C3.72888 13.3721 3.78846 13.4477 3.8613 13.5102L4.775 14.3392L4.71541 14.8228ZM9.42961 16.5268C8.13851 16.5268 6.87057 16.188 5.75823 15.5498L5.89396 14.4609C5.937 14.1089 5.80789 13.757 5.54305 13.5201C5.20537 13.2142 4.70217 12.7569 4.61279 12.6714L3.67591 11.2207C3.47396 10.9049 3.12636 10.7174 2.74896 10.7174H2.22589C2.11996 10.224 2.06699 9.71739 2.06699 9.2108V9.0825L3.58652 6.87521C3.63949 6.79626 3.70901 6.73047 3.78846 6.68113L4.58299 6.17124C5.10937 5.83242 5.42056 5.26004 5.42056 4.63831V3.08235C6.04956 2.67444 6.73484 2.36522 7.45323 2.16785L7.48964 2.34878L6.88712 3.47709C6.84078 3.56262 6.79443 3.73039 6.78119 3.77973L6.77788 3.7896C6.71498 4.10211 6.80105 4.41791 7.0063 4.65805C7.20162 4.88503 7.48964 5.01661 7.78759 5.01661C7.86704 5.0199 8.26762 5.01003 8.57881 4.65805L9.9295 3.08893L10.7836 2.74681C10.9359 2.68431 11.0749 2.58891 11.1842 2.46391L11.4358 2.17443C11.9059 2.30601 12.3661 2.48694 12.7997 2.71063C12.7534 2.90142 12.6541 3.30275 12.4422 4.17119L10.916 4.3258C10.7108 4.34554 10.5155 4.43436 10.3665 4.57581L9.3005 5.57583L8.44638 5.8061C8.07561 5.90479 7.80745 6.21401 7.75779 6.58902C7.70814 6.96732 7.89353 7.33246 8.22458 7.51996C8.35038 7.59233 8.49604 7.6351 8.64171 7.64168L11.4954 7.79629L10.6313 8.41143L9.11511 8.24696L7.9796 7.77655C7.67172 7.64826 7.31418 7.69431 7.04934 7.89168L5.85093 8.79302C5.6523 8.94105 5.52318 9.15816 5.48677 9.40159L5.28483 10.7043C5.25172 10.9148 5.29476 11.1286 5.40069 11.3128L6.18198 12.6517C6.33427 12.9148 6.60904 13.0892 6.91692 13.1155L8.17492 13.2241L8.42983 13.905L8.74102 15.3129C8.7973 15.5662 8.95952 15.7899 9.18463 15.9215L9.8666 16.3162C10.009 16.3985 10.1745 16.4445 10.3433 16.4445C10.5916 16.4445 10.8267 16.3491 11.0021 16.1781L12.0516 15.155C12.2237 14.9873 12.323 14.7636 12.333 14.5234L12.3992 12.8754L13.1606 11.7306C13.4155 11.349 13.3526 10.8457 13.0182 10.5299L12.6011 10.1483L12.611 10.0858L13.3029 10.5299C13.6936 10.7799 14.22 10.7075 14.5245 10.3589L14.8688 9.96739C15.0708 9.73713 15.1469 9.42133 15.0708 9.12198C15.0244 8.93447 14.9185 8.76999 14.7761 8.64499L14.9317 8.56275L15.2826 8.82263C15.5375 9.01013 15.8653 9.06277 16.1632 8.95421C16.438 8.85552 16.6499 8.63841 16.7426 8.36538C16.7757 8.64499 16.7922 8.92789 16.7922 9.2108C16.7922 13.2438 13.4916 16.5268 9.42961 16.5268Z" fill="#333333"/>
</g>
<defs>
<clipPath id="clip0">
<rect x="0.941406" y="0.776367" width="16.9764" height="16.8689" fill="white"/>
</clipPath>
</defs>
</svg>
