<?xml version="1.0" encoding="utf-8"?>
<!-- Generator: Adobe Illustrator 20.1.0, SVG Export Plug-In . SVG Version: 6.00 Build 0)  -->
<svg version="1.1" id="Calque_1" xmlns="http://www.w3.org/2000/svg" xmlns:xlink="http://www.w3.org/1999/xlink" x="0px" y="0px"
	 viewBox="0 0 283.5 283.5" style="enable-background:new 0 0 283.5 283.5;" xml:space="preserve">
<style type="text/css">
	.st0{fill:#002337;}
</style>
<g>
	<path class="st0" d="M141.7,25.5c37.8,0,42.3,0.1,57.3,0.8c13.8,0.6,21.3,2.9,26.3,4.9c6.6,2.6,11.3,5.6,16.3,10.6
		c5,5,8,9.7,10.6,16.3c1.9,5,4.2,12.5,4.9,26.3c0.7,14.9,0.8,19.4,0.8,57.3s-0.1,42.3-0.8,57.3c-0.6,13.8-2.9,21.3-4.9,26.3
		c-2.6,6.6-5.6,11.3-10.6,16.3c-5,5-9.7,8-16.3,10.6c-5,1.9-12.5,4.2-26.3,4.9c-14.9,0.7-19.4,0.8-57.3,0.8s-42.3-0.1-57.3-0.8
		c-13.8-0.6-21.3-2.9-26.3-4.9c-6.6-2.6-11.3-5.6-16.3-10.6c-5-5-8-9.7-10.6-16.3c-1.9-5-4.2-12.5-4.9-26.3
		c-0.7-14.9-0.8-19.4-0.8-57.3s0.1-42.3,0.8-57.3c0.6-13.8,2.9-21.3,4.9-26.3c2.6-6.6,5.6-11.3,10.6-16.3c5-5,9.7-8,16.3-10.6
		c5-1.9,12.5-4.2,26.3-4.9C99.4,25.7,103.9,25.5,141.7,25.5 M141.7,0c-38.5,0-43.3,0.2-58.4,0.9C68.2,1.5,57.9,3.9,48.9,7.4
		c-9.3,3.6-17.2,8.5-25.1,16.3c-7.9,7.9-12.7,15.8-16.3,25.1c-3.5,9-5.9,19.3-6.6,34.4C0.2,98.4,0,103.2,0,141.7
		c0,38.5,0.2,43.3,0.9,58.4c0.7,15.1,3.1,25.4,6.6,34.4c3.6,9.3,8.5,17.2,16.3,25.1c7.9,7.9,15.8,12.7,25.1,16.3
		c9,3.5,19.3,5.9,34.4,6.6c15.1,0.7,19.9,0.9,58.4,0.9s43.3-0.2,58.4-0.9c15.1-0.7,25.4-3.1,34.4-6.6c9.3-3.6,17.2-8.5,25.1-16.3
		c7.9-7.9,12.7-15.8,16.3-25.1c3.5-9,5.9-19.3,6.6-34.4c0.7-15.1,0.9-19.9,0.9-58.4s-0.2-43.3-0.9-58.4c-0.7-15.1-3.1-25.4-6.6-34.4
		c-3.6-9.3-8.5-17.2-16.3-25.1c-7.9-7.9-15.8-12.7-25.1-16.3c-9-3.5-19.3-5.9-34.4-6.6C185.1,0.2,180.2,0,141.7,0L141.7,0z"/>
	<path class="st0" d="M141.7,69C101.5,69,69,101.5,69,141.7s32.6,72.8,72.8,72.8s72.8-32.6,72.8-72.8S181.9,69,141.7,69z M141.7,189
		c-26.1,0-47.2-21.2-47.2-47.2c0-26.1,21.2-47.2,47.2-47.2c26.1,0,47.2,21.2,47.2,47.2C189,167.8,167.8,189,141.7,189z"/>
	<circle class="st0" cx="217.4" cy="66.1" r="17"/>
</g>
</svg>
