<?xml version="1.0" encoding="utf-8"?>
<!-- Generator: Adobe Illustrator 21.1.0, SVG Export Plug-In . SVG Version: 6.00 Build 0)  -->
<svg version="1.1" id="Calque_1" xmlns="http://www.w3.org/2000/svg" xmlns:xlink="http://www.w3.org/1999/xlink" x="0px" y="0px"
	 viewBox="0 0 841.9 595.3" style="enable-background:new 0 0 841.9 595.3;" xml:space="preserve">
<style type="text/css">
	.st0{fill:#002337;}
</style>
<g>
	<path class="st0" d="M420.9,181.4c37.8,0,42.3,0.1,57.3,0.8c13.8,0.6,21.3,2.9,26.3,4.9c6.6,2.6,11.3,5.6,16.3,10.6
		c5,5,8,9.7,10.6,16.3c1.9,5,4.2,12.5,4.9,26.3c0.7,14.9,0.8,19.4,0.8,57.3s-0.1,42.3-0.8,57.3c-0.6,13.8-2.9,21.3-4.9,26.3
		c-2.6,6.6-5.6,11.3-10.6,16.3c-5,5-9.7,8-16.3,10.6c-5,1.9-12.5,4.2-26.3,4.9c-14.9,0.7-19.4,0.8-57.3,0.8s-42.3-0.1-57.3-0.8
		c-13.8-0.6-21.3-2.9-26.3-4.9c-6.6-2.6-11.3-5.6-16.3-10.6c-5-5-8-9.7-10.6-16.3c-1.9-5-4.2-12.5-4.9-26.3
		c-0.7-14.9-0.8-19.4-0.8-57.3s0.1-42.3,0.8-57.3c0.6-13.8,2.9-21.3,4.9-26.3c2.6-6.6,5.6-11.3,10.6-16.3c5-5,9.7-8,16.3-10.6
		c5-1.9,12.5-4.2,26.3-4.9C378.6,181.6,383.1,181.4,420.9,181.4 M420.9,155.9c-38.5,0-43.3,0.2-58.4,0.9
		c-15.1,0.7-25.4,3.1-34.4,6.6c-9.3,3.6-17.2,8.5-25.1,16.3c-7.9,7.9-12.7,15.8-16.3,25.1c-3.5,9-5.9,19.3-6.6,34.4
		c-0.7,15.1-0.9,19.9-0.9,58.4c0,38.5,0.2,43.3,0.9,58.4c0.7,15.1,3.1,25.4,6.6,34.4c3.6,9.3,8.5,17.2,16.3,25.1
		c7.9,7.9,15.8,12.7,25.1,16.3c9,3.5,19.3,5.9,34.4,6.6c15.1,0.7,19.9,0.9,58.4,0.9s43.3-0.2,58.4-0.9c15.1-0.7,25.4-3.1,34.4-6.6
		c9.3-3.6,17.2-8.5,25.1-16.3c7.9-7.9,12.7-15.8,16.3-25.1c3.5-9,5.9-19.3,6.6-34.4c0.7-15.1,0.9-19.9,0.9-58.4s-0.2-43.3-0.9-58.4
		c-0.7-15.1-3.1-25.4-6.6-34.4c-3.6-9.3-8.5-17.2-16.3-25.1c-7.9-7.9-15.8-12.7-25.1-16.3c-9-3.5-19.3-5.9-34.4-6.6
		C464.3,156.1,459.4,155.9,420.9,155.9L420.9,155.9z"/>
	<path class="st0" d="M420.9,224.9c-40.2,0-72.8,32.6-72.8,72.8c0,40.2,32.6,72.8,72.8,72.8s72.8-32.6,72.8-72.8
		C493.7,257.4,461.1,224.9,420.9,224.9z M420.9,344.9c-26.1,0-47.2-21.2-47.2-47.2c0-26.1,21.2-47.2,47.2-47.2s47.2,21.2,47.2,47.2
		C468.2,323.7,447,344.9,420.9,344.9z"/>
	<circle class="st0" cx="496.6" cy="222" r="17"/>
</g>
</svg>
