<?xml version="1.0" encoding="utf-8"?>
<!-- Generator: Adobe Illustrator 21.1.0, SVG Export Plug-In . SVG Version: 6.00 Build 0)  -->
<svg version="1.1" id="Calque_1" xmlns="http://www.w3.org/2000/svg" xmlns:xlink="http://www.w3.org/1999/xlink" x="0px" y="0px"
	 viewBox="0 0 841.9 595.3" style="enable-background:new 0 0 841.9 595.3;" xml:space="preserve">
<style type="text/css">
	.st0{fill:#002337;}
</style>
<path class="st0" d="M420.9,155.9c-78.3,0-141.7,63.5-141.7,141.7s63.5,141.7,141.7,141.7s141.7-63.5,141.7-141.7
	S499.2,155.9,420.9,155.9z M492.1,270.8c0.1,1.5,0.1,2.9,0.1,4.4c0,45.1-34.4,97.2-97.2,97.2c-19.3,0-37.3-5.7-52.4-15.3
	c2.7,0.3,5.4,0.5,8.2,0.5c16,0,30.7-5.5,42.4-14.6c-15-0.3-27.6-10.2-31.9-23.7c2.1,0.4,4.2,0.6,6.4,0.6c3.1,0,6.1-0.4,9-1.2
	c-15.6-3.1-27.4-16.9-27.4-33.5c0-0.1,0-0.3,0-0.4c4.6,2.6,9.9,4.1,15.5,4.3c-9.2-6.1-15.2-16.6-15.2-28.4c0-6.3,1.7-12.1,4.6-17.2
	c16.8,20.7,42,34.3,70.4,35.7c-0.6-2.5-0.9-5.1-0.9-7.8c0-18.9,15.3-34.2,34.2-34.2c9.8,0,18.7,4.2,24.9,10.8
	c7.8-1.5,15.1-4.4,21.7-8.3c-2.6,8-8,14.7-15,18.9c6.9-0.8,13.5-2.7,19.6-5.4C504.6,259.9,498.8,265.9,492.1,270.8z"/>
</svg>
