<?xml version="1.0" encoding="utf-8"?>
<!-- Generator: Adobe Illustrator 21.1.0, SVG Export Plug-In . SVG Version: 6.00 Build 0)  -->
<svg version="1.1" id="Calque_1" xmlns="http://www.w3.org/2000/svg" xmlns:xlink="http://www.w3.org/1999/xlink" x="0px" y="0px"
	 viewBox="0 0 841.9 595.3" style="enable-background:new 0 0 841.9 595.3;" xml:space="preserve">
<style type="text/css">
	.st0{fill:#002337;}
</style>
<g>
	<g>
		<path class="st0" d="M420.9,155.9c-78.3,0-141.7,63.5-141.7,141.7s63.5,141.7,141.7,141.7s141.7-63.5,141.7-141.7
			C562.7,219.4,499.2,155.9,420.9,155.9z M505.1,259.1c-9.5,53.5-62.6,98.9-78.6,109.2c-16,10.3-30.5-4.1-35.8-15.1
			c-6-12.5-24.2-80.3-28.9-85.9s-19,5.6-19,5.6l-6.9-9.1c0,0,28.9-34.5,50.9-38.9c23.3-4.6,23.3,35.8,28.9,58.3
			c5.4,21.7,9.1,34.1,13.8,34.1c4.7,0,13.8-12.1,23.7-30.6c10-18.6-0.4-35-19.9-23.3C441.2,216.8,514.6,205.5,505.1,259.1z"/>
	</g>
</g>
</svg>
