<?xml version="1.0" encoding="utf-8"?>
<!-- Generator: Adobe Illustrator 21.1.0, SVG Export Plug-In . SVG Version: 6.00 Build 0)  -->
<svg version="1.1" id="Calque_1" xmlns="http://www.w3.org/2000/svg" xmlns:xlink="http://www.w3.org/1999/xlink" x="0px" y="0px"
	 viewBox="0 0 841.9 595.3" style="enable-background:new 0 0 841.9 595.3;" xml:space="preserve">
<style type="text/css">
	.st0{fill:#002337;}
</style>
<g>
	<rect x="449.1" y="271.4" class="st0" width="18.3" height="79"/>
	<path class="st0" d="M258.2,307.3c5.9-3.6,10.3-8.1,10.3-16.5c0-12.2-10-19.4-26.3-19.4h-33.9v79h35c15.5,0,28.4-8.8,28.4-23.7
		C271.8,316,265,310.1,258.2,307.3z M226.6,285.6h15.2c6.2,0,9.7,2.9,9.7,7.7c0,4.7-3.5,7.9-9.7,7.9h-15.2V285.6z M242.8,335.3
		h-16.1v-19.2h16.1c8,0,11.5,4,11.5,9.7C254.3,331.6,250.7,335.3,242.8,335.3z"/>
	<polygon class="st0" points="306.1,317.4 342.3,317.4 342.3,301.8 306.1,301.8 306.1,287.4 345.5,287.4 345.5,271.4 287.8,271.4 
		287.8,350.4 345.8,350.4 345.8,334.4 306.1,334.4 	"/>
	<path class="st0" d="M398.7,335.1c-12.5,0-22.8-9.7-22.8-24.2c0-14.9,10.4-24.2,22.7-24.2c9.4,0,16.4,5.3,20.7,14.5l15.2-10.6
		c-5.3-12-17.9-20.8-35.3-20.8c-23.6,0-41.5,16.5-41.5,41.1c0,24.6,17.2,41.1,41.1,41.1c17,0,27.3-7,36.5-21.3l-14.8-10.6
		C415.1,329.7,408.8,335.1,398.7,335.1z"/>
	<path class="st0" d="M458.3,243.3c-6.6,0-11.9,5.3-11.9,11.9c0,6.6,5.3,11.9,11.9,11.9c6.6,0,11.9-5.3,11.9-11.9
		C470.2,248.6,464.9,243.3,458.3,243.3z"/>
	<path class="st0" d="M537.9,322.4c-0.7-1.7-3.4-6.2-3.4-6.2l-28.9-44.8h-18.3v79h17.8v-51.4c0.7,1.7,3.4,6.2,3.4,6.2l28.9,45.2
		h18.3v-79h-17.8V322.4z"/>
	<polygon class="st0" points="593.8,334.4 593.8,317.4 630,317.4 630,301.8 593.8,301.8 593.8,287.4 633.2,287.4 633.2,271.4 
		575.5,271.4 575.5,350.4 633.5,350.4 633.5,334.4 	"/>
</g>
</svg>
