<?xml version="1.0" encoding="utf-8"?>
<!-- Generator: Adobe Illustrator 20.1.0, SVG Export Plug-In . SVG Version: 6.00 Build 0)  -->
<svg version="1.1" id="Calque_1" xmlns="http://www.w3.org/2000/svg" xmlns:xlink="http://www.w3.org/1999/xlink" x="0px" y="0px"
	 viewBox="0 0 425.2 108.7" style="enable-background:new 0 0 425.2 108.7;" xml:space="preserve">
<style type="text/css">
	.st0{fill:#002337;}
</style>
<g>
	<rect x="240.8" y="28.1" class="st0" width="18.3" height="79"/>
	<path class="st0" d="M49.9,64c5.9-3.6,10.3-8.1,10.3-16.5c0-12.2-10-19.4-26.3-19.4H0v79h35c15.5,0,28.4-8.8,28.4-23.7
		C63.4,72.7,56.7,66.9,49.9,64z M18.3,42.4h15.2c6.2,0,9.7,2.9,9.7,7.7c0,4.7-3.5,7.9-9.7,7.9H18.3V42.4z M34.4,92H18.3V72.8h16.1
		c8,0,11.5,4,11.5,9.7C45.9,88.3,42.3,92,34.4,92z"/>
	<polygon class="st0" points="97.8,74.1 134,74.1 134,58.5 97.8,58.5 97.8,44.2 137.1,44.2 137.1,28.1 79.5,28.1 79.5,107.2 
		137.5,107.2 137.5,91.1 97.8,91.1 	"/>
	<path class="st0" d="M190.3,91.8c-12.5,0-22.8-9.7-22.8-24.2c0-14.9,10.4-24.2,22.7-24.2c9.4,0,16.4,5.3,20.7,14.5l15.2-10.6
		c-5.3-12-17.9-20.8-35.3-20.8c-23.6,0-41.5,16.5-41.5,41.1c0,24.6,17.2,41.1,41.1,41.1c17,0,27.3-7,36.5-21.3L212,76.8
		C206.8,86.4,200.5,91.8,190.3,91.8z"/>
	<path class="st0" d="M249.9,0C243.3,0,238,5.3,238,11.9c0,6.6,5.3,11.9,11.9,11.9c6.6,0,11.9-5.3,11.9-11.9
		C261.8,5.3,256.5,0,249.9,0z"/>
	<path class="st0" d="M329.6,79.2c-0.7-1.7-3.4-6.2-3.4-6.2l-28.9-44.8H279v79h17.8V55.8c0.7,1.7,3.4,6.2,3.4,6.2l28.9,45.2h18.3
		v-79h-17.8V79.2z"/>
	<polygon class="st0" points="385.5,91.1 385.5,74.1 421.7,74.1 421.7,58.5 385.5,58.5 385.5,44.2 424.9,44.2 424.9,28.1 
		367.2,28.1 367.2,107.2 425.2,107.2 425.2,91.1 	"/>
</g>
</svg>
