<?xml version="1.0" encoding="utf-8"?>
<!-- Generator: Adobe Illustrator 20.1.0, SVG Export Plug-In . SVG Version: 6.00 Build 0)  -->
<svg version="1.1" id="Calque_1" xmlns="http://www.w3.org/2000/svg" xmlns:xlink="http://www.w3.org/1999/xlink" x="0px" y="0px"
	 viewBox="0 0 425.2 213.5" style="enable-background:new 0 0 425.2 213.5;" xml:space="preserve">
<style type="text/css">
	.st0{fill:#002337;}
</style>
<g>
	<g>
		<path class="st0" d="M48.4,2.8c1-0.9,1.8-1.6,2.5-2c0.7-0.4,1.3-0.6,1.8-0.6c1.6,0,3.4,1.9,5.4,5.7c2,3.8,3,7.7,3,11.7
			c0,1.5-0.3,2.7-0.9,3.5c-0.6,0.8-1.4,1.3-2.3,1.3c-1.4,0-3.1-1.4-5-4.1c-0.8-1.2-1.5-2.2-2-2.8c-2.4-3-5.2-5.2-8.3-6.6
			c-3.1-1.4-6.7-2.2-10.7-2.2c-5.2,0-9.4,1.4-12.6,4.2c-3.2,2.8-4.7,6.5-4.7,11.1c0,4.5,1.2,8.1,3.6,10.8c2.4,2.7,7.8,5.7,16.1,9.1
			c0.9,0.4,2.2,0.9,4,1.6c8.4,3.3,14.5,6.6,18.2,10.1c2.4,2.2,4.1,4.7,5.3,7.6c1.2,2.9,1.8,6.1,1.8,9.6c0,8.1-3.1,14.7-9.3,19.9
			c-6.2,5.2-14.2,7.8-23.9,7.8C24.5,98.4,19,97.6,14,96c-5-1.6-8.5-3.6-10.5-5.9c-0.9-1.2-1.7-3.4-2.4-6.7c-0.7-3.2-1-6.7-1-10.5
			c0-1.9,0.3-3.4,0.9-4.4c0.6-1,1.4-1.6,2.4-1.6c1.9,0,3.5,2.3,4.9,6.8c0.7,2.4,1.3,4.2,1.9,5.5c1.6,3.9,4.3,6.9,7.8,9
			c3.6,2.1,7.8,3.2,12.7,3.2c6.3,0,11.5-1.7,15.4-5.1c3.9-3.4,5.9-7.8,5.9-13.2c0-1.5-0.2-2.9-0.6-4.3c-0.4-1.3-1-2.6-1.9-3.9
			c-2.7-3.9-8.4-7.5-17-10.8c-1.7-0.7-3-1.2-3.9-1.5c-0.8-0.3-1.9-0.7-3.4-1.3c-8-3-13.6-6.4-16.9-10.1c-1.7-1.9-3-4.1-3.9-6.5
			c-0.9-2.4-1.3-5.1-1.3-8c0-7.9,2.7-14.3,8-19.1c5.4-4.9,12.4-7.3,21.1-7.3c2.2,0,4.6,0.2,7.2,0.7C42.2,1.4,45.1,2,48.4,2.8"/>
		<path class="st0" d="M119.9,93.2v-5.4c0-0.7-0.1-1.2-0.2-1.5c-0.1-0.3-0.3-0.4-0.6-0.4c-0.6,0-1.5,0.8-2.6,2.3
			c-0.9,1.3-1.7,2.3-2.3,3c-2,2.2-4.3,3.9-6.9,5c-2.6,1.1-5.6,1.6-9,1.6c-7.8,0-13.6-2.5-17.2-7.4c-3.6-4.9-5.4-12.8-5.4-23.5V56.1
			c0-6.2-0.1-10.3-0.4-12.3c-0.3-2-0.8-3.3-1.5-3.8c-0.3-0.2-1.4-0.4-3.5-0.7c-2.1-0.3-3.2-1.2-3.2-2.7c0-0.8,0.4-1.5,1.2-2.2
			c0.8-0.7,2-1.4,3.6-2.1c2.2-0.8,4.4-1.5,6.6-2.1c2.2-0.5,3.8-0.8,4.7-0.8c1.3,0,2.2,0.3,2.7,1c0.5,0.7,0.7,1.9,0.7,3.7
			c0,2.2-0.2,5.9-0.5,11.2c-0.3,5.3-0.5,9.5-0.5,12.5v3.6c0,6.1,0.1,10.6,0.4,13.4c0.3,2.8,0.8,5.1,1.4,6.9c0.9,2.6,2.5,4.6,4.8,6.1
			c2.3,1.5,5,2.2,8.1,2.2c3.2,0,6.2-0.8,9.1-2.3c2.9-1.5,5.4-3.7,7.6-6.6c1.1-1.3,1.8-3,2.2-4.9c0.4-1.9,0.6-4.9,0.6-9v-7.5v-3.8
			c0-6.1-0.1-10.2-0.4-12.2c-0.3-2-0.8-3.3-1.5-3.9c-0.3-0.2-1.4-0.4-3.5-0.7c-2.1-0.3-3.1-1.2-3.1-2.7c0-0.8,0.4-1.6,1.1-2.2
			c0.7-0.7,1.9-1.4,3.6-2.1c2.2-0.8,4.3-1.5,6.6-2.1c2.2-0.5,3.8-0.8,4.8-0.8c1.2,0,2.1,0.3,2.5,0.9c0.5,0.6,0.7,1.9,0.7,3.7
			c0,2.7-0.1,6.9-0.4,12.5c-0.3,5.6-0.4,9.9-0.4,12.8c0,9.5,0.1,16.2,0.3,20.1c0.2,3.9,0.6,6.3,1.2,7.1c0.4,0.6,1.7,1,4,1.4
			c2.3,0.3,3.4,1.2,3.4,2.7c0,1.5-1.8,3-5.3,4.7c-3.6,1.6-7,2.5-10.2,2.5c-1.1,0-1.9-0.3-2.4-1C120.1,96.3,119.9,95.1,119.9,93.2"/>
		<path class="st0" d="M161.5,39.8c0,0.8,0.1,1.3,0.2,1.5c0.1,0.2,0.3,0.3,0.6,0.3c0.6,0,1.5-0.8,2.6-2.3c0.9-1.3,1.7-2.3,2.3-3
			c2-2.3,4.3-4,6.9-5.1c2.6-1.1,5.6-1.7,8.9-1.7c6,0,10.9,1.6,14.5,4.7c3.6,3.1,6.1,7.9,7.6,14.3c0.3,1.1,0.4,2.6,0.6,4.3
			c0.1,1.7,0.2,4,0.2,6.9c0,0.9,0,2.4-0.1,4.5c0,2.1-0.1,3.7-0.1,4.9c0,2.2,0,4.5,0.1,7c0.1,2.4,0.2,5,0.3,7.7
			c0.1,1.9,0.3,3.3,0.6,4.1c0.3,0.8,0.9,1.4,1.8,1.9c0.3,0.2,1,0.4,2,0.7c2,0.5,3,1.4,3,2.5c0,1.3-1,2.3-3,2.9
			c-2,0.6-5.2,0.9-9.7,0.9c-4.5,0-7.7-0.3-9.7-0.9c-2-0.6-3-1.6-3-2.9c0-1.1,1-2,2.9-2.6c1.9-0.6,3.2-1.3,3.7-2.1
			c0.4-0.7,0.7-2.6,0.9-5.6c0.2-3.1,0.3-10.4,0.3-22c0-8-1.1-13.7-3.4-17.2c-2.3-3.4-6-5.1-11.1-5.1c-3.3,0-6.4,0.7-9.3,2.2
			c-2.9,1.5-5.4,3.7-7.7,6.6c-1,1.2-1.7,2.6-2.1,4.1c-0.4,1.5-0.6,3.8-0.6,6.8v4.7c0,9.5,0.1,15.9,0.3,19.3c0.2,3.4,0.5,5.5,0.9,6.2
			c0.5,0.8,1.7,1.5,3.7,2.1c2,0.6,2.9,1.5,2.9,2.6c0,1.3-1,2.3-3,2.9c-2,0.6-5.2,0.9-9.7,0.9c-4.5,0-7.8-0.3-9.8-0.9
			c-2-0.6-3-1.6-3-2.9c0-1.1,1-2,2.9-2.6c2-0.6,3.2-1.3,3.7-2.1c0.5-0.8,0.8-3.2,1-6.9c0.2-3.8,0.3-10,0.3-18.6
			c0-6.5-0.1-11.6-0.4-15.2c-0.3-3.6-0.7-5.8-1.2-6.6c-0.4-0.6-1.7-1-3.9-1.4c-2.2-0.3-3.4-1.2-3.4-2.7c0-1.5,1.8-3.1,5.3-4.8
			c3.6-1.7,7-2.5,10.2-2.5c1.1,0,1.9,0.3,2.4,1c0.5,0.7,0.7,1.9,0.7,3.8V39.8z"/>
		<path class="st0" d="M270.4,53.3c0-5.5-1.5-9.7-4.4-12.6c-2.9-2.9-7.2-4.3-12.7-4.3c-6.4,0-11.6,2.6-15.6,7.7
			c-4,5.1-6,11.9-6,20.3c0,7.7,1.8,13.9,5.5,18.6c3.7,4.7,8.5,7.1,14.4,7.1c2.7,0,5.5-0.5,8.4-1.6c2.8-1.1,5.3-2.6,7.3-4.5
			c1.1-0.9,1.9-2,2.3-3.1c0.4-1.1,0.7-2.9,0.7-5.3v-1.8V53.3z M270.4,20.5c0-3.6-0.2-6.1-0.6-7.6c-0.4-1.5-1.1-2.4-2-2.7
			c-0.4-0.1-1.2-0.3-2.2-0.4c-2.5-0.3-3.7-1.2-3.7-2.7c0-0.9,0.4-1.7,1.2-2.3c0.8-0.7,2.1-1.3,3.9-2c2.4-0.9,4.7-1.6,6.7-2.1
			c2.1-0.5,3.7-0.8,4.8-0.8c1.2,0,2,0.3,2.4,1c0.4,0.7,0.7,1.9,0.7,3.7c0,1.7-0.2,7.9-0.6,18.5c-0.4,10.6-0.6,20.3-0.6,29.1
			c0,12.4,0.1,21.1,0.4,26c0.3,4.9,0.7,7.8,1.3,8.8c0.3,0.5,1.6,1,3.9,1.3c2.2,0.3,3.4,1.2,3.4,2.7c0,1.5-1.8,3-5.3,4.7
			c-3.6,1.6-7,2.5-10.2,2.5c-1.2,0-2-0.3-2.5-1c-0.5-0.7-0.7-1.9-0.7-3.7v-2.1c0-0.7,0-1.1-0.1-1.4c-0.1-0.3-0.3-0.4-0.5-0.4
			c-0.6,0-1.6,0.5-2.9,1.5c-0.5,0.4-0.9,0.7-1.2,0.9c-2.7,1.9-5.4,3.3-8,4.1c-2.6,0.8-5.6,1.2-9,1.2c-8.4,0-15.3-3-20.7-8.9
			c-5.4-6-8-13.7-8-23.4c0-10,3-18.4,9.1-25.1c6.1-6.7,13.6-10,22.5-10c5.7,0,11,1.4,16.1,4.2c0.8,0.4,1.2,0.6,1.4,0.6
			c0.4,0,0.7-0.3,0.9-1c0.2-0.7,0.3-1.6,0.3-2.8V20.5z"/>
		<path class="st0" d="M338.1,63.3c-2.2-0.4-4.3-0.7-6.2-0.8c-1.9-0.2-3.6-0.3-5.2-0.3c-6.4,0-11.3,1.3-14.6,3.9
			c-3.3,2.6-5,6.4-5,11.4c0,4.1,1.2,7.4,3.5,9.7c2.3,2.3,5.6,3.5,9.7,3.5c5.3,0,9.5-1.6,12.8-4.9c3.3-3.3,4.9-7.6,4.9-13V63.3z
			 M338.1,57.7c0-0.5,0.1-1,0.1-1.6c0-0.5,0-1.4,0-2.5c0-6.5-1-11.1-3-13.9c-2-2.8-5.3-4.2-9.9-4.2c-2.3,0-4.4,0.4-6.3,1.3
			c-1.9,0.9-3.6,2.3-5.2,4.1c-0.3,0.4-0.8,1.1-1.5,2c-2.1,3-4.2,4.5-6.4,4.5c-1.3,0-2.4-0.4-3.2-1.2c-0.8-0.8-1.2-1.9-1.2-3.2
			c0-3.1,2.4-6.1,7.2-8.8c4.8-2.7,10.4-4.1,16.6-4.1c7.8,0,13.6,1.9,17.3,5.8c3.7,3.9,5.6,9.9,5.6,18.1c0,2.4,0,5.5-0.1,9.4
			c-0.1,3.9-0.1,6.7-0.1,8.2c0,7.7,0.2,12.6,0.6,14.7c0.4,2.1,1.1,3.1,2.1,3.1c0.4,0,1-0.1,1.6-0.2c0.7-0.1,1.1-0.2,1.2-0.2
			c0.6,0,1,0.2,1.4,0.5c0.3,0.4,0.5,0.8,0.5,1.4c0,1.5-1,3-2.9,4.5c-1.9,1.5-4,2.3-6.1,2.3c-2.5,0-5.2-2.7-8.2-8.1
			c-0.3-0.5-0.5-0.8-0.6-1.1h-0.9c-2.9,2.9-6,5.1-9.2,6.5c-3.3,1.4-6.8,2.1-10.8,2.1c-6.2,0-11.2-1.7-15-5.1
			c-3.7-3.4-5.6-7.9-5.6-13.6c0-6.8,2.5-12,7.4-15.8c5-3.8,11.9-5.7,20.8-5.7c2.2,0,4.5,0.1,6.7,0.2
			C333.5,57.3,335.8,57.5,338.1,57.7"/>
		<path class="st0" d="M394.1,83.2c0.6,0,2.2-3.5,4.7-10.6l0.4-1.1l2-5.6c5.3-14.2,8-22.6,8-25.3c0-1.2-1.3-2.3-3.8-3.2
			c-2.6-1-3.8-2-3.8-3c0-1.3,0.9-2.2,2.7-2.8c1.8-0.5,4.8-0.8,9.1-0.8c4.3,0,7.3,0.3,9.1,0.8c1.8,0.5,2.7,1.5,2.7,2.8
			c0,0.9-0.9,1.7-2.7,2.3c-0.9,0.3-1.6,0.5-2,0.8c-2,0.8-3.8,3.5-5.5,7.9c-0.5,1.2-0.8,2.2-1.1,3c-3.5,8.9-7.5,19.6-11.9,32.2
			c-4.4,12.6-7.3,20.5-8.8,23.8c-3,6.8-6.1,11.6-9.3,14.5c-3.2,2.9-7.1,4.3-11.6,4.3c-2.9,0-5.3-0.7-7.1-2.2
			c-1.8-1.4-2.7-3.3-2.7-5.6c0-1.7,0.5-3.1,1.6-4.2c1-1.1,2.3-1.6,3.9-1.6c1.2,0,2.2,0.3,2.9,0.8c0.8,0.5,1.5,1.5,2.2,2.8
			c0,0.1,0.1,0.2,0.3,0.4c1,1.8,2.3,2.7,3.8,2.7c2.4,0,4.7-1.6,6.8-4.9c2.2-3.3,3.2-7,3.2-11.2c0-4.7-5.7-20.8-17.1-48.4
			c-1.4-3.2-2.4-5.7-3.1-7.5c-0.7-1.8-1.4-3.2-2-4.2c-0.6-1-1.2-1.7-1.8-2.2c-0.2-0.1-1-0.4-2.5-0.9c-1.5-0.5-2.2-1.2-2.2-2.3
			c0-1.4,1-2.3,3-2.9c2-0.6,5.2-0.9,9.7-0.9c4.8,0,8.2,0.3,10.2,0.9c2,0.6,3,1.6,3,3c0,0.6-0.2,1.1-0.5,1.5c-0.4,0.4-1,0.7-1.9,0.9
			c-0.3,0.1-0.6,0.2-1,0.3c-2.2,0.7-3.2,1.7-3.2,2.9c0,1.2,0.6,3.8,1.8,7.7c1.2,4,2.8,8.5,4.9,13.7c3.8,9.5,6.2,15.5,7.3,17.9
			C392.9,82,393.7,83.2,394.1,83.2"/>
	</g>
	<g>
		<path class="st0" d="M77.2,213.5c-13.7,0-24.9-4.7-33.5-14.1c-8.7-9.4-13-21.6-13-36.6c0-13.9,4.3-25.3,13-34.2
			c8.7-8.9,19.8-13.4,33.4-13.4c4.8,0,9.6,0.6,14.4,1.9c4.8,1.3,7.3,1.9,7.3,1.9c0.8,0,1.9-0.2,3.3-0.5c1.4-0.4,2.3-0.5,2.8-0.5
			c1.9,0,3.5,1.6,4.8,4.9c1.2,3.3,1.9,7.4,1.9,12.5c0,1.9-0.3,3.3-0.9,4.3c-0.6,1-1.5,1.5-2.6,1.5c-1.7,0-3.2-1.6-4.4-4.8
			c-0.8-2.1-1.6-3.7-2.3-4.8c-2.2-3.2-5.3-5.6-9.2-7.2c-4-1.6-8.9-2.4-14.8-2.4c-10.8,0-19.1,3.2-25,9.7c-5.9,6.5-8.9,15.6-8.9,27.3
			c0,5.8,0.7,11.4,2.1,16.8c1.4,5.4,3.3,10.2,5.9,14.4c3.2,5.3,7.1,9.4,11.9,12.2c4.7,2.8,10,4.2,15.6,4.2c6.3,0,11.3-1.8,15.1-5.5
			c3.8-3.6,5.6-8.5,5.6-14.6c0-2.8-0.2-4.7-0.7-5.9c-0.5-1.1-1.3-1.9-2.6-2.2c-1.1-0.3-2.5-0.5-4.2-0.7c-3.9-0.5-5.9-1.8-5.9-4
			c0-1.6,1.4-2.8,4.2-3.6c2.8-0.7,7.5-1.1,14.1-1.1c6.8,0,11.5,0.4,14.3,1.1c2.8,0.7,4.1,1.9,4.1,3.6c0,2.2-2.4,3.7-7.2,4.4
			c-0.7,0.1-1.2,0.2-1.5,0.3c-0.5,0.1-1,0.5-1.4,1c-0.4,0.6-0.8,1.5-1.1,2.8c-0.1,0.3-0.5,2.3-1.2,6.2c-0.7,3.9-1.8,7.2-3.2,10
			c-2.5,4.9-6.3,8.6-11.4,11.1C90.6,212.3,84.4,213.5,77.2,213.5"/>
		<path class="st0" d="M137.7,176.2c0,8.9,2.1,16.3,6.4,22.2c4.3,5.8,9.6,8.8,15.9,8.8c6.5,0,11.5-2.3,15.2-7
			c3.7-4.6,5.5-11.1,5.5-19.3c0-8.6-2.2-15.7-6.6-21.4c-4.4-5.7-10-8.5-16.6-8.5c-5.8,0-10.6,2.3-14.3,7
			C139.6,162.5,137.7,168.6,137.7,176.2 M126.4,179.9c0-10,3.3-18.4,9.8-25.1c6.5-6.7,14.7-10,24.4-10c9.3,0,16.9,3.1,22.9,9.2
			c6,6.1,9,14,9,23.5c0,10.2-3.2,18.6-9.7,25.4c-6.5,6.8-14.5,10.2-24,10.2c-9.2,0-16.9-3.2-23.1-9.5
			C129.5,197.2,126.4,189.3,126.4,179.9"/>
		<path class="st0" d="M212.7,176.2c0,8.9,2.1,16.3,6.4,22.2c4.3,5.8,9.6,8.8,15.9,8.8c6.5,0,11.5-2.3,15.2-7
			c3.7-4.6,5.5-11.1,5.5-19.3c0-8.6-2.2-15.7-6.6-21.4c-4.4-5.7-10-8.5-16.6-8.5c-5.8,0-10.6,2.3-14.3,7
			C214.5,162.5,212.7,168.6,212.7,176.2 M201.3,179.9c0-10,3.3-18.4,9.8-25.1c6.5-6.7,14.7-10,24.4-10c9.3,0,16.9,3.1,22.9,9.2
			c6,6.1,9,14,9,23.5c0,10.2-3.2,18.6-9.7,25.4c-6.5,6.8-14.5,10.2-24,10.2c-9.2,0-16.9-3.2-23.1-9.5
			C204.4,197.2,201.3,189.3,201.3,179.9"/>
		<path class="st0" d="M326.6,168.4c0-5.5-1.5-9.7-4.4-12.6c-2.9-2.9-7.2-4.3-12.7-4.3c-6.4,0-11.6,2.6-15.6,7.7
			c-4,5.1-6,11.9-6,20.3c0,7.7,1.8,13.9,5.5,18.6c3.7,4.7,8.5,7.1,14.4,7.1c2.7,0,5.5-0.5,8.4-1.6c2.8-1.1,5.3-2.6,7.3-4.5
			c1.1-0.9,1.9-2,2.3-3.1c0.4-1.1,0.7-2.9,0.7-5.3v-1.8V168.4z M326.6,135.6c0-3.6-0.2-6.1-0.6-7.6c-0.4-1.5-1.1-2.4-2-2.7
			c-0.4-0.1-1.2-0.3-2.2-0.4c-2.5-0.3-3.7-1.2-3.7-2.7c0-0.9,0.4-1.7,1.2-2.3c0.8-0.7,2.1-1.3,3.9-2c2.4-0.9,4.7-1.6,6.7-2.1
			c2.1-0.5,3.7-0.8,4.8-0.8c1.2,0,2,0.3,2.4,1c0.4,0.7,0.7,1.9,0.7,3.7c0,1.7-0.2,7.9-0.6,18.5c-0.4,10.6-0.6,20.3-0.6,29.1
			c0,12.4,0.1,21.1,0.4,26c0.3,4.9,0.7,7.8,1.3,8.8c0.3,0.5,1.6,1,3.9,1.3c2.2,0.3,3.4,1.2,3.4,2.7c0,1.5-1.8,3-5.3,4.7
			c-3.6,1.6-7,2.5-10.2,2.5c-1.2,0-2-0.3-2.5-1c-0.5-0.7-0.7-1.9-0.7-3.7v-2.1c0-0.7,0-1.1-0.1-1.4c-0.1-0.3-0.3-0.4-0.5-0.4
			c-0.6,0-1.6,0.5-2.9,1.5c-0.5,0.4-1,0.7-1.2,0.9c-2.7,1.9-5.4,3.3-8,4.1s-5.6,1.2-9,1.2c-8.4,0-15.3-3-20.7-8.9
			c-5.4-6-8-13.7-8-23.4c0-10,3-18.4,9.1-25.1c6.1-6.7,13.6-10,22.5-10c5.7,0,11,1.4,16.1,4.2c0.8,0.4,1.2,0.6,1.4,0.6
			c0.4,0,0.7-0.3,0.9-1c0.2-0.7,0.3-1.6,0.3-2.8V135.6z"/>
		<path class="st0" d="M381.5,146.1c0.8-0.5,1.5-0.9,2.1-1.1c0.6-0.2,1.1-0.3,1.5-0.3c1.6,0,3.1,1.4,4.7,4.3c1.6,2.9,2.3,6,2.3,9.4
			c0,1.4-0.3,2.6-0.9,3.4c-0.6,0.8-1.4,1.2-2.4,1.2c-1.5,0-2.8-1.3-3.9-3.8c-0.3-0.5-0.4-0.9-0.6-1.2c-1.5-3.1-3.1-5.2-4.7-6.3
			c-1.7-1.1-4-1.6-6.8-1.6c-3,0-5.5,0.9-7.6,2.8c-2.1,1.9-3.1,4.2-3.1,6.9c0,4.9,5.3,9.6,16,14.2c2.1,0.9,3.7,1.6,4.9,2.2
			c3.7,1.6,6.5,4,8.6,7.1c2,3.1,3.1,6.5,3.1,10.3c0,5.8-2.1,10.6-6.3,14.2c-4.2,3.7-9.6,5.5-16.3,5.5c-2.1,0-4.5-0.3-7.2-1
			c-2.7-0.7-4.3-1-4.8-1c-0.6,0-1.4,0.2-2.4,0.7c-1,0.5-1.7,0.7-2.1,0.7c-1.2,0-2.4-1.5-3.7-4.6c-1.3-3.1-2-6.3-2-9.6
			c0-1.3,0.3-2.3,1-3.1c0.7-0.8,1.6-1.2,2.7-1.2c1.2,0,2.6,1.3,4.1,3.9c0.5,1,1,1.8,1.3,2.3c1.3,2.3,3.2,4.1,5.4,5.4
			s4.8,1.9,7.6,1.9c3.8,0,7-1,9.4-3.1c2.4-2.1,3.6-4.7,3.6-8c0-2.6-0.7-4.8-2.1-6.6s-3.7-3.5-6.8-5c-1.1-0.5-2.9-1.3-5.4-2.2
			c-6.5-2.5-11.1-5.2-14-7.9c-1.6-1.6-2.9-3.4-3.8-5.4c-0.9-2-1.3-4.2-1.3-6.5c0-5.3,2-9.6,5.9-13c3.9-3.4,8.9-5.1,15-5.1
			c1.3,0,2.7,0.1,4.2,0.4C378.1,145.3,379.8,145.7,381.5,146.1"/>
	</g>
</g>
</svg>
