<?xml version="1.0" encoding="utf-8"?>
<!-- Generator: Adobe Illustrator 21.1.0, SVG Export Plug-In . SVG Version: 6.00 Build 0)  -->
<svg version="1.1" id="Calque_1" xmlns="http://www.w3.org/2000/svg" xmlns:xlink="http://www.w3.org/1999/xlink" x="0px" y="0px"
	 viewBox="0 0 841.9 595.3" style="enable-background:new 0 0 841.9 595.3;" xml:space="preserve">
<style type="text/css">
	.st0{fill:#002337;}
</style>
<g>
	<g>
		<polygon class="st0" points="361.4,260.4 348.8,260.4 348.8,210.7 330.6,210.7 330.6,200 379.6,200 379.6,210.7 361.4,210.7 		"/>
		<polygon class="st0" points="396.7,233.3 396.7,260.4 384.1,260.4 384.1,200 396.7,200 396.7,222.9 420.2,222.9 420.2,200 
			432.8,200 432.8,260.4 420.2,260.4 420.2,233.3 		"/>
		<polygon class="st0" points="481.6,210.7 450,210.7 450,223.4 477.9,223.4 477.9,234.1 450,234.1 450,249.7 481.6,249.7 
			481.6,260.4 438.2,260.4 438.2,200 481.6,200 		"/>
		<polygon class="st0" points="245.7,266.6 257.5,266.6 257.5,326.9 244.9,326.9 220.3,283.9 220.1,283.9 220.1,326.9 208.3,326.9 
			208.3,266.6 221.6,266.6 245.5,308.6 245.7,308.6 		"/>
		<path class="st0" d="M292.2,265c8,0,29,3.5,29,31.8c0,28.3-21,31.8-29,31.8c-8,0-29-3.5-29-31.8C263.2,268.4,284.3,265,292.2,265
			 M292.2,317.8c6.8,0,16.4-4.2,16.4-21.1c0-16.9-9.6-21.1-16.4-21.1c-6.8,0-16.4,4.2-16.4,21.1
			C275.8,313.6,285.4,317.8,292.2,317.8"/>
		<polygon class="st0" points="410.1,326.9 397.6,326.9 397.6,277.2 379.3,277.2 379.3,266.6 428.4,266.6 428.4,277.2 410.1,277.2 
					"/>
		<polygon class="st0" points="445.5,299.9 445.5,326.9 432.9,326.9 432.9,266.6 445.5,266.6 445.5,289.4 469,289.4 469,266.6 
			481.6,266.6 481.6,326.9 469,326.9 469,299.9 		"/>
		<path class="st0" d="M326.5,266.6H357c16,0,19,11.8,19,17.1c0,6.6-3.4,12.4-9.3,14.4c5,2.2,7.7,4,7.7,15.3c0,8.8,0,11,2.7,12v1.6
			h-14c-0.8-2.8-1.3-6-1.3-12.2c0-8.2-0.5-11.4-9.8-11.4h-13v23.6h-12.4V266.6z M353.6,293.1c6.6,0,9.7-2.3,9.7-8.2
			c0-3.2-1.4-7.9-8.8-7.9h-15.7v16.1H353.6z"/>
		<polygon class="st0" points="301.8,393.4 289.2,393.4 289.2,333.1 332.1,333.1 332.1,343.8 301.8,343.8 301.8,357.4 328.4,357.4 
			328.4,368.1 301.8,368.1 		"/>
		<path class="st0" d="M337.8,393.4h-13.3l21.5-60.3h14.5l21.3,60.3h-13.7l-3.9-12.4H342L337.8,393.4z M345.4,370.6h15.4l-7.5-23.9
			h-0.1L345.4,370.6z"/>
		<path class="st0" d="M420.5,353.1c-1-3.6-2.9-10.4-13.3-10.4c-6.1,0-15,4-15,21.1c0,10.8,4.3,20.6,15,20.6c7,0,11.9-4,13.3-11.4
			h12.6c-2.5,13.1-11.1,22.3-26.2,22.3c-16.1,0-27.6-10.8-27.6-31.7c0-21.1,12.2-31.9,27.8-31.9c18,0,25.3,12.5,26,21.3H420.5z"/>
		<polygon class="st0" points="481.6,343.8 450,343.8 450,356.5 477.9,356.5 477.9,367.1 450,367.1 450,382.8 481.6,382.8 
			481.6,393.4 438.2,393.4 438.2,333.1 481.6,333.1 		"/>
		<path class="st0" d="M633.5,339.9c0-77.3-62.5-139.8-139.8-139.8h-2.8v60.3h2.8c45,0,81.4,36.1,82,81h0v52.1h57.9V339.9z"/>
		<path class="st0" d="M493.7,333.1h-2.8v60.3h28.9v-34.2C519.9,344.8,508.2,333.1,493.7,333.1"/>
		<path class="st0" d="M569.5,342c-0.2-41.7-34-75.4-75.7-75.5h-2.8v0v60.3h2.8c17.9,0,32.4,14.5,32.4,32.4v34.2h43.4V342z"/>
	</g>
</g>
</svg>
