<?xml version="1.0" encoding="utf-8"?>
<!-- Generator: Adobe Illustrator 20.1.0, SVG Export Plug-In . SVG Version: 6.00 Build 0)  -->
<svg version="1.1" id="Calque_1" xmlns="http://www.w3.org/2000/svg" xmlns:xlink="http://www.w3.org/1999/xlink" x="0px" y="0px"
	 viewBox="0 0 425.2 195.2" style="enable-background:new 0 0 425.2 195.2;" xml:space="preserve">
<style type="text/css">
	.st0{fill:#002337;}
</style>
<g>
	<g>
		<polygon class="st0" points="153,60.3 140.5,60.3 140.5,10.7 122.2,10.7 122.2,0 171.3,0 171.3,10.7 153,10.7 		"/>
		<polygon class="st0" points="188.4,33.3 188.4,60.3 175.8,60.3 175.8,0 188.4,0 188.4,22.9 211.9,22.9 211.9,0 224.5,0 
			224.5,60.3 211.9,60.3 211.9,33.3 		"/>
		<polygon class="st0" points="273.3,10.7 241.6,10.7 241.6,23.4 269.5,23.4 269.5,34 241.6,34 241.6,49.7 273.3,49.7 273.3,60.3 
			229.9,60.3 229.9,0 273.3,0 		"/>
		<polygon class="st0" points="37.4,66.5 49.2,66.5 49.2,126.9 36.6,126.9 11.9,83.9 11.8,83.9 11.8,126.9 0,126.9 0,66.5 
			13.3,66.5 37.2,108.6 37.4,108.6 		"/>
		<path class="st0" d="M83.9,64.9c8,0,29,3.5,29,31.8c0,28.3-21,31.8-29,31.8c-8,0-29-3.5-29-31.8C54.9,68.4,75.9,64.9,83.9,64.9
			 M83.9,117.8c6.8,0,16.4-4.2,16.4-21.1c0-16.9-9.6-21.1-16.4-21.1c-6.8,0-16.4,4.2-16.4,21.1C67.5,113.6,77.1,117.8,83.9,117.8"/>
		<polygon class="st0" points="201.8,126.9 189.2,126.9 189.2,77.2 170.9,77.2 170.9,66.5 220,66.5 220,77.2 201.8,77.2 		"/>
		<polygon class="st0" points="237.1,99.8 237.1,126.9 224.6,126.9 224.6,66.5 237.1,66.5 237.1,89.4 260.7,89.4 260.7,66.5 
			273.3,66.5 273.3,126.9 260.7,126.9 260.7,99.8 		"/>
		<path class="st0" d="M118.1,66.5h30.5c16,0,19,11.8,19,17.1c0,6.6-3.4,12.4-9.3,14.4c5,2.2,7.7,4,7.7,15.3c0,8.8,0,11,2.7,12v1.6
			h-14c-0.8-2.8-1.3-6-1.3-12.2c0-8.2-0.5-11.4-9.8-11.4h-13v23.6h-12.4V66.5z M145.3,93.1c6.6,0,9.7-2.3,9.7-8.2
			c0-3.2-1.4-7.9-8.8-7.9h-15.7v16.1H145.3z"/>
		<polygon class="st0" points="93.5,193.4 80.9,193.4 80.9,133.1 123.8,133.1 123.8,143.7 93.5,143.7 93.5,157.4 120,157.4 
			120,168.1 93.5,168.1 		"/>
		<path class="st0" d="M129.5,193.4h-13.3l21.5-60.3h14.5l21.3,60.3h-13.7l-3.9-12.4h-22.3L129.5,193.4z M137,170.6h15.4l-7.5-23.9
			h-0.1L137,170.6z"/>
		<path class="st0" d="M212.2,153c-1-3.6-2.9-10.4-13.3-10.4c-6.1,0-15,4-15,21.1c0,10.8,4.3,20.6,15,20.6c7,0,11.9-4,13.3-11.4
			h12.6c-2.5,13.1-11.1,22.3-26.2,22.3c-16.1,0-27.6-10.8-27.6-31.7c0-21.1,12.2-31.9,27.8-31.9c18,0,25.3,12.5,26,21.3H212.2z"/>
		<polygon class="st0" points="273.3,143.7 241.6,143.7 241.6,156.4 269.5,156.4 269.5,167.1 241.6,167.1 241.6,182.8 273.3,182.8 
			273.3,193.4 229.9,193.4 229.9,133.1 273.3,133.1 		"/>
		<path class="st0" d="M425.2,139.8C425.2,62.6,362.7,0,285.4,0h-2.8v60.3h2.8c45,0,81.4,36.1,82,81h0v52.1h57.9V139.8z"/>
		<path class="st0" d="M285.4,133.1h-2.8v60.3h28.9v-34.2C311.5,144.8,299.8,133.1,285.4,133.1"/>
		<path class="st0" d="M361.1,142c-0.2-41.7-34-75.4-75.7-75.5h-2.8v0v60.3h2.8c17.9,0,32.4,14.5,32.4,32.4v34.2h43.4V142z"/>
	</g>
</g>
</svg>
