<?xml version="1.0" encoding="utf-8"?>
<!-- Generator: Adobe Illustrator 20.1.0, SVG Export Plug-In . SVG Version: 6.00 Build 0)  -->
<svg version="1.1" id="Calque_1" xmlns="http://www.w3.org/2000/svg" xmlns:xlink="http://www.w3.org/1999/xlink" x="0px" y="0px"
	 viewBox="0 0 566.9 200.4" style="enable-background:new 0 0 566.9 200.4;" xml:space="preserve">
<style type="text/css">
	.st0{fill:#002337;}
</style>
<path class="st0" d="M411.7,46c6.3,1.5,10.1,8.8,7.1,20.5c0,0-5,21.1-6,26.4c-1,5.3,9,7.5,12,0.1c3-7.4,7.4-27.8,8.3-30.6
	c4-11.9,12-13.9,22.5-11.2c10.2,2.6,14.6,4.5,22,0.5c10.2-5.6,17.4,8.5,6.3,13.7c-10.9,5.2-18.1,0.2-25-4.7
	c-6.8-4.8-10.6-1.9-12.4,3c-1.5,4.1-4.2,13.5-8.5,29.1c-3.5,12.7-16.1,17.6-24.7,17c-7.9-0.6-15.1-5.6-11.7-19.7
	c2.1-8.6,3.5-14.2,3.5-14.2c0.9-4,4.9-14.7,3.2-18.8c-1.5-3.8-8.9-2.1-9.6,5.1c-1,9.4-18.7,7-10.2-6.1C398,41.8,411.7,46,411.7,46z
	 M121.2,96.6c0.1-7.3-1.3-36.1-2-53.8c-0.2-5.6,0.7-5.3,5.6-9.4c4.5-3.7-0.5-9.9-18.9-9.6C89.3,24,86.8,31.6,90.8,34.1
	c4,2.5,4.5,4.8,2.2,12.1s-15.9,60.9-19.6,75.6c-3,11.8-3.3,8.7-3.8,2.3c-0.7-7.6-3.1-37.6-6.4-72.1c-2.8-29,13.5-15.8,17.9-24
	c3.5-6.6,1.4-13.4-18.5-14.3c-24.9-1-47.1,0.6-57.1,18.2C-5.9,51.9,0.8,75.7,22.1,77.2C39.6,78.4,46.6,58.1,39,54
	c-9.1-4.8-12.6,4.1-17.5,1c-5.2-3.2-2.1-15.9,4.9-20.1c10.2-6.1,16.2,1.4,17.4,15.3c1.3,14.9,7.7,91.9,10.4,107.5
	c2.6,14.9,25.1,14.5,29,0.6c3.6-13,8.7-28.9,13.3-47.5c3.9-15.5,7.2-33.3,7.4-29.5c0.4,5.9,0.4,12.9,0.3,31.4
	c-0.1,12.5,1.4,17.4,5,20.8c5.4,5.2,16.3,5.6,22.8-7.4c6.2-12.5,21.7-50.9,36.4-77.7c12.2-22.2,30.8-30,47.3-21.5
	c22.1,11.5,32.4-3.7,16.3-18.2c-13.6-12.2-54.4-17.5-75.2,23.8c-9.1,18-18.7,37.6-27.4,58.1C121.3,109.7,121.1,104.7,121.2,96.6z
	 M201.3,33.4c-12.2,0-25.3,11.4-29.2,25.5s2.8,25.5,15,25.5s25.3-11.4,29.2-25.5C220.3,44.8,213.6,33.4,201.3,33.4z M202,59.3
	c-1.8,6-6.8,10.6-11.1,10.4s-6.4-5.3-4.6-11.3c1.8-6,6.8-10.6,11.1-10.4C201.8,48.3,203.8,53.4,202,59.3z M219,71.6
	c0,0-3.1,1.4-6,3.5c-4.1,3-2.5,5.7-1.2,6.7c1.2,1,9.4,1.2,17.1,1s8.9-6,6-9.2c-3-3.2-1.5-5.6,2.3-16.2c3.7-10.5,12.4-11.2,12.9-6.7
	c0.5,4.5-3.5,16.7-6.2,19.9c-2.7,3.2-5.5,4.8-5.1,8.3c0.4,3.5,2.7,4.1,13.3,3.9c11.2-0.3,10.3-6,8.4-10.2s-0.6-12.8,5.3-19.1
	c6.7-7.2,11-3.5,8.7,3.4c-2.2,6.9-4,12.9-9.7,21.1c-5.7,8.2,3.5,6.9,11.4,1.5s14.1-9.4,13.4-14.1c-0.7-4.7-5.3-1.4-5.3-1.4
	s0-1.3,3.5-12c3.5-10.7,2.5-16.3-4.6-17.2c-9-1.1-18.6,8.1-18.6,8.1s3.3-6.9-5.1-7.9c-8.4-1-18.4,4.9-18.4,4.9s0.8-1.5,0.8-3.3
	c0.1-3.8-4-4.7-11.9-0.2c-7.9,4.5-11.2,6.7-10.4,11.4s6.2,3.7,6.2,3.7L219,71.6z M302.8,62.7c0,0,8.3,0,16.6,0c3.3,0,9-1.2,12-5.6
	c4.1-5.9,5.2-13.3-2.7-18.6c-11-7.4-32.1,0.8-38.3,18.6C284.2,75,299.3,87,314.4,82c15-5,16.3-14.5,12.5-16.8s-9.8,5.5-17,5.5
	S302.8,62.7,302.8,62.7z M305.1,52.9c0,0,4.3-7.3,12.3-6.8c6.3,0.4,6.8,6.5-0.8,6.8C309.9,53.2,305.1,52.9,305.1,52.9z M380.5,136.2
	c0,0,11.6,0,19.6-0.1c10.8-0.2,15.8-16.4,6.5-23.8c-11.8-9.4-33.3,0.3-38,18.6c-4.5,17.6,8.6,28.7,23,23.9
	c14.5-4.8,15.7-14,12.1-16.2s-9.4,5.3-16.4,5.3S380.5,136.2,380.5,136.2z M382.7,126.7c0,0,4.1-7,11.8-6.5c6.1,0.4,6.5,6.3-0.7,6.5
	C387.2,127,382.7,126.7,382.7,126.7z M514.9,135.6c0,0,10.3,0.8,18.1-0.9c11.2-2.5,19.2-14.8,8.1-23.2c-10.3-7.8-31.6-1.8-38.3,18.7
	c-5.7,17.4,8.6,29,23.2,24.1c14.6-4.9,15.8-14.1,12.2-16.3s-9.5,5.4-16.6,5.4S514.9,135.6,514.9,135.6z M517.1,126.1
	c0,0,4.1-7.1,11.9-6.6c6.1,0.4,6.6,6.3-0.7,6.6C521.7,126.3,517.1,126.1,517.1,126.1z M256.3,90c-29.1,8.3-55.1-10.7-86.8,1.3
	c-19.3,7.3-32.5,34.1-20.6,46.7c11.9,12.6,29.4,4.5,34.8-2.7c5.4-7.2-1.3-13.9-7-11.2c-5.8,2.7-13,4.3-14.6-3.8
	c-1.1-5.5,4.2-13,12.9-16.9c9.5-3.4,21.3-5.2,18.7,7c-3.4,16.1-16.2,61.2-19.1,66.6c-2.9,5.4-11.4,9.4-11.4,16.8
	c0,7.4,6.3,9.4,16.1,1.8c9.7-7.6,19.5-14.6,24.2-19c4.7-4.3,5.8-9.9,2.2-12.8c-3.6-2.9-9.7,0.4-9.7,0.4s8.8-36.7,12.4-47.6
	c2.6-7.8,5.1-12.8,12.7-13.9c8.1,0.6,16.8,2.2,22.5,2.6c13.9,0.9,26.9-2.4,28.2-9.2C272.9,89.3,263.8,87.9,256.3,90z M215.5,143.8
	c-1.9,4.2-10.8,4.2-8.1,10.8c1,2.4,3.4,2.8,12.7,2.8c6.9,0.1,11.2,0.1,12.3-2.8c1.1-3-1.1-5.5-3.1-8.2c-2-2.6,0.2-11.3,5.6-17.6
	c5.5-6.4,12.2-6.7,10.7,0.2c-1.5,6.9-2.7,13.7-6.2,17.1c-4.4,4.2-7.1,7.6-4.7,10.5s6.4,2.6,14.8-3.6c5.6-4.2,10.9-7.2,10.2-11
	c-0.7-3.8-4.5-3.1-4.5-3.1l4.3-13.9c3.1-9.5-0.1-15.7-8.7-14.6c-8.5,1.1-15.3,7.3-15.3,7.3s3.3-4.2,1.5-6.4c-1.8-2.2-4.4-2-15.1,4.5
	c-10.7,6.5-7.5,11.3-4.5,10.9s4.1,0.1,2.8,3.8C220.1,130.5,216.7,141.1,215.5,143.8z M414.6,142.1c-1.9,4.2-10.8,4.2-8.1,10.8
	c1,2.4,3.4,2.8,12.7,2.8c6.9,0.1,11.2,0.1,12.3-2.8c1.1-3-1.1-5.5-3.1-8.2c-2-2.6,0.2-11.3,5.6-17.6s12.2-6.7,10.7,0.2
	c-1.5,6.9-2.7,13.7-6.2,17.1c-4.4,4.2-7.1,7.6-4.7,10.5s6.4,2.6,14.8-3.6c5.6-4.2,10.9-7.2,10.2-11c-0.7-3.8-4.5-3.1-4.5-3.1
	l4.3-13.9c3.1-9.5-0.1-15.7-8.7-14.6c-8.5,1.1-15.3,7.3-15.3,7.3s3.3-4.2,1.5-6.4c-1.8-2.2-4.4-2-15.1,4.5
	c-10.7,6.5-7.5,11.3-4.5,10.9c2.9-0.4,4.1,0.1,2.8,3.8C419.2,128.9,415.8,139.5,414.6,142.1z M328.9,93.4c2.1-6.6-1.5-8.5-7.2-5.2
	c-3.8,2.2-8,7.3-9.7,9c-0.4-0.8-0.8-1.7-1.5-2.6c-5.9-8.1-24.6-8.1-31.4,4c-2,3.5-4.6,10.7-7.3,19.3c-1.3,0.2-3.3,0.5-4.5,1.1
	c-2,1-5.4,3.9-3.2,8.3c0.6,1.3,2,2.1,4.1,2.5c-3.8,12.8-8.7,26.1-11.2,34.2c-3.7,11.9-12,15.2-15.8,16.6c-10.5,3.7-10,21.2,5,16.7
	c18.3-5.5,22.6-22.7,29-46c2.4-8.6,4.4-15.5,6.2-21.2c0.5,0,0.9,0,1.4,0c10-0.3,13-1.6,14.9-4.3c2.5-3.6,1.2-8-6-8.2
	c-2.2-0.1-4.3-0.1-6.2-0.1c1-3,1.8-5.7,2.6-8.3c2.9-9.5,9.1-8.8,9.5-2.8c0.4,4.5,2.8,5.6,5.9,5c2.6-0.5,5.3-2.1,7.1-4.3
	c0.6-0.4,0.8-0.2,0.4,1.4c-0.8,3.8-6.6,20.6-9.8,31c-2.7,9-5.8,6.3-10.4,10.9c-3.5,3.5-0.7,6.2,3.4,6.6c4.1,0.4,8.1,0,14.2,0
	c5.2,0,6.7-1.3,7.5-2.6c2.1-3.3-0.7-6.2-2.7-6.9c-2-0.7-0.1-3.3,1.2-8.9C315.8,133,326.7,100,328.9,93.4z M379.2,64.5
	c2.9-8.3,2.4-5.8,4.9-15s-2.5-15.2-7.9-15.2c-7.8,0-15.6,8.7-15.6,8.7s1.6-4.3-0.3-6.7c-1.8-2.5-5.8-2.5-11.9,2.6
	c-7.4,6.1-10.6,8.6-10.1,11.4c0.6,3.4,4.6,2.6,4.6,2.6s-2.5,7.5-4.1,12.9c-1.7,5.3-4.6,7.1-7.4,9.1c-2.9,2-4.8,8,0.4,8.4
	c5.2,0.4,11.2,0.1,15.7,0.1c8.5,0,11.8-6.3,8-10.3c-3.9-4-4.5-5.9,0.2-13.7c5.8-9.7,16.9-9.2,14.6-1.3s-4.7,12.2-7.4,17
	c-10.5,18.9-3.8,22-0.1,18.9c6.4-5.3,11.2-8.8,17.3-10.1c7.9-1.7,10.7,0.8,13.3,1c5.4,0.6,7.6-4.9,6.7-8.2
	c-1.3-4.8-9.5-8.3-18.1-1.7C371.9,82.6,377.3,69.9,379.2,64.5z M490.3,122.1c1,6,9.7,3.5,11.8-1.9s-1.2-13.2-16.2-11.6
	c-9.4,1-19.5,8.6-23.7,23.9c-3.2,11.8,4.3,22.9,15.3,22.6c10.9-0.3,23.9-10,19.6-15.8c-4.9-6.7-12.7,2.5-18.3,1.9
	c-5.6-0.6-5.6-8.1-1.3-14.6C481.1,121.1,489.6,117.9,490.3,122.1z M472.6,72.4c-0.7-1.4-2.3-2-4.7-2c-2.4,0-4.9,1-7.3,3.1
	c-0.6,0.5-1,0.8-1.2,0.8c-0.2,0-0.3-0.1-0.3-0.2c-0.1-0.1,0-0.3,0.1-0.6l0.2-0.7c0.2-0.7,0.2-1.3-0.1-1.8c-0.3-0.5-0.8-0.7-1.5-0.7
	c-0.5,0-0.9,0.1-1.4,0.2c-0.4,0.2-1,0.4-1.7,0.9l-5.2,3.3c-0.6,0.4-1.1,0.8-1.5,1.2c-0.3,0.4-0.6,0.9-0.8,1.4
	c-0.2,0.8-0.2,1.4,0.2,1.8c0.4,0.4,1.1,0.6,2,0.6h0.9l-2.5,8.2c-0.3,1.1-0.6,1.8-0.9,2.3c-0.3,0.5-0.7,0.8-1.1,1
	c-0.3,0.1-0.7,0.3-1.3,0.5c-1.6,0.7-2.7,1.6-3,2.9c-0.3,0.9-0.2,1.6,0.3,2.1c0.5,0.4,1.4,0.6,2.8,0.6h8c1.2,0,2.1-0.2,2.8-0.7
	c0.7-0.5,1.1-1.2,1.4-2.2c0.3-1.1-0.1-2-1.2-2.6c-0.4-0.2-0.6-0.4-0.8-0.5c-0.3-0.2-0.5-0.7-0.5-1.4c0-0.7,0.2-1.7,0.7-3.1
	c0.9-2.9,1.9-5.1,3.1-6.5c1.2-1.4,2.5-2.1,4.1-2.1c1.3,0,2.1,0.3,2.4,1c0.3,0.7,0.2,1.9-0.4,3.7l-1.9,6.2c-0.5,1.6-1.3,2.9-2.4,4.1
	c-1.1,1.2-1.7,2-1.8,2.5c-0.3,0.8-0.2,1.6,0.3,2.2c0.4,0.7,1,1,1.8,1c0.4,0,0.8-0.1,1.3-0.2c0.4-0.2,0.9-0.5,1.4-0.9l6.1-4.4
	l0.2-0.1c1.7-1.3,2.8-2.4,3.1-3.4c0.3-0.8,0.2-1.5-0.2-2c-0.4-0.5-0.9-0.8-1.7-0.8h-0.4l2.5-8.3C473.3,75.9,473.3,73.7,472.6,72.4z
	 M507,57.3c-0.2-0.5-0.8-0.8-1.7-0.8c-0.8,0-1.8,0.3-3,1l0,0l-5.3,2.8c-0.6,0.4-1.1,0.8-1.5,1.2c-0.3,0.4-0.6,0.9-0.8,1.5
	c-0.3,0.8-0.2,1.4,0.2,1.9c0.4,0.5,1,0.7,2,0.7h1.3l-1.7,7.3c-0.2,0.5-0.3,0.8-0.4,0.9c-0.1,0.1-0.3,0.1-0.5,0.1
	c0,0-0.7-0.4-1.9-1.3c-1.2-0.9-2.7-1.3-4.4-1.3c-3,0-6,1.3-8.8,3.8c-2.8,2.6-4.9,5.9-6.1,9.9c-1.3,4.1-1.4,7.5-0.3,10
	c1.1,2.5,3.1,3.8,6,3.8c1.9,0,3.6-0.5,5.1-1.5c1.5-1,2.5-2.2,3-3.8c0.3-0.9,0.3-1.6,0-2.1c-0.3-0.5-0.8-0.8-1.6-0.8
	c-0.2,0-0.5,0.1-1,0.2c-0.5,0.1-0.9,0.2-1.2,0.2c-1.3,0-2.2-0.6-2.7-1.7c-0.5-1.2-0.5-2.6,0-4.3c0.6-2.1,1.6-3.7,3-4.9
	c1.3-1.2,2.8-1.8,4.5-1.8c1.7,0,2.9,0.6,3.4,1.8c0.5,1.2,0.4,3-0.3,5.3l-2.5,8c-0.5,1.7-0.7,2.9-0.3,3.6c0.3,0.6,1.1,0.9,2.3,0.9
	h3.6c1,0,1.8-0.3,2.5-0.8c0.7-0.5,1.2-1.2,1.5-2.2c0.4-1.2,0.1-2.1-0.7-2.8c-0.4-0.3-0.6-0.5-0.7-0.7c-0.1-0.3-0.2-0.6-0.2-0.9
	c0-0.4,0.2-1,0.5-1.9l8.3-29C507.2,58.7,507.2,57.8,507,57.3z M525.2,86.5c1.1-0.8,1.9-2.1,2.5-4c0.9-3,0.6-5.5-1-7.6
	c-1.5-2.1-4-3.1-7.2-3.1c-3.8,0-7.2,1.3-10.3,3.8c-3.1,2.5-5.3,6-6.6,10.2c-1.2,3.9-1,7.2,0.6,9.6c1.6,2.5,4.4,3.7,8.2,3.7
	c2.8,0,5.4-0.7,7.8-2c2.4-1.3,3.8-2.8,4.3-4.4c0.3-1,0.3-1.8-0.1-2.5c-0.4-0.7-1-1-1.8-1c-0.6,0-1.8,0.5-3.6,1.6
	c-1.8,1.1-3.3,1.6-4.6,1.6c-1.4,0-2.5-0.5-3.3-1.4c-0.8-0.9-1.1-2.1-0.9-3.5h10.8C522.4,87.6,524.1,87.2,525.2,86.5z M510.8,82.5
	c0.6-1.4,1.5-2.5,2.8-3.4c1.3-0.9,2.7-1.4,4-1.4c1.3,0,2.2,0.3,2.8,0.8c0.6,0.5,0.8,1.2,0.5,2.1c-0.2,0.7-0.6,1.2-1.2,1.4
	c-0.6,0.3-1.6,0.4-3,0.4H510.8z M117.6,143.9c0.2-0.7,0.2-1.3,0-1.8c-0.3-0.5-0.7-0.7-1.3-0.7c-0.8,0-1.9,0.7-3.3,2.1
	c-0.9,0.8-1.5,1.5-2.1,1.9c-0.5,0.4-1.2,0.9-2,1.5c-1.7,1.2-2.7,2.3-3,3.3c-0.2,0.8-0.2,1.4,0.1,1.8c0.3,0.4,0.9,0.6,1.7,0.6h1.9
	l-2.7,8.8c-0.8,2.6-0.9,4.4-0.3,5.5c0.6,1.1,1.9,1.7,4,1.7c1.6,0,3.2-0.5,4.6-1.4c1.4-0.9,2.4-2.1,2.8-3.4c0.3-0.8,0.2-1.5-0.1-2
	c-0.3-0.5-0.8-0.8-1.5-0.8c-0.6,0-1.2,0.3-2,0.8c-0.8,0.6-1.3,0.8-1.6,0.8c-0.3,0-0.5-0.1-0.5-0.4c0-0.3,0.1-0.8,0.3-1.6l2.4-7.9
	h3.5c1,0,1.8-0.2,2.4-0.6c0.6-0.4,1.1-1,1.3-1.8c0.2-0.8,0.2-1.4-0.2-1.8c-0.4-0.4-1.1-0.6-2-0.6h-3.5l0.8-2.8L117.6,143.9z
	 M135.6,137.7c-0.2-0.4-0.6-0.5-1.3-0.5c-0.3,0-0.7,0.1-1,0.1c-0.3,0.1-0.8,0.3-1.3,0.7l-4,2.5c-0.5,0.3-0.9,0.6-1.2,0.9
	c-0.3,0.3-0.4,0.7-0.6,1.1c-0.2,0.6-0.1,1.1,0.1,1.4c0.3,0.3,0.8,0.5,1.6,0.5h0.7l-4.9,16.2c-0.3,0.8-0.5,1.4-0.7,1.8
	c-0.2,0.4-0.5,0.6-0.8,0.8c-0.2,0.1-0.5,0.2-0.9,0.4c-1.3,0.5-2.2,1.3-2.5,2.2c-0.2,0.7-0.1,1.2,0.3,1.6c0.4,0.3,1.1,0.5,2.2,0.5
	h6.1c0.9,0,1.6-0.2,2.1-0.5c0.5-0.4,0.9-0.9,1.1-1.7c0.3-0.8-0.1-1.5-0.9-2c-0.3-0.2-0.5-0.3-0.6-0.4c-0.3-0.2-0.4-0.5-0.3-1.1
	c0-0.5,0.2-1.4,0.6-2.5c0.7-2.3,1.5-4,2.4-5c0.9-1,2-1.5,3.3-1.5c1,0,1.6,0.3,1.8,0.8c0.2,0.5,0.1,1.5-0.3,2.9l-1.4,4.7
	c-0.4,1.2-1,2.3-1.8,3.2c-0.8,0.9-1.3,1.5-1.4,1.9c-0.2,0.6-0.1,1.2,0.2,1.7c0.3,0.5,0.8,0.8,1.4,0.8c0.3,0,0.6,0,0.9-0.1
	c0.3-0.1,0.7-0.3,1.2-0.7l4.7-3.4l0.2-0.1c1.3-1,2.1-1.8,2.4-2.6c0.2-0.6,0.2-1.2-0.1-1.6c-0.3-0.4-0.7-0.6-1.3-0.6h-0.3l1.9-6.4
	c0.7-2.3,0.8-4,0.2-5c-0.5-1-1.7-1.6-3.6-1.6c-1.9,0-3.9,0.8-6,2.5c-0.4,0.4-0.7,0.5-0.8,0.5c-0.1,0-0.2,0-0.3-0.1
	c0-0.1,0-0.2,0.1-0.5l3-9.7C135.7,138.7,135.8,138,135.6,137.7z M163.7,158.5c0.8-0.6,1.5-1.6,1.9-3.2c0.7-2.3,0.5-4.3-0.7-6
	c-1.2-1.6-3.1-2.4-5.7-2.4c-3,0-5.7,1-8.1,3c-2.4,2-4.1,4.7-5.2,8c-0.9,3.1-0.8,5.6,0.5,7.6c1.3,2,3.4,2.9,6.5,2.9
	c2.2,0,4.3-0.5,6.1-1.6c1.9-1,3-2.2,3.4-3.5c0.2-0.8,0.2-1.4-0.1-2c-0.3-0.5-0.7-0.8-1.4-0.8c-0.5,0-1.4,0.4-2.8,1.3
	c-1.4,0.8-2.6,1.3-3.6,1.3c-1.1,0-2-0.4-2.6-1.1c-0.6-0.7-0.9-1.6-0.7-2.8h8.5C161.5,159.4,162.8,159.1,163.7,158.5z M152.4,155.4
	c0.5-1.1,1.2-2,2.2-2.7c1-0.7,2.1-1.1,3.2-1.1c1,0,1.7,0.2,2.2,0.6c0.5,0.4,0.6,1,0.4,1.7c-0.2,0.5-0.5,0.9-1,1.1
	c-0.5,0.2-1.3,0.3-2.3,0.3H152.4z M383.6,103.4c10.6-4.1,11.9-11.2,6.3-15c-7.1-4.9-26.4,4.8-32.2,24.4c-2.8,9.6-4.6,16.4-4.6,16.4
	c-0.3,0.9-0.6,1.8-0.8,2.5c-2.3,7-8.8,11.8-12.8,11.3c-1.1-0.1-2.8-0.4-1.6-6.2c0,0,2.9-10.7,4.7-17.8s1.6-14.8-5.5-14.8
	c-7,0-11.4,3.3-11.7,7.8c-0.3,4.5,2,4.4,4.1,4.8s1.1,4.2,1.1,4.2c-0.8,2.8-5.1,17.1-6.2,21.6c-2.7,11.1,4.4,16,13.5,12.7
	c7.8-2.8,10.6-7.3,8.7-3.6c-1.9,3.7,0.9,4.4,6,4.3c8.6-0.2,12.1-1.7,12.5-4.5c0.3-2.8-5.1-2.5-1.1-17.7
	C364.3,133,367.8,109.4,383.6,103.4z M528.6,92.6c-3.9,1.3-3.1,6-1,5.9c1-0.1,5.5,0.1,10.8,0.1c4.3,0,5.2-2.7,2.8-5.1
	c-2.4-2.4-1.6-3,0.1-10.7c1.2-5.6,10.7-13.4,16.6-10.2c5.6,3.1,10.3-1.4,8.8-6.2c-1.6-5-12-3.5-17.7,0.2c-6.4,4.2-7.3,8.1-8.5,5.7
	c-1.6-3.2-5.8,0.6-9.5,4.5c-2.9,3.1-0.1,5.3,2.6,4.8C533.6,81.7,532.6,91.3,528.6,92.6z"/>
</svg>
