<?xml version="1.0" encoding="utf-8"?>
<!-- Generator: Adobe Illustrator 21.1.0, SVG Export Plug-In . SVG Version: 6.00 Build 0)  -->
<svg version="1.1" id="Calque_1" xmlns="http://www.w3.org/2000/svg" xmlns:xlink="http://www.w3.org/1999/xlink" x="0px" y="0px"
	 viewBox="0 0 841.9 595.3" style="enable-background:new 0 0 841.9 595.3;" xml:space="preserve">
<style type="text/css">
	.st0{fill:#002337;}
</style>
<path class="st0" d="M549.2,243.4c6.3,1.5,10.1,8.8,7.1,20.5c0,0-5,21.1-6,26.4c-1,5.3,9,7.5,12,0.1c3-7.4,7.4-27.8,8.3-30.6
	c4-11.9,12-13.9,22.5-11.2c10.2,2.6,14.6,4.5,22,0.5c10.2-5.6,17.4,8.5,6.3,13.7c-10.9,5.2-18.1,0.2-25-4.7
	c-6.8-4.8-10.6-1.9-12.4,3c-1.5,4.1-4.2,13.5-8.5,29.1c-3.5,12.7-16.1,17.6-24.7,17c-7.9-0.6-15.1-5.6-11.7-19.7
	c2.1-8.6,3.5-14.2,3.5-14.2c0.9-4,4.9-14.7,3.2-18.8c-1.5-3.8-8.9-2.1-9.6,5.1c-1,9.4-18.7,7-10.2-6.1
	C535.5,239.2,549.2,243.4,549.2,243.4z M258.6,294.1c0.1-7.3-1.3-36.1-2-53.8c-0.2-5.6,0.7-5.3,5.6-9.4c4.5-3.7-0.5-9.9-18.9-9.6
	c-16.6,0.2-19.1,7.8-15.1,10.3c4,2.5,4.5,4.8,2.2,12.1c-2.3,7.3-15.9,60.9-19.6,75.6c-3,11.8-3.3,8.7-3.8,2.3
	c-0.7-7.6-3.1-37.6-6.4-72.1c-2.8-29,13.5-15.8,17.9-24c3.5-6.6,1.4-13.4-18.5-14.3c-24.9-1-47.1,0.6-57.1,18.2
	c-11.3,19.8-4.7,43.7,16.7,45.1c17.4,1.2,24.5-19.1,16.9-23.1c-9.1-4.8-12.6,4.1-17.5,1c-5.2-3.2-2.1-15.9,4.9-20.1
	c10.2-6.1,16.2,1.4,17.4,15.3c1.3,14.9,7.7,91.9,10.4,107.5c2.6,14.9,25.1,14.5,29,0.6c3.6-13,8.7-28.9,13.3-47.5
	c3.9-15.5,7.2-33.3,7.4-29.5c0.4,5.9,0.4,12.9,0.3,31.4c-0.1,12.5,1.4,17.4,5,20.8c5.4,5.2,16.3,5.6,22.8-7.4
	c6.2-12.5,21.7-50.9,36.4-77.7c12.2-22.2,30.8-30,47.3-21.5c22.1,11.5,32.4-3.7,16.3-18.2c-13.6-12.2-54.4-17.5-75.2,23.8
	c-9.1,18-18.7,37.6-27.4,58.1C258.8,307.2,258.6,302.1,258.6,294.1z M338.8,230.8c-12.2,0-25.3,11.4-29.2,25.5
	c-3.9,14.1,2.8,25.5,15,25.5s25.3-11.4,29.2-25.5C357.7,242.2,351,230.8,338.8,230.8z M339.5,256.8c-1.8,6-6.8,10.6-11.1,10.4
	c-4.3-0.3-6.4-5.3-4.6-11.3c1.8-6,6.8-10.6,11.1-10.4S341.3,250.8,339.5,256.8z M356.5,269c0,0-3.1,1.4-6,3.5
	c-4.1,3-2.5,5.7-1.2,6.7c1.2,1,9.4,1.2,17.1,1s8.9-6,6-9.2s-1.5-5.6,2.3-16.2c3.7-10.5,12.4-11.2,12.9-6.7
	c0.5,4.5-3.5,16.7-6.2,19.9c-2.7,3.2-5.5,4.8-5.1,8.3c0.4,3.5,2.7,4.1,13.3,3.9c11.2-0.3,10.3-6,8.4-10.2c-2-4.2-0.6-12.8,5.3-19.1
	c6.7-7.2,11-3.5,8.7,3.4c-2.2,6.9-4,12.9-9.7,21.1c-5.7,8.2,3.5,6.9,11.4,1.5c7.9-5.5,14.1-9.4,13.4-14.1c-0.7-4.7-5.3-1.4-5.3-1.4
	s0-1.3,3.5-12c3.5-10.7,2.5-16.3-4.6-17.2c-9-1.1-18.6,8.1-18.6,8.1s3.3-6.9-5.1-7.9c-8.4-1-18.4,4.9-18.4,4.9s0.8-1.5,0.8-3.3
	c0.1-3.8-4-4.7-11.9-0.2s-11.2,6.7-10.4,11.4c0.7,4.7,6.2,3.7,6.2,3.7L356.5,269z M440.3,260.1c0,0,8.3,0,16.6,0c3.3,0,9-1.2,12-5.6
	c4.1-5.9,5.2-13.3-2.7-18.6c-11-7.4-32.1,0.8-38.3,18.6s8.9,29.8,23.9,24.8s16.3-14.5,12.5-16.8s-9.8,5.5-17,5.5
	S440.3,260.1,440.3,260.1z M442.6,250.4c0,0,4.3-7.3,12.3-6.8c6.3,0.4,6.8,6.5-0.8,6.8C447.3,250.6,442.6,250.4,442.6,250.4z
	 M518,333.6c0,0,11.6,0,19.6-0.1c10.8-0.2,15.8-16.4,6.5-23.8c-11.8-9.4-33.3,0.3-38,18.6c-4.5,17.6,8.6,28.7,23,23.9
	s15.7-14,12.1-16.2c-3.6-2.2-9.4,5.3-16.4,5.3S518,333.6,518,333.6z M520.1,324.2c0,0,4.1-7,11.8-6.5c6.1,0.4,6.5,6.3-0.7,6.5
	C524.7,324.4,520.1,324.2,520.1,324.2z M652.4,333c0,0,10.3,0.8,18.1-0.9c11.2-2.5,19.2-14.8,8.1-23.2c-10.3-7.8-31.6-1.8-38.3,18.7
	c-5.7,17.4,8.6,29,23.2,24.1s15.8-14.1,12.2-16.3s-9.5,5.4-16.6,5.4S652.4,333,652.4,333z M654.6,323.5c0,0,4.1-7.1,11.9-6.6
	c6.1,0.4,6.6,6.3-0.7,6.6C659.2,323.7,654.6,323.5,654.6,323.5z M393.8,287.4c-29.1,8.3-55.1-10.7-86.8,1.3
	c-19.3,7.3-32.5,34.1-20.6,46.7c11.9,12.6,29.4,4.5,34.8-2.7c5.4-7.2-1.3-13.9-7-11.2c-5.8,2.7-13,4.3-14.6-3.8
	c-1.1-5.5,4.2-13,12.9-16.9c9.5-3.4,21.3-5.2,18.7,7c-3.4,16.1-16.2,61.2-19.1,66.6c-2.9,5.4-11.4,9.4-11.4,16.8
	c0,7.4,6.3,9.4,16.1,1.8c9.7-7.6,19.5-14.6,24.2-19c4.7-4.3,5.8-9.9,2.2-12.8c-3.6-2.9-9.7,0.4-9.7,0.4s8.8-36.7,12.4-47.6
	c2.6-7.8,5.1-12.8,12.7-13.9c8.1,0.6,16.8,2.2,22.5,2.6c13.9,0.9,26.9-2.4,28.2-9.2C410.4,286.7,401.2,285.3,393.8,287.4z
	 M353,341.2c-1.9,4.2-10.8,4.2-8.1,10.8c1,2.4,3.4,2.8,12.7,2.8c6.9,0.1,11.2,0.1,12.3-2.8c1.1-3-1.1-5.5-3.1-8.2
	c-2-2.6,0.2-11.3,5.6-17.6c5.5-6.4,12.2-6.7,10.7,0.2c-1.5,6.9-2.7,13.7-6.2,17.1c-4.4,4.2-7.1,7.6-4.7,10.5
	c2.4,2.9,6.4,2.6,14.8-3.6c5.6-4.2,10.9-7.2,10.2-11s-4.5-3.1-4.5-3.1l4.3-13.9c3.1-9.5-0.1-15.7-8.7-14.6
	c-8.5,1.1-15.3,7.3-15.3,7.3s3.3-4.2,1.5-6.4c-1.8-2.2-4.4-2-15.1,4.5c-10.7,6.5-7.5,11.3-4.5,10.9c2.9-0.4,4.1,0.1,2.8,3.8
	C357.5,328,354.2,338.5,353,341.2z M552.1,339.6c-1.9,4.2-10.8,4.2-8.1,10.8c1,2.4,3.4,2.8,12.7,2.8c6.9,0.1,11.2,0.1,12.3-2.8
	c1.1-3-1.1-5.5-3.1-8.2c-2-2.6,0.2-11.3,5.6-17.6c5.5-6.4,12.2-6.7,10.7,0.2c-1.5,6.9-2.7,13.7-6.2,17.1c-4.4,4.2-7.1,7.6-4.7,10.5
	c2.4,2.9,6.4,2.6,14.8-3.6c5.6-4.2,10.9-7.2,10.2-11c-0.7-3.8-4.5-3.1-4.5-3.1l4.3-13.9c3.1-9.5-0.1-15.7-8.7-14.6
	c-8.5,1.1-15.3,7.3-15.3,7.3s3.3-4.2,1.5-6.4c-1.8-2.2-4.4-2-15.1,4.5c-10.7,6.5-7.5,11.3-4.5,10.9s4.1,0.1,2.8,3.8
	C556.6,326.4,553.3,336.9,552.1,339.6z M466.3,290.9c2.1-6.6-1.5-8.5-7.2-5.2c-3.8,2.2-8,7.3-9.7,9c-0.4-0.8-0.8-1.7-1.5-2.6
	c-5.9-8.1-24.6-8.1-31.4,4c-2,3.5-4.6,10.7-7.3,19.3c-1.3,0.2-3.3,0.5-4.5,1.1c-2,1-5.4,3.9-3.2,8.3c0.6,1.3,2,2.1,4.1,2.5
	c-3.8,12.8-8.7,26.1-11.2,34.2c-3.7,11.9-12,15.2-15.8,16.6c-10.5,3.7-10,21.2,5,16.7c18.3-5.5,22.6-22.7,29-46
	c2.4-8.6,4.4-15.5,6.2-21.2c0.5,0,0.9,0,1.4,0c10-0.3,13-1.6,14.9-4.3c2.5-3.6,1.2-8-6-8.2c-2.2-0.1-4.3-0.1-6.2-0.1
	c1-3,1.8-5.7,2.6-8.3c2.9-9.5,9.1-8.8,9.5-2.8c0.4,4.5,2.8,5.6,5.9,5c2.6-0.5,5.3-2.1,7.1-4.3c0.6-0.4,0.8-0.2,0.4,1.4
	c-0.8,3.8-6.6,20.6-9.8,31c-2.7,9-5.8,6.3-10.4,10.9c-3.5,3.5-0.7,6.2,3.4,6.6c4.1,0.4,8.1,0,14.2,0c5.2,0,6.7-1.3,7.5-2.6
	c2.1-3.3-0.7-6.2-2.7-6.9c-2-0.7-0.1-3.3,1.2-8.9C453.2,330.5,464.2,297.5,466.3,290.9z M516.6,262c2.9-8.3,2.4-5.8,4.9-15
	s-2.5-15.2-7.9-15.2c-7.8,0-15.6,8.7-15.6,8.7s1.6-4.3-0.3-6.7c-1.8-2.5-5.8-2.5-11.9,2.6c-7.4,6.1-10.6,8.6-10.1,11.4
	c0.6,3.4,4.6,2.6,4.6,2.6s-2.5,7.5-4.1,12.9s-4.6,7.1-7.4,9.1c-2.9,2-4.8,8,0.4,8.4c5.2,0.4,11.2,0.1,15.7,0.1
	c8.5,0,11.8-6.3,8-10.3c-3.9-4-4.5-5.9,0.2-13.7c5.8-9.7,16.9-9.2,14.6-1.3s-4.7,12.2-7.4,17c-10.5,18.9-3.8,22-0.1,18.9
	c6.4-5.3,11.2-8.8,17.3-10.1c7.9-1.7,10.7,0.8,13.3,1c5.4,0.6,7.6-4.9,6.7-8.2c-1.3-4.8-9.5-8.3-18.1-1.7
	C509.4,280,514.8,267.3,516.6,262z M627.8,319.5c1,6,9.7,3.5,11.8-1.9c2.1-5.3-1.2-13.2-16.2-11.6c-9.4,1-19.5,8.6-23.7,23.9
	c-3.2,11.8,4.3,22.9,15.3,22.6c10.9-0.3,23.9-10,19.6-15.8c-4.9-6.7-12.7,2.5-18.3,1.9c-5.6-0.6-5.6-8.1-1.3-14.6
	C618.6,318.5,627.1,315.4,627.8,319.5z M610.1,269.8c-0.7-1.4-2.3-2-4.7-2c-2.4,0-4.9,1-7.3,3.1c-0.6,0.5-1,0.8-1.2,0.8
	c-0.2,0-0.3-0.1-0.3-0.2c-0.1-0.1,0-0.3,0.1-0.6l0.2-0.7c0.2-0.7,0.2-1.3-0.1-1.8c-0.3-0.5-0.8-0.7-1.5-0.7c-0.5,0-0.9,0.1-1.4,0.2
	c-0.4,0.2-1,0.4-1.7,0.9l-5.2,3.3c-0.6,0.4-1.1,0.8-1.5,1.2c-0.3,0.4-0.6,0.9-0.8,1.4c-0.2,0.8-0.2,1.4,0.2,1.8
	c0.4,0.4,1.1,0.6,2,0.6h0.9l-2.5,8.2c-0.3,1.1-0.6,1.8-0.9,2.3c-0.3,0.5-0.7,0.8-1.1,1c-0.3,0.1-0.7,0.3-1.3,0.5
	c-1.6,0.7-2.7,1.6-3,2.9c-0.3,0.9-0.2,1.6,0.3,2.1s1.4,0.6,2.8,0.6h8c1.2,0,2.1-0.2,2.8-0.7c0.7-0.5,1.1-1.2,1.4-2.2
	c0.3-1.1-0.1-2-1.2-2.6c-0.4-0.2-0.6-0.4-0.8-0.5c-0.3-0.2-0.5-0.7-0.5-1.4c0-0.7,0.2-1.7,0.7-3.1c0.9-2.9,1.9-5.1,3.1-6.5
	c1.2-1.4,2.5-2.1,4.1-2.1c1.3,0,2.1,0.3,2.4,1c0.3,0.7,0.2,1.9-0.4,3.7l-1.9,6.2c-0.5,1.6-1.3,2.9-2.4,4.1c-1.1,1.2-1.7,2-1.8,2.5
	c-0.3,0.8-0.2,1.6,0.3,2.2c0.4,0.7,1,1,1.8,1c0.4,0,0.8-0.1,1.3-0.2c0.4-0.2,0.9-0.5,1.4-0.9l6.1-4.4l0.2-0.1
	c1.7-1.3,2.8-2.4,3.1-3.4c0.3-0.8,0.2-1.5-0.2-2c-0.4-0.5-0.9-0.8-1.7-0.8h-0.4l2.5-8.3C610.7,273.3,610.8,271.2,610.1,269.8z
	 M644.5,254.8c-0.2-0.5-0.8-0.8-1.7-0.8c-0.8,0-1.8,0.3-3,1l0,0l-5.3,2.8c-0.6,0.4-1.1,0.8-1.5,1.2c-0.3,0.4-0.6,0.9-0.8,1.5
	c-0.3,0.8-0.2,1.4,0.2,1.9c0.4,0.5,1,0.7,2,0.7h1.3l-1.7,7.3c-0.2,0.5-0.3,0.8-0.4,0.9c-0.1,0.1-0.3,0.1-0.5,0.1
	c0,0-0.7-0.4-1.9-1.3c-1.2-0.9-2.7-1.3-4.4-1.3c-3,0-6,1.3-8.8,3.8c-2.8,2.6-4.9,5.9-6.1,9.9c-1.3,4.1-1.4,7.5-0.3,10
	c1.1,2.5,3.1,3.8,6,3.8c1.9,0,3.6-0.5,5.1-1.5c1.5-1,2.5-2.2,3-3.8c0.3-0.9,0.3-1.6,0-2.1c-0.3-0.5-0.8-0.8-1.6-0.8
	c-0.2,0-0.5,0.1-1,0.2c-0.5,0.1-0.9,0.2-1.2,0.2c-1.3,0-2.2-0.6-2.7-1.7c-0.5-1.2-0.5-2.6,0-4.3c0.6-2.1,1.6-3.7,3-4.9
	c1.3-1.2,2.8-1.8,4.5-1.8c1.7,0,2.9,0.6,3.4,1.8c0.5,1.2,0.4,3-0.3,5.3l-2.5,8c-0.5,1.7-0.7,2.9-0.3,3.6c0.3,0.6,1.1,0.9,2.3,0.9
	h3.6c1,0,1.8-0.3,2.5-0.8c0.7-0.5,1.2-1.2,1.5-2.2c0.4-1.2,0.1-2.1-0.7-2.8c-0.4-0.3-0.6-0.5-0.7-0.7c-0.1-0.3-0.2-0.6-0.2-0.9
	c0-0.4,0.2-1,0.5-1.9l8.3-29C644.7,256.1,644.7,255.3,644.5,254.8z M662.7,283.9c1.1-0.8,1.9-2.1,2.5-4c0.9-3,0.6-5.5-1-7.6
	c-1.5-2.1-4-3.1-7.2-3.1c-3.8,0-7.2,1.3-10.3,3.8c-3.1,2.5-5.3,6-6.6,10.2c-1.2,3.9-1,7.2,0.6,9.6c1.6,2.5,4.4,3.7,8.2,3.7
	c2.8,0,5.4-0.7,7.8-2c2.4-1.3,3.8-2.8,4.3-4.4c0.3-1,0.3-1.8-0.1-2.5c-0.4-0.7-1-1-1.8-1c-0.6,0-1.8,0.5-3.6,1.6
	c-1.8,1.1-3.3,1.6-4.6,1.6c-1.4,0-2.5-0.5-3.3-1.4c-0.8-0.9-1.1-2.1-0.9-3.5h10.8C659.9,285.1,661.6,284.7,662.7,283.9z M648.3,280
	c0.6-1.4,1.5-2.5,2.8-3.4c1.3-0.9,2.7-1.4,4-1.4c1.3,0,2.2,0.3,2.8,0.8c0.6,0.5,0.8,1.2,0.5,2.1c-0.2,0.7-0.6,1.2-1.2,1.4
	c-0.6,0.3-1.6,0.4-3,0.4H648.3z M255,341.3c0.2-0.7,0.2-1.3,0-1.8c-0.3-0.5-0.7-0.7-1.3-0.7c-0.8,0-1.9,0.7-3.3,2.1
	c-0.9,0.8-1.5,1.5-2.1,1.9c-0.5,0.4-1.2,0.9-2,1.5c-1.7,1.2-2.7,2.3-3,3.3c-0.2,0.8-0.2,1.4,0.1,1.8c0.3,0.4,0.9,0.6,1.7,0.6h1.9
	l-2.7,8.8c-0.8,2.6-0.9,4.4-0.3,5.5c0.6,1.1,1.9,1.7,4,1.7c1.6,0,3.2-0.5,4.6-1.4c1.4-0.9,2.4-2.1,2.8-3.4c0.3-0.8,0.2-1.5-0.1-2
	c-0.3-0.5-0.8-0.8-1.5-0.8c-0.6,0-1.2,0.3-2,0.8c-0.8,0.6-1.3,0.8-1.6,0.8c-0.3,0-0.5-0.1-0.5-0.4c0-0.3,0.1-0.8,0.3-1.6l2.4-7.9
	h3.5c1,0,1.8-0.2,2.4-0.6c0.6-0.4,1.1-1,1.3-1.8c0.2-0.8,0.2-1.4-0.2-1.8c-0.4-0.4-1.1-0.6-2-0.6h-3.5l0.8-2.8L255,341.3z
	 M273.1,335.1c-0.2-0.4-0.6-0.5-1.3-0.5c-0.3,0-0.7,0.1-1,0.1c-0.3,0.1-0.8,0.3-1.3,0.7l-4,2.5c-0.5,0.3-0.9,0.6-1.2,0.9
	c-0.3,0.3-0.4,0.7-0.6,1.1c-0.2,0.6-0.1,1.1,0.1,1.4c0.3,0.3,0.8,0.5,1.6,0.5h0.7l-4.9,16.2c-0.3,0.8-0.5,1.4-0.7,1.8
	c-0.2,0.4-0.5,0.6-0.8,0.8c-0.2,0.1-0.5,0.2-0.9,0.4c-1.3,0.5-2.2,1.3-2.5,2.2c-0.2,0.7-0.1,1.2,0.3,1.6c0.4,0.3,1.1,0.5,2.2,0.5
	h6.1c0.9,0,1.6-0.2,2.1-0.5c0.5-0.4,0.9-0.9,1.1-1.7c0.3-0.8-0.1-1.5-0.9-2c-0.3-0.2-0.5-0.3-0.6-0.4c-0.3-0.2-0.4-0.5-0.3-1.1
	c0-0.5,0.2-1.4,0.6-2.5c0.7-2.3,1.5-4,2.4-5c0.9-1,2-1.5,3.3-1.5c1,0,1.6,0.3,1.8,0.8c0.2,0.5,0.1,1.5-0.3,2.9l-1.4,4.7
	c-0.4,1.2-1,2.3-1.8,3.2c-0.8,0.9-1.3,1.5-1.4,1.9c-0.2,0.6-0.1,1.2,0.2,1.7c0.3,0.5,0.8,0.8,1.4,0.8c0.3,0,0.6,0,0.9-0.1
	c0.3-0.1,0.7-0.3,1.2-0.7l4.7-3.4l0.2-0.1c1.3-1,2.1-1.8,2.4-2.6c0.2-0.6,0.2-1.2-0.1-1.6c-0.3-0.4-0.7-0.6-1.3-0.6h-0.3l1.9-6.4
	c0.7-2.3,0.8-4,0.2-5c-0.5-1-1.7-1.6-3.6-1.6c-1.9,0-3.9,0.8-6,2.5c-0.4,0.4-0.7,0.5-0.8,0.5c-0.1,0-0.2,0-0.3-0.1
	c0-0.1,0-0.2,0.1-0.5l3-9.7C273.2,336.2,273.3,335.5,273.1,335.1z M301.2,355.9c0.8-0.6,1.5-1.6,1.9-3.2c0.7-2.3,0.5-4.3-0.7-6
	c-1.2-1.6-3.1-2.4-5.7-2.4c-3,0-5.7,1-8.1,3c-2.4,2-4.1,4.7-5.2,8c-0.9,3.1-0.8,5.6,0.5,7.6c1.3,2,3.4,2.9,6.5,2.9
	c2.2,0,4.3-0.5,6.1-1.6c1.9-1,3-2.2,3.4-3.5c0.2-0.8,0.2-1.4-0.1-2c-0.3-0.5-0.7-0.8-1.4-0.8c-0.5,0-1.4,0.4-2.8,1.3
	c-1.4,0.8-2.6,1.3-3.6,1.3c-1.1,0-2-0.4-2.6-1.1c-0.6-0.7-0.9-1.6-0.7-2.8h8.5C299,356.8,300.3,356.5,301.2,355.9z M289.8,352.8
	c0.5-1.1,1.2-2,2.2-2.7c1-0.7,2.1-1.1,3.2-1.1c1,0,1.7,0.2,2.2,0.6c0.5,0.4,0.6,1,0.4,1.7c-0.2,0.5-0.5,0.9-1,1.1
	c-0.5,0.2-1.3,0.3-2.3,0.3H289.8z M521.1,300.8c10.6-4.1,11.9-11.2,6.3-15c-7.1-4.9-26.4,4.8-32.2,24.4c-2.8,9.6-4.6,16.4-4.6,16.4
	c-0.3,0.9-0.6,1.8-0.8,2.5c-2.3,7-8.8,11.8-12.8,11.3c-1.1-0.1-2.8-0.4-1.6-6.2c0,0,2.9-10.7,4.7-17.8s1.6-14.8-5.5-14.8
	c-7,0-11.4,3.3-11.7,7.8c-0.3,4.5,2,4.4,4.1,4.8s1.1,4.2,1.1,4.2c-0.8,2.8-5.1,17.1-6.2,21.6c-2.7,11.1,4.4,16,13.5,12.7
	c7.8-2.8,10.6-7.3,8.7-3.6c-1.9,3.7,0.9,4.4,6,4.3c8.6-0.2,12.1-1.7,12.5-4.5c0.3-2.8-5.1-2.5-1.1-17.7
	C501.8,330.4,505.3,306.9,521.1,300.8z M666.1,290c-3.9,1.3-3.1,6-1,5.9c1-0.1,5.5,0.1,10.8,0.1c4.3,0,5.2-2.7,2.8-5.1
	c-2.4-2.4-1.6-3,0.1-10.7c1.2-5.6,10.7-13.4,16.6-10.2c5.6,3.1,10.3-1.4,8.8-6.2c-1.6-5-12-3.5-17.7,0.2c-6.4,4.2-7.3,8.1-8.5,5.7
	c-1.6-3.2-5.8,0.6-9.5,4.5c-2.9,3.1-0.1,5.3,2.6,4.8C671.1,279.1,670,288.7,666.1,290z"/>
</svg>
