<?xml version="1.0" encoding="utf-8"?>
<!-- Generator: Adobe Illustrator 21.1.0, SVG Export Plug-In . SVG Version: 6.00 Build 0)  -->
<svg version="1.1" id="Calque_1" xmlns="http://www.w3.org/2000/svg" xmlns:xlink="http://www.w3.org/1999/xlink" x="0px" y="0px"
	 viewBox="0 0 841.9 595.3" style="enable-background:new 0 0 841.9 595.3;" xml:space="preserve">
<style type="text/css">
	.st0{fill:#002337;}
</style>
<g>
	<path class="st0" d="M509.9,265.1c-7,13.9-14.2,28.3-11.8,38.2c1.3,5.7-2.2,11.8-9.6,16.3c-5,3.1-11.5,5-14.3,2.8
		c-0.8-0.7-1.6-1.9-1-4.2c-0.3-0.7-0.6-1-0.9-1.1c-1.9-0.7-7.9,2.5-12.3,4.8c-4.6,2.5-9.5,3.8-14.1,3.8c-4.4,0-8.5-1.2-11.6-3.5
		c-5.4-3.9-7.5-10.8-5.9-19.2c2-10.8,6.6-19.4,10-25.7c1.9-3.5,3.8-7.1,3.3-8.1c-0.1-0.2-0.5-0.2-0.6-0.3c-2-0.3-3.1-1.1-3.5-2.5
		c-0.6-2.2,0.5-6.6,17.2-19.7c7.6-6,17.5-10.8,21.2-7.2c2.6,2.5,1.2,7.7-4.3,15.6c-10.9,15.9-23.2,36.2-19.4,42.7
		c1,1.6,3.1,2.3,6.2,2.1c3.8-0.3,9.1-4.3,14.6-11.1c4.7-5.8,9.1-13,10.9-18.1c1.3-3.5,0.7-4.3,0.7-4.3c-3.7-0.7-5.8-2-6.3-4
		c-1-4,4.5-10,17.8-19.4c4.9-3.4,16.7-11,21.5-7c2.6,2.1,2.3,6.9-0.8,14.1C514.9,255.1,512.3,260.1,509.9,265.1 M616.2,296.9
		c-7.8-3.4-11.5-6.8-11.2-14.7c0.4-9.4,2.7-15.1,13.4-32.8c5.8-9.6,10-15.6,7.1-18.5c-5.8-5.9-19.1,2.3-24.8,6.3
		c-4.1,2.8-11.5,7.4-12.1,13.7c-0.4,3.8,2.4,6,3.6,7.1c-1.5,3.6-3.9,12.5-10.2,25.2c-4.8,9.6-6.7,10.4-13.6,15.1
		c-1.5,1-3.1,2.1-5,3.5c-4.6,3.3-6.4,7-4.9,10.1c2,4.3,10.6,3.2,23.2,0.2c36.1-8.6,46.9,1.2,38.7,5.4c-10.6,5.5-40.4,4-89.8,6.4
		c-49.5,2.4-113.6,11.7-152.5,26.4c-26.3,9.9-61.4,26.6-65.8,42.8c-1.1,4.2-0.3,8.3,2.4,12.2c3.7,5.2,8.4,7.4,13.8,7.4
		c11.4,0,25.2-11,42.3-21c45.1-26.4,84.5-34.3,141.6-43.5c52.7-8.5,97.1-12.4,111.5-20.6c5.8-3.3,9.5-7.1,9.4-14.2
		C633.2,305,625.4,300.9,616.2,296.9 M633.5,208.3c-0.3-3.3-1.8-6.1-4.3-7.9c-2.5-1.8-5.6-2.3-8.7-1.4c-3.1,0.8-5.9,2.9-7.8,5.8
		c-2,2.9-2.9,6.3-2.6,9.5c0.3,3.3,1.8,6.1,4.3,7.9c1.3,0.9,2.7,1.5,4.2,1.7c1.4,0.2,3,0.1,4.5-0.3c3.1-0.8,5.9-2.9,7.8-5.8
		C632.9,214.9,633.8,211.6,633.5,208.3 M564.8,238.7c2.2-3.4,8.5-13.2,13.2-20c4.4-6.4,8.3-14.6,6.1-18.7c-0.9-1.6-2.7-2.4-5.3-2.3
		c-6.4,0.2-12.3,7.5-19.9,16.7c-3.8,4.6-8.1,9.8-12.9,14.7c-5.8,5.9-11.5,10-16.1,13.3c-6.6,4.7-11.4,8.2-11.4,13.5
		c0,2.6,0.8,4.6,2.4,6c1.9,1.7,4.5,1.9,6.1,1.9c-2.9,5.4-14.8,28.2-15.8,39.1c-0.5,6.2,0.9,11,4.1,14c2.5,2.2,5.9,3.4,10.1,3.4
		c1.6,0,3.2-0.2,5-0.5c12.7-2.3,24.5-11,26.5-19.5c1-4.5,0.5-8.1-1.5-10.2c-1.5-1.6-3.8-2.1-6.6-1.5c-2.8,0.6-5.2,2.6-7.3,4.4
		c-2.8,2.5-4.5,3.8-6.1,2.3c-1.7-1.6-0.6-4.1,6.6-18.7l1.4-2.9c5-10.1,6.9-13,7.6-13.8l0.3,0c0.7-0.1,16.3-1.3,23.6-3.8
		c3.9-1.3,6.6-4,7.5-7.5c0.7-2.7,0.1-5.4-1.7-7.4C577.7,238,568.5,238.4,564.8,238.7 M340.6,294.5c0,0-5,28.5-5.8,40.4
		c-0.7,11.9,3.9,18.5,14.2,17.2c10.3-1.2,21.8-9.2,42.9-38.3c20.3-28,56.1-80.3,90-93.4c30.3-11.6,36.5,6.2,49.6,4.8
		c13.1-1.4,21.9-17.9,14.3-29.9c-8.7-13.7-36.6-19.7-72.7-0.2c-40.4,21.8-68.7,62.4-86.2,87.6c-18.9,27.3-29.2,40.1-27.7,31.2
		c0.3-1.7,12-64.8,14.6-72.9c2.7-8.2,14.2-12.6,15.9-19.7c1.8-7.1-10.2-9.6-26.7-6.6c-16.5,3-26.2,8.3-25.9,13.1
		c0.4,4.8,10.4-1.7-0.9,22.4c-12.6,26.8-16.1,35.8-55.6,107.6c0,0,10.4-75.9,13.7-102.9c3.6-28.7,14-36.1,24.1-39.3
		c10.1-3.2,19.2-10.6,9.8-18.8c-9.4-8.2-52.3-11-78.4,1.1c-26.1,12.1-43.5,33.4-41.5,53.8c2,20.4,24.1,28.7,38,21.3
		c13.8-7.5,13.1-18.6,8.7-22.7c-4.4-4.1-7.5-2-13-1.2c-5.5,0.7-9.9-7.6-2.8-17.6c7.1-9.9,25.6-17.2,28.7-3.5
		c3.2,13.7-5.2,72.2-8.5,103.3c-3.5,32.4-8.6,60.5,4,65.4c16.1,6.4,24.5-7.5,38.5-30.5C318.3,339.2,340.6,294.5,340.6,294.5"/>
</g>
</svg>
