<svg xmlns="http://www.w3.org/2000/svg" width="18" height="18" viewBox="0 0 18 18">
  <defs>
    <style>
      .cls-1 {
        fill: #101010;
        stroke: #000;
        stroke-linejoin: round;
        stroke-width: 1px;
        fill-rule: evenodd;
      }
    </style>
  </defs>
  <path id="house" class="cls-1" d="M17,9a0.646,0.646,0,0,1-.189.473,0.623,0.623,0,0,1-.132.088,1.455,1.455,0,0,1-1.011.769H15v5.333A1.333,1.333,0,0,1,13.667,17H4.333A1.333,1.333,0,0,1,3,15.667V10.333H2.333A1.331,1.331,0,0,1,1,9.039c0-.01,0-0.02,0-0.03S1,9,1,9H1A0.646,0.646,0,0,1,1.19,8.556l7.27-7.27a0.613,0.613,0,0,1,.063-0.1,0.7,0.7,0,0,1,.953,0,0.622,0.622,0,0,1,.064.1l7.269,7.27A0.645,0.645,0,0,1,17,9h0ZM8.333,15.667H9.667V12.333H8.333v3.333ZM9,2.587L2.587,9H4.333v6.667H7v-4A0.667,0.667,0,0,1,7.666,11h2.667a0.667,0.667,0,0,1,.667.667v4h2.666V9h1.746Z"/>
</svg>
