<svg xmlns="http://www.w3.org/2000/svg" width="16" height="16" viewBox="0 0 16 16">
  <defs>
    <style>
      .cls-1 {
        fill: #fff;
        fill-rule: evenodd;
      }
    </style>
  </defs>
  <path id="house" class="cls-1" d="M16,8a0.647,0.647,0,0,1-.189.473,0.625,0.625,0,0,1-.132.088,1.456,1.456,0,0,1-1.011.769H14v5.333A1.333,1.333,0,0,1,12.667,16H3.333A1.333,1.333,0,0,1,2,14.667V9.333H1.333A1.331,1.331,0,0,1,0,8.039c0-.01,0-0.02,0-0.03S0,8,0,8H0A0.646,0.646,0,0,1,.19,7.556l7.27-7.27A0.612,0.612,0,0,1,7.524.19a0.7,0.7,0,0,1,.953,0,0.622,0.622,0,0,1,.064.1l7.269,7.27A0.645,0.645,0,0,1,16,8h0ZM7.333,14.667H8.667V11.333H7.333v3.333ZM8,1.587L1.587,8H3.333v6.667H6v-4A0.667,0.667,0,0,1,6.666,10H9.333a0.667,0.667,0,0,1,.667.667v4h2.667V8h1.746Z"/>
</svg>
