<svg xmlns="http://www.w3.org/2000/svg" xmlns:xlink="http://www.w3.org/1999/xlink" width="47" height="38" viewBox="0 0 47 38">
  <defs>
    <style>
      .cls-1 {
        fill-rule: evenodd;
        filter: url(#filter);
      }
    </style>
    <filter id="filter" x="0.75" y="0.375" width="46" height="37" filterUnits="userSpaceOnUse">
      <feFlood result="flood" flood-color="#fff"/>
      <feComposite result="composite" operator="in" in2="SourceGraphic"/>
      <feBlend result="blend" in2="SourceGraphic"/>
    </filter>
  </defs>
  <path id="users" class="cls-1" d="M36.109,21.954a7.708,7.708,0,1,1,7.747-7.708A7.728,7.728,0,0,1,36.109,21.954Zm0-12.333a4.625,4.625,0,1,0,4.648,4.625A4.637,4.637,0,0,0,36.109,9.621ZM22.924,30.156a9.065,9.065,0,0,0-8.507-5.118c-6.988,0-9.794,5.632-10.589,12.333H0.752c1.011-8.364,4.967-15.417,13.665-15.417A11.809,11.809,0,0,1,24.88,27.582,10.923,10.923,0,0,0,22.924,30.156ZM14.417,18.871a9.25,9.25,0,1,1,9.3-9.25A9.274,9.274,0,0,1,14.417,18.871Zm0-15.417a6.167,6.167,0,1,0,6.2,6.167A6.182,6.182,0,0,0,14.417,3.455ZM36.109,25.04c6.814,0,9.889,5.655,10.651,12.331H43.692c-0.569-5.027-2.578-9.253-7.583-9.253s-7.014,4.225-7.583,9.253H25.458C26.219,30.695,29.295,25.04,36.109,25.04Z"/>
</svg>
